<svg width="311" height="48" viewBox="0 0 311 48" fill="none" xmlns="http://www.w3.org/2000/svg">
<path d="M67.1298 37.9325C66.5618 38.0034 66.0649 37.507 66.0649 36.9397C66.0649 28.4302 66.0649 19.9916 66.0649 11.482C66.0649 10.8438 66.5618 10.4183 67.1298 10.4183C72.3832 10.4183 77.5656 10.4183 82.819 10.4183C84.8778 10.4183 86.7946 11.1984 88.2144 12.6875C89.6343 14.1058 90.4862 16.0914 90.4152 18.1478C90.4152 19.8497 89.7052 21.4098 88.4984 22.4735C90.7701 23.8209 91.835 25.8773 91.693 28.7138C91.48 33.3232 87.7175 36.8688 82.748 37.1525C77.4946 37.2943 72.3122 37.5779 67.1298 37.9325ZM79.1984 28.2884C79.9083 28.2884 79.9083 27.9338 79.9083 27.792C79.9083 27.6501 79.9083 27.2956 79.1984 27.2956C78.7725 27.2956 78.2755 27.2956 77.8496 27.3665C77.8496 27.7211 77.8496 28.0047 77.8496 28.3593C78.3465 28.3593 78.7725 28.2884 79.1984 28.2884ZM78.6305 19.5661C78.7015 19.5661 78.8435 19.5661 78.8435 19.2824C78.8435 19.2115 78.8435 19.1406 78.7725 19.1406C78.7725 19.1406 78.7015 19.0697 78.5595 19.0697C78.3465 19.0697 78.0625 19.0697 77.8496 19.0697C77.8496 19.2115 77.8496 19.3533 77.8496 19.4952C78.1335 19.5661 78.3465 19.5661 78.6305 19.5661Z" fill="#2D2D34"/>
<path d="M82.819 11.4111C86.5106 11.4111 89.4213 14.4603 89.3503 18.0769C89.2793 19.9915 88.2144 21.8353 86.2976 22.5444C89.2083 23.6081 90.7701 25.3809 90.6281 28.572C90.4152 32.6849 87.1495 35.7342 82.748 36.0178C77.5656 36.3015 72.3832 36.5851 67.1298 36.8688C67.1298 28.4301 67.1298 19.9206 67.1298 11.482C72.3832 11.4111 77.5656 11.4111 82.819 11.4111ZM76.7847 20.6297C77.3526 20.6297 77.9916 20.6297 78.5595 20.5588C80.1923 20.4879 80.3343 17.9351 78.5595 18.006C77.9916 18.006 77.3526 18.006 76.7847 18.006C76.7847 18.9278 76.7847 19.7788 76.7847 20.6297ZM76.7847 29.4229C77.5656 29.4229 78.4175 29.352 79.1984 29.352C80.4053 29.2811 80.9732 28.5011 80.9732 27.721C80.9732 26.941 80.4763 26.1609 79.1984 26.2318C78.4175 26.2318 77.5656 26.3028 76.7847 26.3028C76.7847 27.3665 76.7847 28.4301 76.7847 29.4229ZM82.819 9.28369C77.5656 9.28369 72.3832 9.28368 67.1298 9.21277C65.9229 9.21277 65 10.2056 65 11.4111C65 19.9206 65 28.4301 65 36.9397C65 38.1452 65.9229 39.0671 67.1298 38.9962C72.3122 38.6416 77.4946 38.3579 82.748 38.0743C88.2854 37.7197 92.5449 33.7486 92.7579 28.572C92.8999 25.8064 92.048 23.679 90.1312 22.1898C90.9831 21.0552 91.48 19.637 91.551 18.0769C91.622 15.8077 90.6991 13.5385 89.0663 11.9075C87.2915 10.2056 85.1618 9.28369 82.819 9.28369Z" fill="#C59D6E"/>
<path d="M91.8349 36.5141C91.267 36.5141 90.7701 36.0886 90.7701 35.5213C90.7701 27.4373 90.7701 19.4241 90.7701 11.3401C90.7701 10.7728 91.267 10.2764 91.8349 10.2764C98.4372 10.2764 105.11 10.2764 111.713 10.2764C112.281 10.2764 112.778 10.7019 112.778 11.2692C112.778 13.5384 112.778 15.8076 112.778 18.1477C112.778 18.5732 112.494 18.9277 112.139 19.0696C112.281 19.2114 112.423 19.495 112.423 19.7078C112.423 21.8352 112.423 24.0335 112.423 26.1608C112.423 26.3736 112.352 26.5863 112.21 26.7991C112.565 26.9409 112.849 27.2954 112.849 27.7209C112.849 29.9901 112.849 32.2593 112.849 34.5995C112.849 35.1668 112.352 35.5922 111.784 35.6632C105.039 35.9468 98.4372 36.2305 91.8349 36.5141Z" fill="#2D2D34"/>
<path d="M111.713 11.3402C111.713 13.6094 111.713 15.8786 111.713 18.2187C108.305 18.2896 104.898 18.2896 101.49 18.3605C101.49 18.8569 101.49 19.4242 101.49 19.9206C104.756 19.8497 108.092 19.8497 111.358 19.7788C111.358 21.9771 111.358 24.1045 111.358 26.3028C108.092 26.3737 104.756 26.4446 101.49 26.5864C101.49 27.0828 101.49 27.6501 101.49 28.1465C104.898 28.0756 108.305 27.9338 111.713 27.8629C111.713 30.1321 111.713 32.4013 111.713 34.7414C105.111 35.0251 98.4373 35.3087 91.835 35.5924C91.835 27.5792 91.835 19.4951 91.835 11.482C98.4373 11.3402 105.111 11.3402 111.713 11.3402ZM111.713 9.35461C105.111 9.35461 98.4373 9.3546 91.835 9.28369C90.6281 9.28369 89.7052 10.2056 89.7052 11.3402C89.7052 19.4242 89.7052 27.5083 89.7052 35.5924C89.7052 36.727 90.6281 37.6488 91.835 37.5779C98.4373 37.2234 105.111 36.9397 111.713 36.6561C112.92 36.5851 113.843 35.6633 113.843 34.5996C113.843 32.3304 113.843 30.0612 113.843 27.792C113.843 27.3665 113.701 26.941 113.417 26.5864C113.417 26.4446 113.417 26.3737 113.417 26.2319C113.417 24.1045 113.417 21.9062 113.417 19.7788C113.417 19.637 113.417 19.5661 113.417 19.4242C113.701 19.0697 113.843 18.6442 113.843 18.2187C113.843 15.9495 113.843 13.6803 113.843 11.4111C113.843 10.2765 112.92 9.35461 111.713 9.35461Z" fill="#C59D6E"/>
<path d="M133.011 34.8832C132.585 34.8832 132.159 34.6705 132.017 34.3159C131.733 33.6777 131.449 32.9686 131.165 32.3303C129.035 32.4012 126.905 32.4722 124.775 32.5431C124.491 33.2522 124.208 33.8904 123.995 34.5995C123.853 34.9541 123.427 35.2378 123.001 35.3087C119.664 35.4505 116.327 35.5214 112.991 35.6632C112.423 35.6632 111.926 35.2378 111.926 34.6705C111.926 34.3868 111.926 34.1032 111.926 33.7486C111.926 33.6068 111.926 33.4649 111.997 33.394C115.192 25.7354 118.386 18.1478 121.581 10.7019C121.723 10.3474 122.149 10.0637 122.575 10.0637C126.195 10.0637 129.887 10.0637 133.507 10.0637C133.933 10.0637 134.359 10.2765 134.501 10.7019C137.696 18.006 140.891 25.2391 144.085 32.4013C144.156 32.5431 144.156 32.614 144.156 32.7558C144.156 33.0395 144.156 33.3231 144.156 33.6068C144.156 34.1032 143.659 34.5995 143.091 34.5995C139.755 34.7414 136.347 34.8123 133.011 34.8832ZM128.183 24.6008C128.112 24.459 128.112 24.2463 128.041 24.1044C127.97 24.2463 127.97 24.459 127.899 24.6008C127.97 24.6008 128.041 24.6008 128.183 24.6008Z" fill="#2D2D34"/>
<path d="M133.507 11.0564C136.702 18.3604 139.897 25.5936 143.091 32.7558C143.091 33.0394 143.091 33.3231 143.091 33.6067C139.755 33.6776 136.418 33.7485 133.081 33.8904C132.726 33.0394 132.371 32.1885 132.016 31.3375C129.39 31.4084 126.763 31.4793 124.136 31.5502C123.781 32.4721 123.426 33.3231 123.071 34.2449C119.735 34.3867 116.398 34.4577 113.062 34.5995C113.062 34.3158 113.062 34.0322 113.062 33.6776C116.256 26.019 119.451 18.5023 122.646 11.0564C126.195 11.0564 129.887 11.0564 133.507 11.0564ZM126.55 25.5936C127.544 25.5936 128.538 25.5226 129.461 25.5226C128.964 23.608 128.467 21.7643 127.97 19.8496C127.544 21.7643 127.047 23.6789 126.55 25.5936ZM133.507 9.14178C129.887 9.14178 126.195 9.14178 122.575 9.14178C121.723 9.14178 120.942 9.63817 120.587 10.3473C117.392 17.7931 114.197 25.3808 111.003 33.0394C110.932 33.2521 110.861 33.5358 110.861 33.7485C110.861 34.0322 110.861 34.3158 110.861 34.6704C110.861 35.805 111.784 36.656 112.991 36.585C116.327 36.4432 119.664 36.3014 123 36.2305C123.923 36.2305 124.704 35.6632 124.988 34.8831C125.201 34.4577 125.343 33.9613 125.556 33.5358C127.189 33.4649 128.822 33.4649 130.455 33.394C130.668 33.8194 130.81 34.3158 131.023 34.7413C131.307 35.4504 132.158 35.9468 133.01 35.9468C136.347 35.8759 139.684 35.7341 143.02 35.6632C144.227 35.6632 145.15 34.7413 145.15 33.6776C145.15 33.394 145.15 33.1103 145.15 32.8267C145.15 32.6139 145.079 32.3303 145.008 32.1175C141.813 24.9553 138.619 17.7222 135.424 10.4182C135.14 9.63818 134.359 9.14178 133.507 9.14178Z" fill="#C59D6E"/>
<path d="M157.645 34.3159C157.219 34.3159 156.864 34.1032 156.651 33.8195C156.083 32.6849 155.444 31.6212 154.876 30.4866C154.876 31.4794 154.876 32.4722 154.876 33.465C154.876 33.9614 154.379 34.3868 153.811 34.4577C150.616 34.5287 147.351 34.5996 144.156 34.6705C143.588 34.6705 143.091 34.245 143.091 33.7486C143.091 26.3028 143.091 18.8569 143.091 11.4111C143.091 10.9147 143.588 10.4183 144.156 10.4892C147.706 10.4892 151.326 10.4892 154.876 10.4892C163.679 10.5601 168.08 13.6094 168.08 19.4951C168.08 22.4026 166.945 24.6718 164.744 26.161C165.951 28.1465 167.158 30.1321 168.364 32.1176C168.435 32.2594 168.506 32.4013 168.506 32.5431C168.506 32.7558 168.506 32.9686 168.506 33.2522C168.506 33.7486 168.009 34.1741 167.442 34.1741C164.176 34.245 160.91 34.245 157.645 34.3159ZM155.089 19.9915C156.367 19.9915 156.367 19.7788 156.367 19.4951C156.367 19.2115 156.367 18.9278 155.089 18.9278C155.018 18.9278 154.876 18.9278 154.805 18.9278C154.805 19.2824 154.805 19.637 154.805 19.9915C154.876 19.9915 155.018 19.9915 155.089 19.9915Z" fill="#2D2D34"/>
<path d="M154.876 11.3402C161.052 11.4111 167.016 12.9003 167.016 19.4243C167.016 22.6153 165.525 24.6009 163.395 25.8064C164.744 28.0756 166.093 30.2739 167.442 32.5431C167.442 32.7559 167.442 32.9686 167.442 33.2523C164.176 33.3232 160.91 33.3232 157.716 33.3941C156.651 31.4794 155.586 29.4939 154.592 27.5792C154.379 27.5792 154.166 27.5792 153.953 27.5792C153.953 29.5648 153.953 31.4795 153.953 33.465C150.758 33.5359 147.493 33.6068 144.298 33.6777C144.298 26.2319 144.298 18.786 144.298 11.3402C148.203 11.3402 150.9 11.3402 154.876 11.3402ZM153.74 20.9843C154.166 20.9843 154.663 20.9843 155.089 20.9843C156.651 20.9134 157.432 20.5589 157.432 19.4952C157.432 18.4315 156.722 18.006 155.089 18.006C154.663 18.006 154.166 18.006 153.74 18.006C153.74 18.9988 153.74 19.9916 153.74 20.9843ZM154.876 9.49646C151.326 9.49646 147.706 9.49646 144.156 9.49646C142.949 9.49646 142.026 10.3474 142.026 11.4111C142.026 18.857 142.026 26.3028 142.026 33.7487C142.026 34.8123 142.949 35.6633 144.156 35.5924C147.351 35.5215 150.616 35.4506 153.811 35.3797C154.663 35.3797 155.373 34.8833 155.728 34.245C156.083 34.8833 156.793 35.3087 157.645 35.2378C160.91 35.1669 164.176 35.096 167.371 35.096C168.577 35.096 169.5 34.245 169.5 33.1814C169.5 32.9686 169.5 32.7559 169.5 32.4722C169.5 32.1886 169.429 31.834 169.287 31.6213C168.222 29.8484 167.158 28.0756 166.093 26.3028C167.726 24.9555 169.145 22.7572 169.145 19.4243C169.145 14.9568 166.732 9.56737 154.876 9.49646Z" fill="#C59D6E"/>
<path d="M189.165 34.5994C179.368 34.6703 174.896 28.2882 174.896 22.3315C174.896 16.3039 179.439 9.92175 189.236 9.92175C195.413 9.92175 202.157 13.1128 203.435 20.1332C203.506 20.3459 203.435 20.6296 203.222 20.8423C203.435 20.9842 203.506 21.2678 203.506 21.4805C203.506 21.6224 203.506 21.6933 203.506 21.8351C203.506 23.1115 203.506 24.2462 203.151 25.6644C201.305 31.8338 194.845 34.5994 189.165 34.5994ZM189.449 19.495C188.029 19.495 186.539 20.4169 186.539 22.4024C186.539 23.7498 187.035 24.6007 187.674 25.0262C187.674 23.8916 187.674 22.6861 187.674 21.5515C187.674 21.0551 188.171 20.6296 188.739 20.6296C189.733 20.6296 190.727 20.6296 191.721 20.6296C191.224 19.8496 190.372 19.495 189.449 19.495Z" fill="#2D2D34"/>
<path d="M189.165 10.8437C195.199 10.8437 201.163 14.0348 202.299 20.2751C199.104 20.2751 195.909 20.2751 192.786 20.2751C192.076 19.1405 190.798 18.5023 189.449 18.5023C187.461 18.5023 185.474 19.7787 185.474 22.3316C185.474 25.3099 187.532 26.3736 189.591 26.3736C190.656 26.3736 192.147 25.9482 192.573 25.0972C191.295 25.0972 190.017 25.0972 188.739 25.0972C188.739 23.8917 188.739 22.6862 188.739 21.4807C193.283 21.4807 197.897 21.4807 202.441 21.4807C202.441 22.8989 202.512 23.9626 202.086 25.3809C200.524 30.8411 194.845 33.6067 189.165 33.6067C182.563 33.6067 175.961 29.9193 175.961 22.2607C175.961 14.673 182.563 10.8437 189.165 10.8437ZM189.165 9C181.569 9 173.831 13.5384 173.76 22.3316C173.831 31.0539 181.498 35.5214 189.094 35.5214C195.2 35.5214 202.157 32.543 204.074 25.8772C204.499 24.3172 204.499 23.1826 204.499 21.8352C204.499 21.6934 204.499 21.6225 204.499 21.4807C204.499 21.197 204.428 20.9843 204.357 20.7715C204.428 20.5588 204.428 20.2751 204.428 19.9915C203.08 12.4747 195.767 9.07091 189.165 9Z" fill="#C59D6E"/>
<path d="M221.609 34.174C221.183 34.174 220.757 33.9613 220.615 33.5358C220.331 32.8976 220.047 32.2593 219.763 31.6211C217.633 31.6211 215.503 31.5502 213.373 31.5502C213.089 32.1884 212.805 32.8267 212.593 33.4649C212.451 33.8194 212.025 34.0322 211.599 34.0322C208.262 34.0322 204.925 33.9613 201.589 33.9613C201.021 33.9613 200.524 33.5358 200.524 33.0394C200.524 32.7557 200.524 32.4721 200.524 32.1884C200.524 32.0466 200.524 31.9757 200.595 31.8339C203.79 24.8135 206.984 17.864 210.179 10.8437C210.321 10.4891 210.747 10.2764 211.173 10.2764C214.793 10.2764 218.485 10.2764 222.105 10.3473C222.531 10.3473 222.957 10.56 223.099 10.9146C226.294 17.935 229.489 25.0262 232.683 32.1884C232.754 32.3303 232.754 32.4012 232.754 32.543C232.754 32.8267 232.754 33.1103 232.754 33.394C232.754 33.8903 232.257 34.3158 231.689 34.3158C228.282 34.3158 224.945 34.2449 221.609 34.174ZM216.71 24.1753C216.639 24.0335 216.639 23.8916 216.568 23.6789C216.497 23.8207 216.497 23.9625 216.426 24.1753C216.497 24.1753 216.639 24.1753 216.71 24.1753Z" fill="#2D2D34"/>
<path d="M222.035 11.3402C225.229 18.3605 228.424 25.4518 231.618 32.614C231.618 32.8977 231.618 33.1813 231.618 33.465C228.282 33.3941 224.945 33.3231 221.609 33.3231C221.254 32.4722 220.899 31.6212 220.544 30.7703C217.917 30.7703 215.29 30.6994 212.664 30.6994C212.309 31.5503 211.954 32.3304 211.599 33.1813C208.262 33.1813 204.925 33.1104 201.589 33.1104C201.589 32.8267 201.589 32.5431 201.589 32.2594C204.783 25.2391 207.978 18.2896 211.173 11.2693C214.722 11.2693 218.414 11.2693 222.035 11.3402ZM215.077 25.0973C216.071 25.0973 217.065 25.0973 217.988 25.0973C217.491 23.2535 216.994 21.4807 216.497 19.637C216.071 21.4807 215.574 23.2535 215.077 25.0973ZM222.035 9.42552C218.414 9.42552 214.722 9.42553 211.102 9.35461C210.25 9.35461 209.469 9.78008 209.114 10.4892C205.919 17.5096 202.725 24.459 199.53 31.4794C199.459 31.6921 199.388 31.9049 199.388 32.1885C199.388 32.4722 199.388 32.7558 199.388 33.0395C199.388 34.0323 200.311 34.8832 201.518 34.8832C204.854 34.8832 208.191 34.8832 211.528 34.9541C212.451 34.9541 213.232 34.4577 213.515 33.7486C213.728 33.3231 213.87 32.8977 214.083 32.4722C215.716 32.4722 217.349 32.4722 218.982 32.5431C219.195 32.9686 219.337 33.394 219.55 33.8904C219.834 34.5996 220.686 35.096 221.538 35.096C224.874 35.1669 228.211 35.1669 231.547 35.2378C232.754 35.2378 233.677 34.4577 233.677 33.394C233.677 33.1104 233.677 32.8267 233.677 32.5431C233.677 32.3304 233.606 32.0467 233.535 31.834C230.341 24.6718 227.146 17.5805 223.951 10.5601C223.738 9.92191 222.886 9.42552 222.035 9.42552Z" fill="#C59D6E"/>
<path d="M251.851 34.8123C251.283 34.8123 250.786 34.3869 250.786 33.8196C250.786 32.1886 250.786 30.5576 250.786 28.9266C250.786 28.8557 250.786 28.8557 250.786 28.7848C250.857 28.4302 250.857 28.0756 250.928 27.7211C250.502 28.2884 250.076 28.8557 249.722 29.423C249.509 29.7066 249.225 29.8484 248.799 29.8484C247.663 29.8484 246.527 29.7775 245.391 29.7775C245.036 29.7775 244.681 29.6357 244.468 29.3521C244.042 28.7848 243.616 28.2174 243.261 27.6501C243.332 28.0047 243.332 28.3593 243.403 28.7138C243.403 28.7848 243.403 28.7848 243.403 28.8557C243.403 30.4867 243.403 32.1177 243.403 33.7487C243.403 34.245 242.906 34.6705 242.338 34.6705C239.144 34.5996 235.949 34.5287 232.754 34.4578C232.186 34.4578 231.69 34.0323 231.69 33.5359C231.69 26.3028 231.69 18.9988 231.69 11.7657C231.69 11.2693 232.186 10.8438 232.754 10.8438C235.878 10.8438 239.002 10.8438 242.125 10.9147C242.48 10.9147 242.764 11.0565 242.977 11.3402C244.326 13.0421 245.675 14.8149 247.095 16.5878C248.444 14.8858 249.792 13.113 251.212 11.4111C251.425 11.1275 251.709 10.9856 252.064 10.9856C255.188 10.9856 258.312 10.9856 261.364 11.0566C261.932 11.0566 262.429 11.482 262.429 12.0493C262.429 19.4952 262.429 26.941 262.429 34.4578C262.429 34.9542 261.932 35.3797 261.364 35.3797C258.17 35.0251 255.046 34.8833 251.851 34.8123Z" fill="#2D2D34"/>
<path d="M261.364 11.7656C261.364 19.2115 261.364 26.6573 261.364 34.1032C258.169 34.0323 254.975 33.8904 251.851 33.8195C251.851 32.1885 251.851 30.5575 251.851 28.8556C252.064 27.1537 252.277 25.4518 252.49 23.7499C251.283 25.4518 250.005 27.1537 248.798 28.7847C247.663 28.7847 246.527 28.7138 245.391 28.7138C244.113 27.0119 242.906 25.2391 241.628 23.5372C241.841 25.2391 242.054 26.941 242.338 28.6429C242.338 30.2739 242.338 31.9049 242.338 33.5359C239.144 33.4649 235.949 33.394 232.754 33.3231C232.754 26.0191 232.754 18.786 232.754 11.482C235.807 11.482 239.073 11.482 242.125 11.5529C243.758 13.6803 245.462 15.7368 247.095 17.8641C248.727 15.8077 250.431 13.6803 252.064 11.6238C255.046 11.7656 258.311 11.7656 261.364 11.7656ZM261.364 9.85099C258.24 9.85099 255.117 9.85098 252.064 9.78007C251.354 9.78007 250.715 10.0637 250.289 10.5601C249.224 11.9075 248.16 13.2548 247.095 14.6021C246.03 13.2548 244.965 11.8365 243.9 10.4892C243.474 9.99281 242.835 9.70916 242.125 9.70916C239.002 9.70916 235.878 9.70916 232.754 9.63824C231.547 9.63824 230.625 10.4892 230.625 11.482C230.625 18.7151 230.625 26.0191 230.625 33.2522C230.625 34.3159 231.547 35.1669 232.754 35.1669C235.949 35.2378 239.144 35.3087 242.338 35.3796C243.545 35.3796 244.468 34.5996 244.468 33.5359C244.468 32.4722 244.468 31.4085 244.468 30.3448C244.752 30.4866 245.036 30.5575 245.391 30.5575C246.527 30.5575 247.663 30.6284 248.798 30.6284C249.153 30.6284 249.437 30.5575 249.721 30.4866C249.721 31.5503 249.721 32.614 249.721 33.6777C249.721 34.7414 250.644 35.5923 251.851 35.6632C255.046 35.7342 258.24 35.876 261.364 35.9469C262.571 36.0178 263.494 35.1669 263.494 34.1032C263.494 26.6573 263.494 19.1406 263.494 11.6947C263.494 10.7019 262.5 9.85099 261.364 9.85099Z" fill="#C59D6E"/>
<path d="M263.352 35.1669C262.784 35.1669 262.287 34.6705 262.287 34.1741C262.287 26.7282 262.287 19.2824 262.287 11.7656C262.287 11.2692 262.784 10.7729 263.352 10.8438C269.954 10.9147 276.627 10.9147 283.23 10.9856C283.798 10.9856 284.295 11.4111 284.295 11.9784C284.295 14.2476 284.295 16.5168 284.295 18.786C284.295 19.2115 284.011 19.566 283.656 19.7079C283.798 19.8497 283.94 20.1334 283.94 20.3461C283.94 22.4735 283.94 24.6009 283.94 26.7282C283.94 26.941 283.869 27.1537 283.727 27.3665C284.082 27.5083 284.366 27.8628 284.366 28.2883C284.366 30.5575 284.366 32.8267 284.366 35.0959C284.366 35.6632 283.869 36.0887 283.301 36.0178C276.627 35.6632 269.954 35.3796 263.352 35.1669Z" fill="#2D2D34"/>
<path d="M283.23 11.9074C283.23 14.1766 283.23 16.4459 283.23 18.6442C279.822 18.5732 276.414 18.5023 273.007 18.5023C273.007 18.9987 273.007 19.4951 273.007 19.9915C276.272 20.0624 279.609 20.1333 282.875 20.2042C282.875 22.3316 282.875 24.459 282.875 26.5864C279.609 26.5155 276.272 26.3737 273.007 26.3027C273.007 26.7991 273.007 27.2955 273.007 27.7919C276.414 27.8628 279.822 28.0047 283.23 28.0756C283.23 30.3448 283.23 32.614 283.23 34.8123C276.627 34.5286 269.954 34.3159 263.352 34.1032C263.352 26.6573 263.352 19.1405 263.352 11.6947C269.954 11.8365 276.556 11.9074 283.23 11.9074ZM283.23 9.99279C276.627 9.99279 269.954 9.92188 263.352 9.92188C262.145 9.92188 261.222 10.7728 261.222 11.8365C261.222 19.2824 261.222 26.7282 261.222 34.1741C261.222 35.2378 262.145 36.0887 263.352 36.1596C269.954 36.3724 276.627 36.656 283.23 36.9397C284.437 37.0106 285.359 36.1596 285.359 35.025C285.359 32.7558 285.359 30.4866 285.359 28.2174C285.359 27.7919 285.217 27.3664 284.933 27.0119C284.933 26.87 284.933 26.7991 284.933 26.6573C284.933 24.5299 284.933 22.4025 284.933 20.2042C284.933 20.0624 284.933 19.9915 284.933 19.8497C285.217 19.4951 285.359 19.1405 285.359 18.6442C285.359 16.3749 285.359 14.1057 285.359 11.8365C285.359 10.8438 284.366 9.99279 283.23 9.99279Z" fill="#C59D6E"/>
<path d="M296.292 37.1523C288.554 36.7269 283.585 32.8267 283.514 27.0827C283.514 26.7991 283.656 26.5863 283.798 26.3736C284.011 26.1608 284.294 26.0899 284.578 26.0899C286.211 26.1608 287.915 26.1608 289.548 26.2318C286.353 25.1681 283.585 23.1116 283.585 18.6441C283.585 13.7511 288.909 10.2764 296.221 10.2764C303.817 10.2764 308.645 13.822 308.787 19.495C308.787 19.7787 308.716 20.0623 308.503 20.2042C308.29 20.4169 308.006 20.4878 307.722 20.4878C305.521 20.4169 303.249 20.346 301.049 20.346C305.237 21.197 309.213 23.1825 309.213 28.501C309.213 34.3867 304.385 37.5778 296.292 37.1523ZM295.298 27.4373C295.298 27.5791 295.298 27.8628 296.434 27.9337C297.073 27.9337 297.286 27.8628 297.357 27.7918C297.286 27.7209 296.931 27.5791 295.937 27.4373C295.724 27.4373 295.511 27.4373 295.298 27.4373ZM296.434 19.2114C296.008 19.2114 295.582 19.3532 295.582 19.495C295.582 19.6369 295.795 19.7078 296.15 19.7078C296.576 19.7787 297.073 19.7787 297.57 19.8496C297.499 19.7078 297.428 19.566 297.428 19.4241C297.215 19.3532 296.931 19.2114 296.434 19.2114Z" fill="#2D2D34"/>
<path d="M296.221 11.3402C302.61 11.3402 307.58 14.0349 307.722 19.5661C304.598 19.4951 301.475 19.4242 298.351 19.3533C298.351 18.6442 297.357 18.2187 296.434 18.2187C295.582 18.2187 294.517 18.5024 294.517 19.4951C294.517 20.2752 295.227 20.7007 296.008 20.7716C301.191 21.268 308.148 22.048 308.148 28.572C308.148 34.9541 301.83 36.4433 296.221 36.1596C290.045 35.876 284.578 32.9686 284.507 27.1537C287.702 27.2246 290.968 27.3665 294.162 27.4374C294.162 28.572 295.227 28.9265 296.363 28.9265C297.428 28.9975 298.351 28.7138 298.351 27.8629C298.351 27.0828 297.783 26.7282 296.008 26.4446C290.613 25.8064 284.72 24.8136 284.72 18.7151C284.72 14.0349 290.116 11.3402 296.221 11.3402ZM296.221 9.35461C288.27 9.35461 282.52 13.2548 282.52 18.7151C282.52 21.7644 283.727 23.7499 285.43 25.1682C285.146 25.1682 284.791 25.1682 284.507 25.1682C283.94 25.1682 283.372 25.3809 283.017 25.7355C282.591 26.09 282.378 26.5864 282.378 27.1537C282.449 33.465 287.844 37.7907 296.221 38.2161C304.882 38.7125 310.278 35.096 310.278 28.7138C310.278 25.7355 309.071 23.3244 306.728 21.6934C307.083 21.6934 307.438 21.6934 307.722 21.6934C308.29 21.6934 308.858 21.4807 309.213 21.1261C309.639 20.7716 309.852 20.2043 309.852 19.637C309.71 13.2548 304.527 9.35461 296.221 9.35461Z" fill="#C59D6E"/>
<path d="M26.5632 46.7002C26.4767 46.6714 26.419 46.6426 26.3325 46.6426C26.1883 46.585 26.0441 46.5562 25.8999 46.4986C25.5249 46.3833 25.15 46.2681 24.775 46.0952C24.0828 45.8071 23.3618 45.4326 22.6408 44.9141C21.9774 44.4531 21.3717 43.9057 20.8237 43.3007L21.141 45.231L18.949 43.7041C18.8336 43.6752 18.6894 43.6464 18.4876 43.5312C17.7377 43.0702 17.0743 42.4076 16.584 41.6298L16.6128 42.0907L14.5651 40.5926C12.4596 39.0657 10.931 37.2795 9.9504 35.2341L10.2677 36.9914C10.1811 36.8762 8.85441 35.3205 8.76789 35.2052C8.59484 34.9171 8.39294 34.6291 8.21989 34.3121C7.87379 33.736 7.49885 33.0445 7.12391 32.3531C6.86433 31.8921 6.6336 31.3736 6.40287 30.855C6.02792 30.0195 5.76835 29.3857 5.53761 28.7807C5.33572 28.2333 5.16267 27.7148 4.98962 27.1962L4.93194 26.9945C4.78773 26.5048 4.61468 25.9862 4.47047 25.4388C4.38394 25.0643 4.29742 24.661 4.23974 24.2864C4.21089 24.1712 4.21089 24.0271 4.18205 23.9119C4.15321 23.7967 4.12437 23.6526 4.12437 23.5374C4.06668 23.1629 3.98016 22.7883 3.95132 22.385C3.89364 21.7512 3.80711 21.0021 3.80711 20.2243C3.80711 19.6769 3.86479 19.1583 3.89363 18.6686C3.89363 18.5245 3.92248 18.3805 3.92248 18.2364V18.0348C3.95132 17.6314 3.98016 17.2281 4.06669 16.796C4.15321 16.3062 4.26858 15.8164 4.41279 15.269C4.52815 14.8081 4.67236 14.376 4.78773 13.9438L4.87425 13.6269L4.84541 13.4829L4.81657 13.454C4.52815 13.2236 4.23974 12.9931 3.95132 12.7338C2.99954 11.956 2.16313 11.034 1.49977 10.0545C1.12483 9.47833 0.807569 8.90214 0.547993 8.38357C0.374943 8.03786 0.31726 7.72095 0.230735 7.43286L0.201893 7.26C0.14421 7.05833 0.115368 6.85667 0.0576848 6.655L0 6.30929V5.27214V5.18571V5.1281C0 5.01286 0.0288426 4.84 0.0865261 4.66714C0.259576 4.06214 0.576836 3.19786 1.2402 2.42C1.90356 1.64214 2.65344 1.15238 3.51869 0.921905C3.92248 0.806667 4.32626 0.777857 4.75889 0.777857C5.47993 0.777857 6.22981 0.921905 7.06622 1.26762C7.75843 1.5269 8.33526 1.93024 8.88325 2.27595C8.99862 2.36238 9.11399 2.42 9.22935 2.50643C9.69082 2.79452 10.1234 3.14024 10.5272 3.42833C10.6714 3.54357 10.8156 3.65881 10.9599 3.74524L11.1041 3.86048C11.4213 3.48595 11.7674 3.14024 12.1424 2.85214C12.4885 2.59286 12.8634 2.30476 13.296 1.98786C13.844 1.61333 14.5074 1.29643 15.2861 1.03714C15.7476 0.893095 16.1802 0.777857 16.6417 0.691429C16.757 0.662619 16.9013 0.63381 17.0166 0.605C17.2762 0.547381 17.5069 0.489762 17.7665 0.432143L18.1415 0.345714L19.4393 0.201667C19.872 0.144048 20.3334 0.115238 20.766 0.0864286L20.9679 0.0576191L21.1121 0.0288095L21.1987 0H23.9098L24.054 0.0288095C24.0828 0.0288095 24.1117 0.0288095 24.1405 0.0576191C24.5155 0.0864286 24.8904 0.115238 25.2654 0.144048L26.8805 0.259286V0.316905H26.967H26.9959C27.4573 0.403333 27.9188 0.489762 28.5245 0.63381C28.6398 0.662619 28.7264 0.691429 28.8417 0.691429C29.1878 0.749048 29.5628 0.835476 29.9377 0.979524C30.428 1.18119 31.0914 1.44048 31.6971 1.84381C32.3316 2.24714 32.9084 2.67929 33.4276 3.16905C33.6295 3.37071 33.8314 3.57238 34.0044 3.77405L34.2063 3.60119C34.437 3.39952 34.6966 3.19786 34.9562 3.025C35.4753 2.65048 35.9656 2.30476 36.4271 2.01667C36.7732 1.78619 37.1482 1.55571 37.5808 1.35405C38.0422 1.15238 38.4749 0.979524 38.9075 0.864286C39.3401 0.749048 39.8016 0.662619 40.2919 0.662619C40.3496 0.662619 40.3784 0.662619 40.4361 0.662619C41.3302 0.691429 42.0801 0.921905 42.7434 1.32524C43.2914 1.67095 43.7529 2.1031 44.099 2.59286C44.4163 3.05381 44.7624 3.60119 44.9354 4.32143C45.0219 4.66714 45.0796 4.98405 45.1085 5.30095C45.1662 5.81952 45.1085 6.3381 44.9931 6.97191C44.8489 7.63452 44.6182 8.26833 44.3009 8.87333C43.8106 9.79524 43.3203 10.4867 42.7434 11.0629L42.6858 11.1205C42.1378 11.6679 41.5898 12.244 41.0129 12.7914C40.7534 13.0219 40.4938 13.2236 40.2631 13.3964V13.5117C40.638 14.4624 40.9841 16.0181 40.9841 16.0181C41.2148 15.5283 41.5321 14.7217 41.5321 14.7217C41.6186 14.9521 42.2243 16.5655 42.282 16.8536C42.3108 17.1129 42.3685 17.3721 42.3973 17.6026C42.455 17.9483 42.4839 18.2652 42.5416 18.5533C42.6858 19.3888 42.7146 20.1955 42.7146 20.8869C42.7146 21.5207 42.6569 22.1257 42.5992 22.7019L42.5704 22.9036C42.5127 23.3933 42.4839 23.8831 42.3685 24.4017C42.2243 25.0067 42.0512 25.6117 41.8494 26.159C41.6763 26.6488 41.5033 27.1098 41.3302 27.5131C41.186 27.83 41.0418 28.1469 40.8976 28.435L40.8687 28.4926C40.5803 29.04 40.3207 29.6162 40.0323 30.1636C39.9458 30.3652 39.8304 30.5381 39.7151 30.7398C39.5709 30.9991 39.4555 31.2295 39.3401 31.46C39.0517 32.0362 38.7921 32.6412 38.5614 33.1886C38.3883 33.5919 38.273 33.9952 38.1576 34.341C38.0711 34.6579 38.0134 34.9748 37.9846 35.3205C37.9557 35.7814 37.9269 36.2712 37.9557 36.761C37.9557 37.0202 37.9846 37.51 37.5808 37.9133C37.3212 38.1726 36.9751 38.3167 36.5713 38.3167C36.5136 38.3167 36.4848 38.3167 36.4271 38.3167C35.9656 38.2879 35.6195 38.2302 35.2734 38.1438C35.0139 38.0574 34.6101 37.9133 34.264 37.6252L34.2063 37.6829C33.8025 38.0862 33.3987 38.4607 33.0815 38.864C32.7642 39.2674 32.4758 39.7283 32.2739 40.2469C32.0432 40.8231 31.9278 41.2552 31.899 41.6874C31.899 41.8314 31.899 41.9467 31.899 42.0907C31.899 42.1771 31.899 42.2348 31.899 42.3212L31.7259 43.8481L30.3992 43.5888L29.9089 43.2143C29.7358 43.0702 29.5916 42.9262 29.4474 42.7821C29.4474 42.811 30.1396 44.6836 30.1396 44.6836L28.2072 44.3667L27.9476 44.3379C27.7457 44.3091 27.5727 44.2802 27.3996 44.2514C27.3708 44.2514 27.342 44.2514 27.2843 44.2226C27.342 44.3091 27.4285 44.4243 27.4862 44.5107C27.515 44.5395 27.5439 44.5683 27.5727 44.5971C27.6015 44.626 27.6592 44.6836 27.7169 44.7412L29.3897 47.1324L26.5632 46.7002Z" fill="#C59D6E"/>
<path d="M39.1094 13.8286C39.8305 15.6436 40.3496 17.4874 40.3496 19.4753C40.7534 18.5534 40.8688 17.6026 41.013 16.6231C41.0707 16.8248 41.1572 17.0265 41.186 17.2281C41.2726 17.8043 41.3591 18.3805 41.4456 18.9855C41.561 19.7057 41.5898 20.3972 41.5898 21.1174C41.5898 21.7512 41.5321 22.4138 41.4744 23.0476C41.4456 23.4798 41.3879 23.9407 41.3014 24.3729C41.186 24.9203 40.9841 25.4965 40.8111 26.0438C40.6669 26.476 40.4938 26.9081 40.3208 27.3115C40.2054 27.6284 40.0324 27.9165 39.8881 28.2334C39.6286 28.7807 39.3402 29.3281 39.0517 29.8755C38.821 30.3365 38.5614 30.7686 38.3307 31.2007C38.0423 31.8057 37.7827 32.3819 37.5231 33.0157C37.3501 33.4479 37.2059 33.88 37.0905 34.3122C36.9751 34.6867 36.9175 35.09 36.8886 35.4934C36.8598 36.0119 36.8309 36.5305 36.8309 37.0491C36.8309 37.366 36.8309 37.4236 36.5137 37.3948C36.2253 37.366 35.908 37.3372 35.6196 37.2507C35.3888 37.1931 35.1581 37.0779 34.9851 36.905C34.7832 36.7322 34.639 36.4729 34.4659 36.2424C34.4371 36.2712 34.3794 36.3 34.3505 36.3288C34.0621 36.5593 33.7737 36.761 33.5141 37.0203C33.0815 37.4524 32.62 37.8846 32.2451 38.3455C31.8413 38.8641 31.4952 39.4115 31.2645 40.0165C31.0337 40.5927 30.8607 41.1977 30.8319 41.8315C30.8319 42.0619 30.8319 42.2924 30.8319 42.5229C30.803 42.5229 30.803 42.5229 30.7742 42.5517C29.3609 41.3417 29.1013 39.786 29.5051 38.0574C28.8418 38.7776 28.3803 39.5843 28.1784 40.535C27.9765 41.5146 28.1496 42.4653 28.4957 43.4448C28.2073 43.3872 27.9765 43.3584 27.7169 43.3296C27.3708 43.2719 27.0536 43.1279 26.7363 42.9262C26.4479 42.7534 26.246 42.4941 26.073 42.2348C25.9576 42.0907 25.8422 42.0907 25.7557 42.2636C25.7269 42.3212 25.698 42.3788 25.6692 42.4653C25.525 43.1567 25.6403 43.7905 25.9576 44.3955C26.1306 44.7412 26.4191 45.0581 26.6498 45.4038C26.7363 45.5191 26.8229 45.6055 26.9382 45.7207C26.794 45.6919 26.7075 45.6631 26.6498 45.6343C26.1595 45.4615 25.6403 45.3174 25.15 45.1157C24.4578 44.8565 23.8522 44.4819 23.2465 44.0498C22.6408 43.6177 22.0928 43.1279 21.5737 42.5805C20.9103 41.8315 20.4488 40.996 20.1027 40.0453C19.9874 39.6996 19.8143 39.3538 19.4682 39.1234C19.2952 38.9793 19.1221 39.0369 19.0933 39.2386C18.9779 39.6707 18.8625 40.1317 18.8337 40.5638C18.776 41.2841 18.9202 41.9755 19.2086 42.6669C19.1221 42.6381 19.0644 42.6381 19.0067 42.6093C18.3145 42.1772 17.7954 41.601 17.3916 40.9384C17.1032 40.4486 16.8148 39.93 16.584 39.3827C16.411 39.0081 16.2956 38.6048 16.1514 38.2015C16.0649 37.9134 15.9784 37.6541 15.863 37.3084C15.3727 38.0574 15.1131 38.8353 15.1996 39.7284C12.3731 37.6541 10.5273 35.0036 9.89276 31.5753C9.74855 32.1515 9.63318 32.7276 9.69086 33.3326C9.71971 33.9088 9.83507 34.485 9.9216 35.0612C9.66202 34.6579 9.40245 34.2546 9.17171 33.8512C8.79677 33.2174 8.45067 32.5836 8.10457 31.921C7.84499 31.46 7.61426 30.9703 7.41237 30.4805C7.12395 29.8179 6.83553 29.1553 6.57596 28.4638C6.37407 27.9165 6.20101 27.3691 6.02796 26.8217C5.85491 26.3031 5.71071 25.7846 5.5665 25.266C5.45113 24.805 5.39345 24.3153 5.30692 23.8255C5.2204 23.3357 5.10503 22.8748 5.07619 22.385C5.01851 21.6936 4.96082 21.0022 4.96082 20.3396C4.96082 19.7057 5.01851 19.0719 5.07619 18.4381C5.10503 18.006 5.13387 17.545 5.2204 17.1129C5.30692 16.6231 5.42229 16.1622 5.5665 15.7012C5.73955 15.0674 5.94144 14.4624 6.11449 13.8574L6.02796 12.9931C5.59534 12.6474 5.16271 12.3017 4.75893 11.956C3.89368 11.2357 3.14379 10.4291 2.50928 9.50716C2.19202 9.0174 1.9036 8.49883 1.64402 7.98026C1.49981 7.69216 1.44213 7.40407 1.35561 7.08716C1.29792 6.82788 1.24024 6.56859 1.18256 6.30931C1.18256 6.02121 1.18256 5.73312 1.18256 5.44502C1.2114 5.32978 1.2114 5.21454 1.24024 5.09931C1.44213 4.43669 1.70171 3.80288 2.16317 3.2555C2.62464 2.70812 3.14379 2.30478 3.83599 2.13192C4.81661 1.87264 5.73955 2.0455 6.66248 2.42002C7.38353 2.70811 7.9892 3.14026 8.62372 3.5724C9.20055 3.94692 9.74855 4.37907 10.2965 4.7824C10.6138 5.01288 10.9311 5.24335 11.1906 5.50264C11.306 5.61788 11.3348 5.58907 11.4214 5.47383C11.8252 4.86883 12.2866 4.32145 12.8635 3.8605C13.2096 3.5724 13.5845 3.31312 13.9594 3.05383C14.5074 2.6505 15.0843 2.42002 15.6611 2.21835C16.2091 2.0455 16.7571 1.93026 17.3051 1.81502C17.6512 1.72859 17.9973 1.67097 18.3434 1.58454L19.5836 1.4693C20.1027 1.41169 20.593 1.38288 21.1122 1.32526C21.1987 1.32526 21.2852 1.29645 21.3718 1.29645C22.2082 1.29645 23.0157 1.29645 23.8521 1.29645C23.9098 1.29645 23.9675 1.32526 24.0252 1.32526C24.5444 1.38288 25.0923 1.41169 25.6115 1.4405C25.6115 1.4405 25.6115 1.4405 25.6115 1.4693L26.8517 1.61335C27.342 1.69978 27.8323 1.81502 28.2938 1.93026C28.7264 2.0455 29.159 2.10311 29.5628 2.24716C30.1108 2.44883 30.6588 2.70811 31.1491 2.99621C31.6971 3.34192 32.2451 3.74526 32.7066 4.1774C33.1103 4.55193 33.4276 5.01288 33.7737 5.44502C33.8025 5.50264 33.9179 5.53145 33.9468 5.53145C34.2352 5.30097 34.5236 5.0705 34.812 4.84002C35.1004 4.60954 35.3888 4.37907 35.7061 4.14859C36.1676 3.80288 36.6579 3.48597 37.1482 3.16907C37.4654 2.9674 37.8115 2.73692 38.1576 2.59288C38.5326 2.42002 38.9075 2.27597 39.2825 2.18954C39.6574 2.10311 40.0612 2.01669 40.465 2.01669C41.0707 2.0455 41.6763 2.16073 42.1955 2.50645C42.5993 2.76573 42.9454 3.08264 43.2049 3.45716C43.4934 3.8605 43.7241 4.29264 43.8683 4.81121C43.926 5.09931 43.9837 5.35859 44.0125 5.64669C44.0702 6.10764 44.0125 6.53978 43.926 6.97193C43.8106 7.54812 43.6087 8.06669 43.3492 8.55645C42.9742 9.24788 42.5416 9.9105 41.9936 10.4867C41.4456 11.0629 40.8976 11.6103 40.3208 12.1576C40.0035 12.4457 39.6286 12.705 39.2536 12.9931L39.1094 13.8286Z" fill="#2D2D34"/>
<path d="M23.6482 42.469C23.2732 42.1809 22.8983 41.8352 22.581 41.4895C22.1195 40.9997 21.7734 40.3659 21.4562 39.5304C21.2831 39.0407 20.937 38.3204 20.216 37.8018C19.841 37.5426 19.4373 37.3985 19.0046 37.3985C18.4566 37.3985 17.9375 37.629 17.5914 38.0323C17.5626 37.9171 17.5337 37.8307 17.476 37.7154C17.4183 37.5426 17.3607 37.3697 17.303 37.168L16.0628 33.4228L14.1015 36.4766C14.0439 36.563 14.015 36.6207 13.9573 36.7071C12.5441 35.1802 11.65 33.394 11.2751 31.3485L9.34266 31.2909C9.31382 31.2621 9.31382 31.2333 9.28498 31.1757C9.05424 30.7723 8.85235 30.3402 8.65046 29.8504C8.30436 29.0726 8.04478 28.4676 7.84289 27.9202C7.66984 27.4592 7.52563 26.9983 7.35258 26.5085L7.2949 26.278C7.15069 25.7883 7.00648 25.3561 6.89111 24.8952C6.83343 24.6071 6.77575 24.2902 6.71806 23.9445C6.68922 23.8004 6.66038 23.6852 6.66038 23.5411C6.63154 23.3971 6.6027 23.253 6.57386 23.1378C6.51617 22.8209 6.45849 22.5328 6.42965 22.2447C6.37196 21.6685 6.31428 21.0059 6.31428 20.3721C6.31428 19.9687 6.34312 19.5366 6.40081 19.0757C6.40081 18.9316 6.42965 18.7587 6.42965 18.6147L6.45849 18.413C6.48733 18.0673 6.51617 17.7504 6.54501 17.4623C6.6027 17.0878 6.71807 16.6845 6.83343 16.1947C6.9488 15.7626 7.06417 15.3592 7.20838 14.9271L7.46795 14.0628L7.26606 12.1614L6.28544 11.3835C5.99702 11.153 5.7086 10.9226 5.44903 10.6921C4.69914 10.0871 4.06463 9.36684 3.51663 8.58898C3.22822 8.18565 2.99748 7.69589 2.76675 7.26375C2.73791 7.20613 2.70907 7.03327 2.65138 6.88922L2.5937 6.68755C2.56486 6.54351 2.53602 6.39946 2.50717 6.25541C2.50717 6.2266 2.50717 6.19779 2.47833 6.16898V5.59279V5.56398C2.65138 5.04541 2.82443 4.6997 3.05517 4.4116C3.40127 4.00827 3.66084 3.89303 3.83389 3.83541C4.00694 3.8066 4.15115 3.77779 4.3242 3.77779C4.6703 3.77779 5.10293 3.86422 5.59324 4.06589C5.99702 4.23875 6.42965 4.49803 6.86227 4.81494C6.97764 4.90136 7.09301 4.98779 7.23722 5.04541C7.61216 5.27589 7.95826 5.56398 8.3332 5.85208C8.47741 5.96732 8.65046 6.08256 8.79467 6.19779L8.96772 6.34184C9.19845 6.5147 9.40035 6.65875 9.54455 6.80279C9.9195 7.14851 10.381 7.35017 10.8424 7.35017C11.2174 7.35017 11.8807 7.23494 12.3999 6.48589C12.746 5.96732 13.0921 5.56398 13.467 5.27589C13.7554 5.04541 14.0727 4.81494 14.4765 4.55565C14.7937 4.32517 15.1975 4.15232 15.7167 3.97946C16.0628 3.86422 16.4377 3.77779 16.8127 3.69136C16.9569 3.66255 17.0722 3.63375 17.2165 3.60494C17.4472 3.54732 17.6491 3.51851 17.8798 3.46089L18.1105 3.40327L19.2642 3.28803C19.6968 3.23041 20.1006 3.2016 20.5621 3.17279L20.764 3.14398C20.8505 3.14398 20.9659 3.11517 21.0236 3.11517H23.129C23.1867 3.11517 23.2732 3.14398 23.3886 3.14398C23.7635 3.17279 24.1673 3.2016 24.5422 3.23041L24.9172 3.28803L26.0997 3.43208C26.59 3.51851 27.0515 3.63374 27.3976 3.72017C27.5129 3.74898 27.6572 3.77779 27.7725 3.8066C28.0321 3.86422 28.2628 3.92184 28.4359 3.97946C29.0127 4.20994 29.3877 4.38279 29.7338 4.58446C30.2241 4.87255 30.6567 5.21827 31.0316 5.56398C31.2047 5.70803 31.3777 5.93851 31.5508 6.19779C31.6662 6.37065 31.8104 6.5147 31.9546 6.68755C32.3295 7.1197 32.8775 7.37898 33.4255 7.37898H34.0023L34.4926 7.03327C34.6945 6.88922 34.8964 6.71636 35.0983 6.57232C35.1848 6.48589 35.5598 6.19779 35.5598 6.19779C35.7905 6.02494 35.9924 5.85208 36.1943 5.70803C36.6846 5.36232 37.1461 5.04541 37.5787 4.75732C37.8671 4.58446 38.1267 4.4116 38.3863 4.29636C38.6747 4.15232 38.9631 4.06589 39.1938 3.97946C39.3381 3.95065 39.6553 3.86422 39.8572 3.86422C40.261 3.89303 40.5494 3.95065 40.7513 4.0947C40.982 4.23875 41.1551 4.38279 41.2416 4.55565C41.4723 4.90136 41.5877 5.13184 41.6454 5.33351C41.7031 5.53517 41.7319 5.73684 41.7608 5.9097C41.7896 6.14017 41.7608 6.37065 41.7031 6.71636C41.6166 7.09089 41.4723 7.46541 41.2993 7.83994C40.9532 8.50256 40.6071 8.99232 40.2321 9.36684L40.2033 9.39565C39.6553 9.94303 39.1362 10.4904 38.617 10.9802C38.4728 11.1242 38.2709 11.2683 38.0402 11.4411C37.9248 11.5276 37.7806 11.614 37.6652 11.7292L37.1172 12.1614L36.8577 14.178L37.0307 14.5814C37.8094 16.5692 38.1555 18.0961 38.1555 19.5942L39.3381 19.8535C39.3957 20.3145 39.3957 20.8042 39.3957 21.2364C39.3957 21.7261 39.3381 22.2447 39.3092 22.7921L39.2804 23.0226C39.2515 23.4259 39.1938 23.8004 39.1362 24.1173C39.0208 24.6071 38.8477 25.1257 38.7035 25.6154C38.5593 26.0187 38.4151 26.4221 38.2709 26.7678C38.1844 26.9983 38.0402 27.2576 37.9248 27.5168L37.896 27.5745C37.6364 28.1218 37.348 28.6692 37.0884 29.1878C37.0019 29.3607 36.9153 29.5335 36.8288 29.7064C36.6846 29.9945 36.5116 30.2826 36.3674 30.5707C36.0501 31.2045 35.7905 31.8383 35.5309 32.4721C35.3291 32.9907 35.156 33.5092 35.0118 33.9702C34.9541 34.143 34.9253 34.3447 34.8964 34.5464L34.4638 33.999L33.0794 34.9497C33.0217 34.9785 32.9352 35.0361 32.8487 35.1226C32.7621 35.1802 32.7045 35.2378 32.6179 35.2954C32.3872 35.4683 32.1276 35.6699 31.8969 35.9004L31.8392 35.958C31.6373 36.1597 31.4066 36.3902 31.1758 36.5918L32.1565 32.2128L27.7725 36.9952C26.8784 37.9747 26.3016 39.0695 26.042 40.3083C26.0132 40.3947 26.0132 40.4811 25.9843 40.5676C25.8113 40.5099 25.6671 40.5099 25.494 40.5099C24.7441 40.5099 24.0808 40.9421 23.7635 41.6623C23.7058 41.7488 23.6193 41.9504 23.5616 42.2097C23.677 42.2385 23.677 42.3538 23.6482 42.469Z" fill="#3F3F47"/>
<path d="M25.6403 31.6041C26.2172 31.6041 26.794 31.4024 27.2555 31.0567C27.4862 30.8838 27.7169 30.711 27.9477 30.5381C28.4091 30.1924 28.7841 29.7602 28.986 29.2129C29.1879 28.6079 29.2744 27.9741 29.2744 27.3402C29.2744 27.225 29.2744 27.1098 29.2744 26.9369C29.4474 27.1962 29.5917 27.3979 29.7359 27.6283C29.8512 27.3114 29.9954 27.0522 30.082 26.7641C30.255 26.1879 30.4281 25.5829 30.5434 25.0067C30.6588 24.4593 30.803 23.9119 30.8318 23.3645C30.8607 22.6155 30.8607 21.8664 30.7742 21.1174C30.6876 20.3683 30.5434 19.6193 30.3415 18.8702C30.1108 18.0348 29.7647 17.2281 29.3609 16.4214C28.8418 15.3843 28.2361 14.4048 27.515 13.5117C27.4574 13.4252 27.4285 13.31 27.4574 13.1948C27.6016 12.5898 28.0342 12.1864 28.5245 11.8983C29.1302 11.5238 29.7647 11.2357 30.3992 10.9188C30.6011 10.8036 30.803 10.7171 31.0049 10.6019C31.0049 10.5731 30.9761 10.5443 30.9761 10.4867C30.63 10.5443 30.255 10.5731 29.9089 10.6595C29.4763 10.7748 29.0437 10.9188 28.611 11.0917C27.9765 11.351 27.342 11.6391 26.7363 11.9271C26.5056 12.0424 26.3902 12.2152 26.0441 12.0424C25.525 11.7831 24.9193 11.6967 24.3136 11.6967C24.1982 11.6967 24.0252 11.6102 23.9964 11.5238C23.8521 11.2357 23.7368 10.9188 23.6791 10.5731C23.5637 10.0545 23.506 9.56477 23.4484 9.04619C23.3618 8.38357 23.3042 7.72096 23.2176 7.05834C23.1888 6.71262 23.1888 6.36691 23.1599 5.99238C23.1599 5.84834 23.1023 5.70429 23.0734 5.58905C23.0446 5.58905 23.0446 5.58905 23.0157 5.58905C22.9581 6.25167 22.9004 6.91429 22.8427 7.57691C22.8138 7.98024 22.785 8.38357 22.7273 8.78691C22.612 9.59358 22.4389 10.4002 22.2659 11.1781C22.1793 11.6102 22.0063 11.6967 21.5448 11.6967C21.3718 11.6967 21.1699 11.7255 20.9968 11.7543C20.6219 11.8407 20.1893 11.8407 19.872 12.1288C19.8431 12.1576 19.7566 12.1576 19.6989 12.1288C19.3817 11.956 19.0933 11.7543 18.8048 11.6102C18.228 11.351 17.6512 11.1493 17.0743 10.9188C16.8724 10.8324 16.5552 10.746 16.3245 10.6883C15.9207 10.6019 15.5457 10.4579 15.0554 10.5443C15.1996 10.6307 15.2862 10.6883 15.3727 10.7171C16.0937 11.0917 16.8436 11.4374 17.5647 11.8407C17.9973 12.0712 18.3434 12.4457 18.603 12.8779C18.7472 13.1083 18.6895 13.3388 18.5453 13.5693C18.228 14.0302 17.8819 14.4624 17.5935 14.9233C17.2762 15.4131 16.9878 15.9605 16.7282 16.4791C16.4687 16.9688 16.2379 17.4586 16.0649 17.9771C15.7188 18.9855 15.5169 20.0226 15.3727 21.0598C15.3438 21.2902 15.315 21.5495 15.315 21.78C15.2573 22.8748 15.2862 23.9407 15.6034 25.0067C15.7476 25.4964 15.863 26.015 16.036 26.5336C16.1514 26.8793 16.2668 27.225 16.411 27.5995C16.584 27.3691 16.6994 27.1386 16.8724 26.9081C16.8436 27.686 16.9013 28.4062 17.132 29.0976C17.3051 29.6162 17.6223 30.0483 18.0261 30.3941C18.3145 30.6245 18.603 30.855 18.9202 31.0855C19.4105 31.4312 19.9874 31.6041 20.5642 31.6041H25.6403Z" fill="#C59D6E"/>
<path d="M28.7552 13.3677C28.8129 13.3965 28.8129 13.4253 28.8706 13.4541C29.5628 13.771 30.2838 14.0303 31.0626 14.1455C31.6682 14.2319 32.2162 14.1743 32.6777 13.8286C33.0238 13.5693 33.3411 13.2236 33.6295 12.9067C33.8314 12.6762 33.9756 12.3881 34.1486 12.1288C34.1198 12.1 34.0909 12.0712 34.0621 12.0712C33.9179 12.1865 33.7737 12.3017 33.6583 12.4458C33.2545 12.9355 32.7931 13.3677 32.1874 13.5117C31.351 13.7134 30.4857 13.5981 29.6782 13.31C29.3321 13.166 29.0436 13.1948 28.7552 13.3677Z" fill="#C59D6E"/>
<path d="M17.3916 13.3676C17.3916 13.3388 17.3916 13.31 17.3916 13.2812C17.2185 13.2524 17.0167 13.166 16.8436 13.1948C16.3533 13.2812 15.8918 13.454 15.4015 13.4829C14.9112 13.5405 14.4209 13.5405 13.9594 13.4252C13.3538 13.2812 12.9211 12.8779 12.5174 12.3881C12.402 12.244 12.2866 12.0136 11.9982 12.0424C12.2578 12.3881 12.4597 12.7338 12.6904 13.0507C13.1807 13.6845 13.7864 14.1743 14.6228 14.1167C15.2573 14.059 15.8918 13.8862 16.5263 13.7133C16.8436 13.6845 17.132 13.5117 17.3916 13.3676Z" fill="#C59D6E"/>
<path d="M15.4592 12.388C15.1419 12.1575 14.8247 11.9271 14.5074 11.6966C14.2767 11.9271 14.2767 12.3016 14.6516 12.5897C14.8247 12.7914 15.2862 12.6473 15.4592 12.388Z" fill="#C59D6E"/>
<path d="M30.6876 12.3881C30.803 12.6762 31.0626 12.6762 31.351 12.6474C31.5817 12.6186 31.6971 12.4457 31.7548 12.2152C31.8413 11.9848 31.7548 11.8119 31.6394 11.6678C31.351 11.9271 31.0337 12.1576 30.6876 12.3881Z" fill="#C59D6E"/>
<path d="M23.7656 27.369C23.7656 27.369 28.063 26.764 28.063 27.8876C28.063 27.8876 28.4956 26.7928 26.8228 26.5335C25.1788 26.2743 24.3713 26.2743 24.3713 26.2743L25.9576 20.8293C25.9576 20.8293 26.967 21.2038 26.8805 21.8952C26.794 22.5866 30.2838 20.8005 26.9959 19.2159C23.7368 17.6314 25.7268 17.3433 23.7368 17.6314H22.9869C20.9968 17.3433 22.9869 17.6314 19.7278 19.2159C16.4687 20.8005 19.9297 22.5578 19.8431 21.8952C19.7566 21.2038 20.7661 20.8293 20.7661 20.8293L22.2947 26.2743C22.2947 26.2743 21.4871 26.2743 19.8431 26.5335C18.1992 26.7928 18.6029 27.8876 18.6029 27.8876C18.6029 26.7928 22.9004 27.369 22.9004 27.369H23.7656Z" fill="#2D2D34"/>
<path d="M23.333 13.3676C23.6214 14.059 24.2271 14.3759 24.8904 14.6064C25.7269 14.9233 26.5921 15.125 27.3708 15.5859C27.515 15.6724 27.6593 15.8164 27.8035 15.9317C24.8039 14.6929 21.8044 14.6929 18.8048 15.9029C19.0067 15.7588 19.2086 15.5571 19.4394 15.4707C20.045 15.2114 20.6796 15.0098 21.3141 14.7505C21.8621 14.52 22.4389 14.4048 22.8715 13.9438C23.0446 13.7709 23.1599 13.5693 23.333 13.3676Z" fill="#2D2D34"/>
</svg>
