<svg xmlns="http://www.w3.org/2000/svg" width="311" height="48" fill="none" viewBox="0 0 311 48">
    <path fill="#2D2D34" d="M67.13 37.932c-.568.071-1.065-.425-1.065-.992V11.482c0-.638.497-1.064 1.065-1.064h15.689c2.059 0 3.976.78 5.395 2.27 1.42 1.418 2.272 3.403 2.201 5.46 0 1.702-.71 3.262-1.917 4.326 2.272 1.347 3.337 3.403 3.195 6.24-.213 4.61-3.975 8.155-8.945 8.439-5.253.141-10.436.425-15.618.78zm12.068-9.644c.71 0 .71-.354.71-.496 0-.142 0-.496-.71-.496-.425 0-.922 0-1.348.07v.993c.497 0 .922-.07 1.348-.07zm-.567-8.722c.07 0 .213 0 .213-.284 0-.07 0-.141-.072-.141 0 0-.07-.071-.213-.071h-.71v.425c.284.071.498.071.781.071z"/>
    <path fill="#C59D6E" d="M82.819 11.411c3.692 0 6.602 3.05 6.531 6.666-.07 1.914-1.136 3.758-3.052 4.467 2.91 1.064 4.472 2.837 4.33 6.028-.213 4.113-3.478 7.162-7.88 7.446-5.182.283-10.365.567-15.618.85V11.483c5.253-.07 10.436-.07 15.689-.07zm-6.034 9.219c.568 0 1.207 0 1.775-.071 1.632-.071 1.774-2.624 0-2.553h-1.775v2.624zm0 8.793c.78 0 1.633-.071 2.413-.071 1.207-.07 1.775-.85 1.775-1.631 0-.78-.497-1.56-1.775-1.49-.78 0-1.632.072-2.413.072v3.12zm6.034-20.14c-5.253 0-10.436 0-15.69-.07-1.206 0-2.129.993-2.129 2.198V36.94c0 1.205.923 2.127 2.13 2.056 5.182-.354 10.365-.638 15.618-.922 5.537-.354 9.797-4.325 10.01-9.502.142-2.766-.71-4.893-2.627-6.382.852-1.135 1.349-2.553 1.42-4.113.071-2.27-.852-4.539-2.485-6.17-1.775-1.701-3.904-2.623-6.247-2.623z"/>
    <path fill="#2D2D34" d="M91.835 36.514c-.568 0-1.065-.425-1.065-.993v-24.18c0-.568.497-1.065 1.065-1.065h19.878c.568 0 1.065.426 1.065.993v6.879c0 .425-.284.78-.639.922.142.141.284.425.284.638v6.453c0 .213-.071.425-.213.638.355.142.639.496.639.922v6.878c0 .568-.497.993-1.065 1.064-6.745.284-13.347.568-19.95.851z"/>
    <path fill="#C59D6E" d="M111.713 11.34v6.879c-3.408.07-6.815.07-10.223.141v1.56c3.266-.07 6.602-.07 9.868-.141v6.524c-3.266.07-6.602.142-9.868.283v1.56c3.408-.07 6.815-.212 10.223-.283v6.878c-6.602.284-13.276.568-19.878.851v-24.11c6.602-.142 13.276-.142 19.878-.142zm0-1.985c-6.602 0-13.276 0-19.878-.071-1.207 0-2.13.922-2.13 2.056v24.252c0 1.135.923 2.057 2.13 1.986 6.602-.355 13.276-.638 19.878-.922 1.207-.07 2.13-.993 2.13-2.056v-6.808c0-.426-.142-.851-.426-1.206v-.354-6.453-.355c.284-.354.426-.78.426-1.205V11.41c0-1.134-.923-2.056-2.13-2.056z"/>
    <path fill="#2D2D34" d="M133.011 34.883c-.426 0-.852-.213-.994-.567-.284-.638-.568-1.347-.852-1.986l-6.39.213c-.284.71-.567 1.347-.78 2.056-.142.355-.568.639-.994.71-3.337.142-6.674.212-10.01.354-.568 0-1.065-.425-1.065-.992v-.922c0-.142 0-.284.071-.355a2444.013 2444.013 0 019.584-22.692c.142-.355.568-.638.994-.638h10.932c.426 0 .852.213.994.638 3.195 7.304 6.39 14.537 9.584 21.7.071.141.071.212.071.354v.85c0 .497-.497.993-1.065.993-3.336.142-6.744.213-10.08.284zm-4.828-10.282c-.071-.142-.071-.355-.142-.497-.071.142-.071.355-.142.497h.284z"/>
    <path fill="#C59D6E" d="M133.507 11.056c3.195 7.304 6.39 14.538 9.584 21.7v.85c-3.336.072-6.673.142-10.01.284l-1.065-2.553-7.88.213c-.355.922-.71 1.773-1.065 2.695-3.336.142-6.673.213-10.009.355v-.922a2398.018 2398.018 0 019.584-22.622h10.861zm-6.957 14.538c.994 0 1.988-.071 2.911-.071-.497-1.915-.994-3.759-1.491-5.673-.426 1.914-.923 3.829-1.42 5.744zm6.957-16.452h-10.932c-.852 0-1.633.496-1.988 1.205a2415.983 2415.983 0 00-9.584 22.692c-.071.213-.142.497-.142.71v.921c0 1.135.923 1.986 2.13 1.915 3.336-.142 6.673-.284 10.009-.355.923 0 1.704-.567 1.988-1.347.213-.425.355-.922.568-1.347 1.633-.071 3.266-.071 4.899-.142.213.425.355.922.568 1.347.284.71 1.135 1.206 1.987 1.206 3.337-.071 6.674-.213 10.01-.284 1.207 0 2.13-.922 2.13-1.985v-.851c0-.213-.071-.497-.142-.71a3274.01 3274.01 0 01-9.584-21.699c-.284-.78-1.065-1.276-1.917-1.276z"/>
    <path fill="#2D2D34" d="M157.645 34.316c-.426 0-.781-.213-.994-.497-.568-1.134-1.207-2.198-1.775-3.332v2.978c0 .496-.497.922-1.065.993l-9.655.212c-.568 0-1.065-.425-1.065-.921V11.41c0-.496.497-.993 1.065-.922h10.72c8.803.071 13.204 3.12 13.204 9.006 0 2.908-1.135 5.177-3.336 6.666l3.62 5.957c.071.141.142.283.142.425v.71c0 .496-.497.921-1.064.921-3.266.071-6.532.071-9.797.142zm-2.556-14.325c1.278 0 1.278-.212 1.278-.496 0-.284 0-.567-1.278-.567h-.284v1.063h.284z"/>
    <path fill="#C59D6E" d="M154.876 11.34c6.176.071 12.14 1.56 12.14 8.084 0 3.191-1.491 5.177-3.621 6.382 1.349 2.27 2.698 4.468 4.047 6.737v.71c-3.266.07-6.532.07-9.726.141-1.065-1.915-2.13-3.9-3.124-5.815h-.639v5.886l-9.655.213V11.34h10.578zm-1.136 9.644h1.349c1.562-.07 2.343-.425 2.343-1.489s-.71-1.489-2.343-1.489h-1.349v2.978zm1.136-11.488h-10.72c-1.207 0-2.13.851-2.13 1.915V33.75c0 1.063.923 1.914 2.13 1.843l9.655-.212a2.21 2.21 0 001.917-1.135c.355.638 1.065 1.064 1.917.993 3.265-.071 6.531-.142 9.726-.142 1.206 0 2.129-.851 2.129-1.915v-.709c0-.283-.071-.638-.213-.85l-3.194-5.32c1.633-1.346 3.052-3.545 3.052-6.878 0-4.467-2.413-9.857-14.269-9.928z"/>
    <path fill="#2D2D34" d="M189.165 34.6c-9.797.07-14.269-6.312-14.269-12.269 0-6.027 4.543-12.41 14.34-12.41 6.177 0 12.921 3.192 14.199 10.212.071.213 0 .497-.213.71.213.141.284.425.284.637v.355c0 1.276 0 2.411-.355 3.83-1.846 6.169-8.306 8.934-13.986 8.934zm.284-15.105c-1.42 0-2.91.922-2.91 2.907 0 1.348.496 2.199 1.135 2.624v-3.474c0-.497.497-.922 1.065-.922h2.982c-.497-.78-1.349-1.135-2.272-1.135z"/>
    <path fill="#C59D6E" d="M189.165 10.844c6.034 0 11.998 3.19 13.134 9.431h-9.513c-.71-1.134-1.988-1.773-3.337-1.773-1.988 0-3.975 1.277-3.975 3.83 0 2.978 2.058 4.042 4.117 4.042 1.065 0 2.556-.426 2.982-1.277h-3.834v-3.616h13.702c0 1.418.071 2.482-.355 3.9-1.562 5.46-7.241 8.226-12.921 8.226-6.602 0-13.204-3.688-13.204-11.346 0-7.588 6.602-11.417 13.204-11.417zm0-1.844c-7.596 0-15.334 4.538-15.405 13.332.071 8.722 7.738 13.19 15.334 13.19 6.106 0 13.063-2.979 14.98-9.645.425-1.56.425-2.694.425-4.042v-.354c0-.284-.071-.497-.142-.71.071-.212.071-.496.071-.78-1.348-7.516-8.661-10.92-15.263-10.991z"/>
    <path fill="#2D2D34" d="M221.609 34.174c-.426 0-.852-.213-.994-.638l-.852-1.915c-2.13 0-4.26-.07-6.39-.07-.284.637-.568 1.276-.78 1.914-.142.354-.568.567-.994.567-3.337 0-6.674-.07-10.01-.07-.568 0-1.065-.426-1.065-.923v-.85c0-.142 0-.213.071-.355 3.195-7.02 6.389-13.97 9.584-20.99.142-.355.568-.568.994-.568 3.62 0 7.312 0 10.932.071.426 0 .852.213.994.568a3067.71 3067.71 0 019.584 21.273c.071.142.071.213.071.355v.851c0 .496-.497.922-1.065.922-3.407 0-6.744-.071-10.08-.142zm-4.899-9.999c-.071-.142-.071-.283-.142-.496-.071.142-.071.284-.142.496h.284z"/>
    <path fill="#C59D6E" d="M222.035 11.34c3.194 7.02 6.389 14.112 9.583 21.274v.851c-3.336-.07-6.673-.142-10.009-.142l-1.065-2.553c-2.627 0-5.254-.07-7.88-.07-.355.85-.71 1.63-1.065 2.481-3.337 0-6.674-.07-10.01-.07v-.852c3.194-7.02 6.389-13.97 9.584-20.99 3.549 0 7.241 0 10.862.071zm-6.958 13.757h2.911c-.497-1.844-.994-3.616-1.491-5.46-.426 1.844-.923 3.616-1.42 5.46zm6.958-15.671c-3.621 0-7.313 0-10.933-.071-.852 0-1.633.425-1.988 1.134-3.195 7.02-6.389 13.97-9.584 20.99-.071.213-.142.426-.142.71v.85c0 .993.923 1.844 2.13 1.844 3.336 0 6.673 0 10.01.071.923 0 1.704-.496 1.987-1.205.213-.426.355-.851.568-1.277 1.633 0 3.266 0 4.899.071.213.426.355.851.568 1.347.284.71 1.136 1.206 1.988 1.206 3.336.07 6.673.07 10.009.142 1.207 0 2.13-.78 2.13-1.844v-.85c0-.214-.071-.497-.142-.71a3067.746 3067.746 0 00-9.584-21.274c-.213-.638-1.065-1.134-1.916-1.134z"/>
    <path fill="#2D2D34" d="M251.851 34.812c-.568 0-1.065-.425-1.065-.992v-4.893-.142c.071-.355.071-.71.142-1.064-.426.567-.852 1.135-1.206 1.702-.213.284-.497.425-.923.425-1.136 0-2.272-.07-3.408-.07-.355 0-.71-.142-.923-.426-.426-.567-.852-1.135-1.207-1.702.071.355.071.71.142 1.064v5.035c0 .496-.497.921-1.065.921l-9.584-.212c-.568 0-1.064-.426-1.064-.922v-21.77c0-.497.496-.922 1.064-.922 3.124 0 6.248 0 9.371.07.355 0 .639.143.852.426 1.349 1.702 2.698 3.475 4.118 5.248 1.349-1.702 2.697-3.475 4.117-5.177.213-.284.497-.425.852-.425 3.124 0 6.248 0 9.3.07.568 0 1.065.426 1.065.993v22.409c0 .496-.497.922-1.065.922-3.194-.355-6.318-.497-9.513-.568z"/>
    <path fill="#C59D6E" d="M261.364 11.766v22.337c-3.195-.07-6.389-.213-9.513-.284v-4.963l.639-5.106c-1.207 1.702-2.485 3.404-3.692 5.035-1.135 0-2.271-.071-3.407-.071-1.278-1.702-2.485-3.475-3.763-5.177.213 1.702.426 3.404.71 5.106v4.893l-9.584-.213V11.482c3.053 0 6.319 0 9.371.07 1.633 2.128 3.337 4.185 4.97 6.312 1.632-2.056 3.336-4.184 4.969-6.24 2.982.142 6.247.142 9.3.142zm0-1.915c-3.124 0-6.247 0-9.3-.07-.71 0-1.349.283-1.775.78l-3.194 4.041c-1.065-1.347-2.13-2.766-3.195-4.113-.426-.496-1.065-.78-1.775-.78-3.123 0-6.247 0-9.371-.07-1.207 0-2.129.85-2.129 1.843v21.77c0 1.064.922 1.915 2.129 1.915 3.195.07 6.39.142 9.584.213 1.207 0 2.13-.78 2.13-1.844v-3.191c.284.142.568.213.923.213 1.136 0 2.272.07 3.407.07.355 0 .639-.07.923-.141v3.19c0 1.064.923 1.915 2.13 1.986 3.195.071 6.389.213 9.513.284 1.207.07 2.13-.78 2.13-1.844V11.695c0-.993-.994-1.844-2.13-1.844z"/>
    <path fill="#2D2D34" d="M263.352 35.167c-.568 0-1.065-.497-1.065-.993V11.766c0-.497.497-.993 1.065-.922 6.602.07 13.275.07 19.878.142.568 0 1.065.425 1.065.992v6.808c0 .425-.284.78-.639.922.142.142.284.425.284.638v6.382c0 .213-.071.426-.213.638.355.142.639.497.639.922v6.808a.934.934 0 01-1.065.922 958.15 958.15 0 00-19.949-.851z"/>
    <path fill="#C59D6E" d="M283.23 11.907v6.737c-3.408-.07-6.816-.142-10.223-.142v1.49l9.868.212v6.382c-3.266-.07-6.603-.212-9.868-.283v1.489c3.407.07 6.815.213 10.223.284v6.736c-6.603-.283-13.276-.496-19.878-.709V11.695c6.602.141 13.204.212 19.878.212zm0-1.914c-6.603 0-13.276-.071-19.878-.071-1.207 0-2.13.85-2.13 1.914v22.338c0 1.064.923 1.915 2.13 1.986 6.602.212 13.275.496 19.878.78 1.207.07 2.129-.78 2.129-1.915v-6.808c0-.425-.142-.85-.426-1.205v-.355-6.453-.354c.284-.355.426-.71.426-1.206v-6.807c0-.993-.993-1.844-2.129-1.844z"/>
    <path fill="#2D2D34" d="M296.292 37.152c-7.738-.425-12.707-4.325-12.778-10.07 0-.283.142-.496.284-.708.213-.213.496-.284.78-.284 1.633.07 3.337.07 4.97.142-3.195-1.064-5.963-3.12-5.963-7.588 0-4.893 5.324-8.368 12.636-8.368 7.596 0 12.424 3.546 12.566 9.219 0 .284-.071.567-.284.71-.213.212-.497.283-.781.283-2.201-.071-4.473-.142-6.673-.142 4.188.851 8.164 2.837 8.164 8.155 0 5.886-4.828 9.077-12.921 8.651zm-.994-9.715c0 .142 0 .426 1.136.497.639 0 .852-.071.923-.142-.071-.071-.426-.213-1.42-.355h-.639zm1.136-8.226c-.426 0-.852.142-.852.284s.213.213.568.213c.426.07.923.07 1.42.142-.071-.142-.142-.284-.142-.426-.213-.07-.497-.213-.994-.213z"/>
    <path fill="#C59D6E" d="M296.221 11.34c6.389 0 11.359 2.695 11.501 8.226-3.124-.07-6.247-.142-9.371-.213 0-.709-.994-1.134-1.917-1.134-.852 0-1.917.283-1.917 1.276 0 .78.71 1.206 1.491 1.277 5.183.496 12.14 1.276 12.14 7.8 0 6.382-6.318 7.871-11.927 7.588-6.176-.284-11.643-3.191-11.714-9.006 3.195.07 6.461.212 9.655.283 0 1.135 1.065 1.49 2.201 1.49 1.065.07 1.988-.213 1.988-1.064 0-.78-.568-1.135-2.343-1.418-5.395-.639-11.288-1.631-11.288-7.73 0-4.68 5.396-7.375 11.501-7.375zm0-1.985c-7.951 0-13.701 3.9-13.701 9.36 0 3.05 1.207 5.035 2.91 6.453h-.923c-.567 0-1.135.213-1.49.567-.426.355-.639.851-.639 1.419.071 6.311 5.466 10.637 13.843 11.062 8.661.496 14.057-3.12 14.057-9.502 0-2.979-1.207-5.39-3.55-7.02h.994c.568 0 1.136-.213 1.491-.568.426-.354.639-.922.639-1.489-.142-6.382-5.325-10.282-13.631-10.282zM26.563 46.7c-.086-.029-.144-.057-.23-.057-.145-.058-.289-.087-.433-.144-.375-.116-.75-.23-1.125-.404a10.586 10.586 0 01-2.134-1.18 10.714 10.714 0 01-1.817-1.614l.317 1.93-2.192-1.527c-.115-.029-.26-.058-.461-.173a5.996 5.996 0 01-1.904-1.901l.029.46-2.048-1.497c-2.105-1.527-3.634-3.314-4.615-5.359l.318 1.757c-.087-.115-1.414-1.67-1.5-1.786-.173-.288-.375-.576-.548-.893-.346-.576-.721-1.267-1.096-1.959-.26-.46-.49-.98-.721-1.498a37.665 37.665 0 01-.865-2.074 52.502 52.502 0 01-.548-1.585l-.058-.202c-.144-.49-.317-1.008-.462-1.555a16.27 16.27 0 01-.23-1.153c-.03-.115-.03-.259-.058-.374a1.684 1.684 0 01-.058-.375c-.057-.374-.144-.749-.173-1.152-.057-.634-.144-1.383-.144-2.16 0-.548.058-1.067.087-1.556 0-.145.028-.288.028-.433v-.201a9.61 9.61 0 01.145-1.239c.086-.49.202-.98.346-1.527.115-.46.26-.893.375-1.325l.086-.317-.029-.144-.028-.029a19.02 19.02 0 01-.866-.72 12.663 12.663 0 01-2.451-2.68 17.167 17.167 0 01-.952-1.67c-.173-.346-.23-.663-.317-.951L.2 7.26c-.057-.202-.086-.403-.143-.605L0 6.309V5.128c0-.115.029-.288.087-.46.173-.606.49-1.47 1.153-2.248.664-.778 1.413-1.268 2.279-1.498.403-.115.807-.144 1.24-.144.72 0 1.47.144 2.307.49.692.259 1.27.662 1.817 1.008.116.086.231.144.346.23.462.289.894.634 1.298.922.144.116.289.23.433.317l.144.115c.317-.374.663-.72 1.038-1.008.347-.26.721-.547 1.154-.864.548-.375 1.211-.692 1.99-.95.462-.145.894-.26 1.356-.347.115-.028.26-.057.375-.086.26-.058.49-.115.75-.173l.375-.086 1.297-.144c.433-.058.894-.087 1.327-.116l.202-.028.144-.03L21.2 0h2.71l.145.029c.029 0 .058 0 .087.029l1.124.086 1.616.115v.058H26.995c.461.086.923.173 1.529.317.115.029.201.057.317.057.346.058.72.144 1.096.289.49.201 1.153.46 1.76.864a11.44 11.44 0 011.73 1.325c.202.202.403.403.576.605l.202-.173c.231-.201.49-.403.75-.576.52-.375 1.01-.72 1.471-1.008a8.67 8.67 0 011.154-.663 9.38 9.38 0 011.326-.49 5.353 5.353 0 011.385-.201h.144c.894.028 1.644.259 2.307.662.548.346 1.01.778 1.356 1.268.317.46.663 1.008.836 1.728.087.346.145.663.173.98.058.519 0 1.037-.115 1.67a7.518 7.518 0 01-.692 1.902c-.49.922-.98 1.614-1.558 2.19l-.057.057c-.548.548-1.096 1.124-1.673 1.671-.26.23-.52.433-.75.605v.116c.375.95.721 2.506.721 2.506.23-.49.548-1.296.548-1.296.087.23.692 1.844.75 2.132.029.259.087.518.115.749.058.345.087.662.145.95.144.836.173 1.642.173 2.334 0 .634-.058 1.239-.116 1.815l-.029.202c-.057.49-.086.98-.202 1.498-.144.605-.317 1.21-.519 1.757-.173.49-.346.95-.519 1.354-.144.317-.288.634-.432.922l-.03.058c-.288.547-.547 1.123-.836 1.67-.086.202-.202.375-.317.577-.144.26-.26.49-.375.72a29.377 29.377 0 00-.779 1.729c-.173.403-.288.806-.403 1.152a5.344 5.344 0 00-.173.98c-.03.46-.058.95-.03 1.44 0 .26.03.749-.374 1.152-.26.26-.606.404-1.01.404h-.144a6.11 6.11 0 01-1.154-.173c-.26-.087-.663-.23-1.009-.519l-.058.058c-.404.403-.807.778-1.125 1.181a5.447 5.447 0 00-.807 1.383c-.23.576-.346 1.008-.375 1.44v.634l-.173 1.527-1.327-.26-.49-.374a6.745 6.745 0 01-.462-.432c0 .029.693 1.902.693 1.902l-1.933-.317-.26-.03c-.201-.028-.374-.057-.547-.086-.03 0-.058 0-.116-.028.058.086.145.201.202.288l.087.086.144.144 1.673 2.391-2.827-.432z"/>
    <path fill="#2D2D34" d="M39.11 13.829c.72 1.815 1.24 3.658 1.24 5.646.403-.922.519-1.872.663-2.852.058.202.144.403.173.605.087.576.173 1.152.26 1.757.115.72.144 1.412.144 2.132 0 .634-.058 1.297-.116 1.93-.028.433-.086.894-.173 1.326-.115.547-.317 1.123-.49 1.67-.144.433-.317.865-.49 1.268-.116.317-.289.605-.433.922-.26.548-.548 1.095-.836 1.642-.231.462-.49.894-.721 1.326a34.605 34.605 0 00-.808 1.815c-.173.432-.317.864-.433 1.296a5.327 5.327 0 00-.201 1.181c-.03.519-.058 1.038-.058 1.556 0 .317 0 .375-.317.346-.289-.029-.606-.058-.894-.144a1.374 1.374 0 01-.635-.346c-.202-.173-.346-.432-.52-.663-.028.03-.086.058-.115.087-.288.23-.576.432-.836.691-.433.432-.894.865-1.269 1.325-.404.52-.75 1.066-.98 1.672-.231.576-.404 1.18-.433 1.814v.692c-.029 0-.029 0-.058.029-1.413-1.21-1.673-2.766-1.269-4.495-.663.72-1.125 1.527-1.327 2.478-.201.98-.028 1.93.318 2.91a8.507 8.507 0 00-.78-.115c-.345-.058-.662-.202-.98-.404-.288-.173-.49-.432-.663-.691-.115-.144-.23-.144-.317.029-.03.057-.058.115-.087.201-.144.692-.029 1.325.289 1.93.173.346.461.663.692 1.009.086.115.173.201.288.317a1.17 1.17 0 01-.288-.087c-.49-.172-1.01-.317-1.5-.518-.692-.26-1.298-.634-1.903-1.066a11.52 11.52 0 01-1.673-1.47c-.664-.748-1.125-1.584-1.471-2.535-.116-.345-.289-.691-.635-.922-.173-.144-.346-.086-.375.116-.115.432-.23.893-.26 1.325-.057.72.087 1.411.376 2.103-.087-.029-.145-.029-.202-.058-.693-.432-1.212-1.008-1.615-1.67a13.208 13.208 0 01-.808-1.556c-.173-.375-.288-.778-.433-1.181a29.88 29.88 0 00-.288-.894c-.49.75-.75 1.527-.663 2.42-2.827-2.074-4.673-4.724-5.307-8.153-.144.576-.26 1.153-.202 1.758.029.576.144 1.152.23 1.728-.259-.403-.519-.806-.75-1.21a41.399 41.399 0 01-1.066-1.93c-.26-.461-.49-.95-.693-1.44a42.128 42.128 0 01-.836-2.017 36.477 36.477 0 01-.548-1.642 31.75 31.75 0 01-.462-1.556c-.115-.461-.173-.95-.26-1.44-.086-.49-.201-.951-.23-1.441-.057-.691-.115-1.383-.115-2.045 0-.634.058-1.268.115-1.902.029-.432.058-.893.144-1.325.087-.49.202-.95.346-1.412.174-.634.375-1.239.548-1.844l-.086-.864c-.433-.346-.865-.691-1.27-1.037A12.09 12.09 0 012.51 9.507a15.958 15.958 0 01-.865-1.527c-.144-.288-.202-.576-.288-.893l-.173-.778v-.864c.028-.115.028-.23.057-.346.202-.662.462-1.296.923-1.844.462-.547.98-.95 1.673-1.123.98-.26 1.904-.087 2.826.288.722.288 1.327.72 1.962 1.152.577.375 1.125.807 1.672 1.21.318.23.635.461.895.72.115.116.144.087.23-.028.404-.605.866-1.153 1.443-1.614.346-.288.72-.547 1.095-.806.548-.403 1.125-.634 1.702-.836.548-.172 1.096-.288 1.644-.403.346-.086.692-.144 1.038-.23l1.24-.116c.52-.057 1.01-.086 1.53-.144.086 0 .172-.029.259-.029h2.48c.058 0 .116.03.173.03.52.057 1.067.086 1.587.114v.03l1.24.143c.49.087.98.202 1.442.317.432.116.865.173 1.269.317.548.202 1.096.461 1.586.75.548.345 1.096.748 1.558 1.18.403.375.72.836 1.067 1.268.029.058.144.086.173.086l.865-.691c.288-.23.577-.46.894-.691.462-.346.952-.663 1.442-.98.317-.202.663-.432 1.01-.576.375-.173.75-.317 1.124-.403.375-.087.78-.173 1.183-.173.606.029 1.211.144 1.73.49.404.259.75.576 1.01.95.288.404.52.836.663 1.354.058.288.116.548.145.836.057.46 0 .893-.087 1.325a5.775 5.775 0 01-.577 1.584c-.375.692-.807 1.355-1.355 1.93a45.679 45.679 0 01-1.673 1.672c-.317.288-.692.547-1.067.835l-.145.836z"/>
    <path fill="#3F3F47" d="M23.648 42.469a8.602 8.602 0 01-1.067-.98c-.462-.49-.808-1.123-1.125-1.959-.173-.49-.519-1.21-1.24-1.728-.375-.26-.779-.404-1.211-.404-.548 0-1.067.231-1.414.634a1.402 1.402 0 00-.115-.317 12.6 12.6 0 01-.173-.547l-1.24-3.745-1.961 3.054c-.058.086-.087.144-.145.23a10.53 10.53 0 01-2.682-5.358l-1.932-.058c-.03-.029-.03-.058-.058-.115-.23-.404-.433-.836-.635-1.326a32.786 32.786 0 01-.807-1.93c-.173-.46-.317-.922-.49-1.412l-.058-.23c-.144-.49-.289-.922-.404-1.383a30.147 30.147 0 01-.173-.95c-.029-.145-.058-.26-.058-.404-.028-.144-.057-.288-.086-.403-.058-.317-.116-.605-.144-.893a19.199 19.199 0 01-.116-1.873c0-.403.03-.835.087-1.296 0-.144.029-.317.029-.461l.028-.202c.03-.346.058-.663.087-.95.058-.375.173-.779.288-1.268.116-.432.231-.836.375-1.268l.26-.864-.202-1.902-.98-.777c-.289-.231-.577-.461-.837-.692-.75-.605-1.384-1.325-1.932-2.103-.289-.403-.52-.893-.75-1.325-.03-.058-.058-.23-.116-.375l-.057-.201c-.03-.144-.058-.289-.087-.433 0-.028 0-.057-.029-.086v-.605c.173-.519.346-.864.577-1.152.346-.404.606-.519.779-.577.173-.028.317-.057.49-.057.346 0 .779.086 1.27.288.403.173.836.432 1.268.749.116.086.231.173.375.23.375.23.721.519 1.096.807.144.115.317.23.462.346l.173.144c.23.173.432.317.577.46.374.347.836.548 1.297.548.375 0 1.039-.115 1.558-.864.346-.519.692-.922 1.067-1.21.288-.23.606-.461 1.01-.72.317-.23.72-.404 1.24-.577.346-.115.72-.201 1.096-.288.144-.028.26-.057.404-.086.23-.058.432-.086.663-.144l.23-.058 1.154-.115a18.11 18.11 0 011.298-.115l.202-.029c.087 0 .202-.029.26-.029h2.105c.058 0 .144.029.26.029.375.029.778.058 1.153.086l.375.058 1.183.144c.49.087.951.202 1.298.288.115.029.26.058.375.087.26.057.49.115.663.172.577.23.952.404 1.298.605.49.289.923.634 1.298.98.173.144.346.375.519.634.115.173.26.317.404.49.375.432.922.691 1.47.691h.577l.49-.346c.203-.144.404-.317.606-.46.087-.087.462-.375.462-.375.23-.173.432-.346.634-.49.49-.346.952-.663 1.385-.95.288-.174.548-.346.807-.462.289-.144.577-.23.808-.317.144-.028.461-.115.663-.115.404.029.692.087.894.23.231.145.404.289.49.462.231.345.347.576.404.778.058.201.087.403.116.576.029.23 0 .46-.058.806A5.85 5.85 0 0141.3 7.84c-.346.663-.692 1.152-1.067 1.527l-.029.029c-.548.547-1.067 1.094-1.586 1.584-.144.144-.346.288-.577.461-.115.087-.26.173-.375.288l-.548.432-.26 2.017.174.403c.778 1.988 1.125 3.515 1.125 5.013l1.182.26c.058.46.058.95.058 1.382 0 .49-.058 1.009-.087 1.556l-.029.23c-.029.404-.086.778-.144 1.095-.115.49-.288 1.009-.433 1.498-.144.404-.288.807-.432 1.153-.087.23-.23.49-.346.749l-.029.058c-.26.547-.548 1.094-.808 1.613l-.26.518c-.143.288-.316.577-.46.865-.318.633-.578 1.267-.837 1.901a23.538 23.538 0 00-.52 1.498c-.057.173-.086.375-.115.576L34.464 34l-1.385.95a.943.943 0 00-.23.174c-.087.057-.144.115-.231.172-.23.173-.49.375-.721.605l-.058.058c-.202.202-.432.432-.663.634l.98-4.38-4.383 4.783c-.895.98-1.471 2.075-1.731 3.313-.029.087-.029.173-.058.26-.173-.058-.317-.058-.49-.058-.75 0-1.413.432-1.73 1.152a1.827 1.827 0 00-.202.548c.115.029.115.144.086.259z"/>
    <path fill="#C59D6E" d="M25.64 31.604c.577 0 1.154-.202 1.616-.547l.692-.519c.461-.346.836-.778 1.038-1.325a5.906 5.906 0 00.288-1.873v-.403c.173.26.318.46.462.691.115-.317.26-.576.346-.864.173-.576.346-1.181.461-1.757.116-.548.26-1.095.289-1.643.029-.748.029-1.498-.058-2.247a15.44 15.44 0 00-.433-2.247c-.23-.835-.576-1.642-.98-2.449a16.024 16.024 0 00-1.846-2.91.4.4 0 01-.058-.316c.145-.605.577-1.009 1.067-1.297.606-.374 1.24-.662 1.875-.98.202-.114.404-.2.606-.316 0-.029-.029-.058-.029-.115-.346.057-.721.086-1.067.172-.433.116-.865.26-1.298.433-.634.259-1.269.547-1.875.835-.23.115-.346.288-.692.115-.519-.259-1.125-.345-1.73-.345-.116 0-.289-.087-.318-.173a3.353 3.353 0 01-.317-.95 13.92 13.92 0 01-.23-1.528c-.087-.662-.145-1.325-.231-1.988-.03-.345-.03-.691-.058-1.066 0-.144-.058-.288-.087-.403h-.057l-.173 1.988c-.03.403-.058.807-.116 1.21a31.842 31.842 0 01-.461 2.391c-.087.432-.26.519-.721.519a3.54 3.54 0 00-.548.057c-.375.087-.808.087-1.125.375-.029.029-.115.029-.173 0-.317-.173-.606-.375-.894-.519-.577-.259-1.154-.46-1.73-.691a5.719 5.719 0 00-.75-.23c-.404-.087-.78-.231-1.27-.145.145.087.231.144.318.173.72.375 1.47.72 2.192 1.124.432.23.778.605 1.038 1.037.144.23.086.46-.058.691-.317.461-.663.893-.952 1.354a16.41 16.41 0 00-.865 1.556c-.26.49-.49.98-.663 1.498-.346 1.008-.548 2.046-.692 3.083-.03.23-.058.49-.058.72-.058 1.095-.029 2.16.288 3.227.145.49.26 1.008.433 1.527.115.345.23.691.375 1.066.173-.23.288-.461.461-.692-.028.778.03 1.498.26 2.19.173.518.49.95.894 1.296.288.23.577.461.894.692.49.345 1.067.518 1.644.518h5.076z"/>
    <path fill="#C59D6E" d="M28.755 13.368c.058.028.058.057.116.086.692.317 1.413.576 2.192.691.605.087 1.153.03 1.615-.316.346-.26.663-.605.952-.922.201-.23.346-.519.519-.778-.03-.029-.058-.058-.087-.058-.144.116-.288.23-.404.375-.404.49-.865.922-1.47 1.066-.837.201-1.702.086-2.51-.202-.346-.144-.634-.115-.923.058zM17.392 13.368v-.087c-.174-.029-.375-.115-.548-.086-.49.086-.952.259-1.443.288-.49.057-.98.057-1.442-.058-.605-.144-1.038-.547-1.442-1.037-.115-.144-.23-.374-.519-.346.26.346.462.692.692 1.009.49.633 1.096 1.123 1.933 1.066.634-.058 1.269-.23 1.903-.404.318-.028.606-.201.866-.345z"/>
    <path fill="#C59D6E" d="M15.46 12.388l-.953-.691c-.23.23-.23.605.145.893.173.201.634.057.807-.202zM30.688 12.388c.115.288.375.288.663.26.23-.03.346-.202.404-.433.086-.23 0-.403-.116-.547-.288.26-.605.49-.951.72z"/>
    <path fill="#2D2D34" d="M23.766 27.369s4.297-.605 4.297.519c0 0 .433-1.095-1.24-1.355-1.644-.259-2.452-.259-2.452-.259l1.587-5.445s1.009.375.923 1.066c-.087.692 3.403-1.095.115-2.68-3.26-1.584-1.27-1.872-3.26-1.584h-.75c-1.99-.288 0 0-3.258 1.585-3.26 1.584.202 3.342.115 2.68-.086-.692.923-1.067.923-1.067l1.529 5.445s-.808 0-2.452.26c-1.644.259-1.24 1.354-1.24 1.354 0-1.095 4.297-.519 4.297-.519h.866zM23.333 13.368c.288.691.894 1.008 1.557 1.238.837.317 1.702.519 2.48.98.145.086.29.23.433.346-3-1.24-5.999-1.24-8.998-.03.202-.143.404-.345.634-.431.606-.26 1.24-.461 1.875-.72.548-.231 1.125-.346 1.558-.807.173-.173.288-.375.461-.576z"/>
</svg>