<svg xmlns="http://www.w3.org/2000/svg" width="504" height="470" fill="none" viewBox="0 0 504 470">
    <circle cx="252" cy="235" r="203" fill="#fff" opacity=".5"/>
    <circle cx="252" cy="235" r="226" stroke="#fff" stroke-width="18" opacity=".5"/>
    <path fill="#2D2D34" d="M4.778 448.403c-1.166.145-2.187-.874-2.187-2.038v-52.269c0-1.311 1.02-2.184 2.187-2.184H36.99c4.227 0 8.163 1.601 11.078 4.659 2.915 2.912 4.664 6.988 4.518 11.211 0 3.494-1.457 6.697-3.935 8.881 4.664 2.766 6.85 6.989 6.559 12.812-.437 9.464-8.163 16.744-18.366 17.326-10.786.291-21.426.874-32.066 1.602zm24.779-19.801c1.457 0 1.457-.728 1.457-1.019 0-.292 0-1.02-1.457-1.02-.875 0-1.895 0-2.77.146v2.038c1.02 0 1.895-.145 2.77-.145zm-1.167-17.908c.146 0 .438 0 .438-.583 0-.145 0-.291-.146-.291 0 0-.146-.146-.437-.146h-1.458v.874c.583.146 1.02.146 1.603.146z"/>
    <path fill="#C59D6E" d="M36.99 393.95c7.58 0 13.556 6.261 13.41 13.686-.146 3.931-2.332 7.717-6.268 9.173 5.976 2.184 9.183 5.824 8.892 12.375-.438 8.445-7.143 14.706-16.18 15.288-10.64.582-21.28 1.165-32.066 1.747v-52.123c10.786-.146 21.426-.146 32.212-.146zM24.6 412.878c1.167 0 2.479 0 3.645-.146 3.352-.146 3.644-5.387 0-5.241H24.6v5.387zm0 18.054c1.604 0 3.353-.146 4.956-.146 2.478-.146 3.644-1.747 3.644-3.349 0-1.601-1.02-3.203-3.644-3.057-1.603 0-3.352.145-4.955.145v6.407zm12.39-41.35c-10.786 0-21.426 0-32.212-.145-2.478 0-4.373 2.038-4.373 4.513v52.415c0 2.475 1.895 4.368 4.373 4.222 10.64-.728 21.28-1.31 32.066-1.893 11.37-.728 20.115-8.881 20.552-19.51.292-5.678-1.457-10.046-5.393-13.103 1.75-2.33 2.77-5.242 2.915-8.445.146-4.659-1.749-9.318-5.101-12.667-3.644-3.494-8.017-5.387-12.827-5.387z"/>
    <path fill="#2D2D34" d="M55.501 445.491c-1.166 0-2.186-.874-2.186-2.038v-49.648c0-1.165 1.02-2.184 2.186-2.184h40.813c1.166 0 2.186.873 2.186 2.038v14.123c0 .873-.583 1.601-1.312 1.892.292.292.583.874.583 1.311v13.249c0 .437-.145.874-.437 1.31.729.292 1.312 1.02 1.312 1.893v14.123c0 1.165-1.02 2.038-2.186 2.184-13.847.582-27.403 1.165-40.959 1.747z"/>
    <path fill="#C59D6E" d="M96.314 393.805v14.122c-6.997.146-13.993.146-20.99.292v3.203c6.705-.146 13.556-.146 20.261-.292v13.395c-6.705.146-13.556.291-20.26.583v3.203c6.996-.146 13.992-.437 20.989-.583v14.123c-13.556.583-27.257 1.165-40.813 1.747v-49.502c13.556-.291 27.257-.291 40.813-.291zm0-4.077c-13.556 0-27.257 0-40.813-.146-2.477 0-4.372 1.893-4.372 4.223v49.793c0 2.33 1.895 4.223 4.372 4.077 13.556-.728 27.257-1.31 40.813-1.893 2.478-.145 4.373-2.038 4.373-4.222v-13.977a3.95 3.95 0 00-.875-2.475v-.728-13.25-.728a3.95 3.95 0 00.875-2.475V393.95c0-2.329-1.895-4.222-4.373-4.222z"/>
    <path fill="#2D2D34" d="M140.041 442.142c-.874 0-1.749-.436-2.04-1.164-.583-1.311-1.166-2.767-1.749-4.077l-13.119.437c-.583 1.456-1.166 2.766-1.603 4.222-.291.728-1.166 1.31-2.04 1.456-6.851.291-13.702.437-20.552.728-1.166 0-2.187-.874-2.187-2.038v-1.893c0-.291 0-.582.146-.728 6.559-15.724 13.118-31.303 19.677-46.591.292-.728 1.166-1.31 2.041-1.31h22.447c.874 0 1.749.437 2.04 1.31a6778.23 6778.23 0 0019.678 44.553c.146.291.146.436.146.728v1.747c0 1.019-1.021 2.038-2.187 2.038-6.85.291-13.847.437-20.698.582zm-9.911-21.111c-.146-.291-.146-.728-.292-1.019-.145.291-.145.728-.291 1.019h.583z"/>
    <path fill="#C59D6E" d="M141.062 393.222a6725.667 6725.667 0 0019.677 44.553v1.747c-6.851.145-13.701.291-20.552.582l-2.186-5.241-16.179.436c-.729 1.893-1.458 3.64-2.187 5.533-6.851.291-13.701.437-20.552.728v-1.893a4954.014 4954.014 0 0119.678-46.445h22.301zm-14.285 29.847c2.041 0 4.082-.145 5.976-.145-1.02-3.931-2.04-7.717-3.061-11.648-.874 3.931-1.894 7.862-2.915 11.793zm14.285-33.778h-22.447c-1.749 0-3.353 1.019-4.081 2.475-6.56 15.288-13.119 30.867-19.678 46.591-.145.437-.291 1.019-.291 1.456v1.893c0 2.329 1.895 4.076 4.372 3.931 6.851-.292 13.702-.583 20.552-.728 1.895 0 3.499-1.165 4.082-2.767.437-.873.728-1.892 1.166-2.766 3.352-.146 6.705-.146 10.057-.291.437.873.729 1.893 1.166 2.766.583 1.456 2.332 2.475 4.081 2.475 6.851-.145 13.702-.436 20.552-.582 2.478 0 4.373-1.893 4.373-4.077v-1.747c0-.437-.146-1.019-.292-1.456a6725.288 6725.288 0 01-19.677-44.552c-.583-1.602-2.186-2.621-3.935-2.621z"/>
    <path fill="#2D2D34" d="M190.619 440.978a2.551 2.551 0 01-2.04-1.019c-1.166-2.33-2.478-4.514-3.644-6.844v6.116c0 1.019-1.02 1.892-2.186 2.038-6.56.145-13.264.291-19.824.437-1.166 0-2.186-.874-2.186-1.893V393.95c0-1.019 1.02-2.038 2.186-1.892h22.01c18.074.145 27.111 6.406 27.111 18.49 0 5.97-2.332 10.629-6.851 13.686l7.434 12.23c.146.291.292.583.292.874v1.456c0 1.019-1.021 1.892-2.187 1.892-6.705.146-13.41.146-20.115.292zm-5.247-29.411c2.624 0 2.624-.436 2.624-1.019 0-.582 0-1.165-2.624-1.165h-.583v2.184h.583z"/>
    <path fill="#C59D6E" d="M184.935 393.805c12.681.145 24.925 3.203 24.925 16.598 0 6.551-3.061 10.628-7.434 13.103 2.769 4.659 5.539 9.173 8.308 13.832v1.456c-6.705.145-13.41.145-19.969.291a476.012 476.012 0 01-6.413-11.939h-1.312v12.085l-19.823.436v-45.862h21.718zm-2.332 19.801h2.769c3.207-.146 4.81-.874 4.81-3.058 0-2.184-1.457-3.057-4.81-3.057h-2.769v6.115zm2.332-23.587h-22.01c-2.478 0-4.372 1.747-4.372 3.931v45.863c0 2.184 1.894 3.931 4.372 3.785l19.823-.436c1.75 0 3.207-1.02 3.936-2.33.729 1.31 2.186 2.184 3.935 2.038 6.705-.145 13.41-.291 19.969-.291 2.478 0 4.373-1.747 4.373-3.931v-1.456c0-.582-.146-1.31-.437-1.747l-6.559-10.92c3.352-2.766 6.267-7.279 6.267-14.122 0-9.173-4.955-20.238-29.297-20.384z"/>
    <path fill="#2D2D34" d="M255.336 441.56c-20.114.146-29.297-12.958-29.297-25.188 0-12.376 9.328-25.479 29.443-25.479 12.681 0 26.528 6.552 29.152 20.965.146.437 0 1.02-.437 1.456.437.292.583.874.583 1.311v.728c0 2.621 0 4.95-.729 7.862-3.79 12.667-17.054 18.345-28.715 18.345zm.583-31.012c-2.915 0-5.976 1.893-5.976 5.97 0 2.766 1.021 4.513 2.332 5.387v-7.135c0-1.019 1.021-1.892 2.187-1.892h6.122c-1.021-1.602-2.77-2.33-4.665-2.33z"/>
    <path fill="#C59D6E" d="M255.336 392.785c12.39 0 24.633 6.552 26.966 19.365H262.77c-1.458-2.33-4.081-3.64-6.851-3.64-4.081 0-8.162 2.621-8.162 7.862 0 6.115 4.227 8.299 8.454 8.299 2.186 0 5.247-.874 6.122-2.621h-7.871v-7.425h28.131c0 2.912.146 5.096-.729 8.008-3.206 11.21-14.867 16.889-26.528 16.889-13.555 0-27.111-7.571-27.111-23.296 0-15.578 13.556-23.441 27.111-23.441zm0-3.785c-15.596 0-31.484 9.318-31.629 27.372.145 17.908 15.887 27.081 31.483 27.081 12.536 0 26.82-6.115 30.756-19.801.874-3.203.874-5.533.874-8.299v-.728c0-.583-.146-1.019-.291-1.456.145-.437.145-1.019.145-1.602-2.769-15.433-17.782-22.421-31.338-22.567z"/>
    <path fill="#2D2D34" d="M321.948 440.686c-.875 0-1.749-.436-2.041-1.31l-1.749-3.931c-4.373 0-8.746-.146-13.118-.146-.583 1.311-1.166 2.621-1.604 3.931-.291.728-1.166 1.165-2.04 1.165-6.851 0-13.702-.145-20.552-.145-1.166 0-2.187-.874-2.187-1.893v-1.747c0-.292 0-.437.146-.728 6.559-14.414 13.118-28.683 19.678-43.097.291-.728 1.166-1.164 2.04-1.164 7.434 0 15.013 0 22.447.145.875 0 1.749.437 2.041 1.165a6400.385 6400.385 0 0119.677 43.679c.146.291.146.436.146.728v1.747c0 1.019-1.021 1.893-2.187 1.893-6.996 0-13.847-.146-20.697-.292zm-10.058-20.529c-.145-.291-.145-.582-.291-1.019-.146.291-.146.583-.292 1.019h.583z"/>
    <path fill="#C59D6E" d="M322.822 393.805a6399.86 6399.86 0 0119.678 43.678v1.748c-6.851-.146-13.702-.292-20.552-.292l-2.187-5.241c-5.393 0-10.786-.146-16.179-.146-.729 1.747-1.457 3.349-2.186 5.096-6.851 0-13.701-.145-20.552-.145v-1.748c6.559-14.414 13.118-28.682 19.677-43.096 7.288 0 14.868 0 22.301.146zm-14.284 28.245h5.976c-1.02-3.785-2.04-7.425-3.061-11.211-.874 3.786-1.895 7.426-2.915 11.211zm14.284-32.176c-7.433 0-15.013 0-22.446-.146-1.75 0-3.353.874-4.082 2.33-6.559 14.414-13.118 28.682-19.677 43.096-.146.437-.292.873-.292 1.456v1.747c0 2.038 1.895 3.785 4.373 3.785 6.851 0 13.701 0 20.552.146 1.895 0 3.498-1.019 4.081-2.475.438-.874.729-1.747 1.166-2.621 3.353 0 6.705 0 10.058.146.437.873.729 1.747 1.166 2.766.583 1.456 2.332 2.475 4.081 2.475 6.851.146 13.701.146 20.552.291 2.478 0 4.373-1.601 4.373-3.785v-1.747c0-.437-.146-1.019-.292-1.456a6400.385 6400.385 0 00-19.677-43.679c-.437-1.31-2.187-2.329-3.936-2.329z"/>
    <path fill="#2D2D34" d="M384.041 441.997c-1.166 0-2.186-.874-2.186-2.039v-10.046-.291c.145-.728.145-1.456.291-2.184-.874 1.165-1.749 2.33-2.478 3.494-.437.583-1.02.874-1.895.874-2.332 0-4.664-.146-6.996-.146-.729 0-1.458-.291-1.895-.873-.874-1.165-1.749-2.33-2.478-3.494.146.728.146 1.456.292 2.184v10.337c0 1.019-1.021 1.893-2.187 1.893l-19.677-.437c-1.166 0-2.186-.874-2.186-1.893v-44.698c0-1.019 1.02-1.893 2.186-1.893 6.413 0 12.827 0 19.24.146.729 0 1.312.291 1.749.874 2.77 3.494 5.539 7.134 8.454 10.774 2.77-3.495 5.539-7.135 8.454-10.629.437-.582 1.021-.873 1.749-.873 6.414 0 12.827 0 19.095.145 1.166 0 2.186.874 2.186 2.039v46.008c0 1.019-1.02 1.893-2.186 1.893-6.559-.728-12.973-1.02-19.532-1.165z"/>
    <path fill="#C59D6E" d="M403.572 394.678v45.863c-6.559-.146-13.118-.437-19.531-.582v-10.192l1.312-10.483c-2.478 3.494-5.102 6.989-7.58 10.337-2.332 0-4.664-.145-6.996-.145-2.624-3.495-5.102-7.135-7.725-10.629.437 3.494.874 6.989 1.457 10.483v10.046l-19.677-.437v-44.843c6.267 0 12.972 0 19.24.146 3.352 4.367 6.85 8.59 10.203 12.958 3.352-4.223 6.851-8.591 10.203-12.813 6.122.291 12.827.291 19.094.291zm0-3.931c-6.413 0-12.826 0-19.094-.145-1.458 0-2.769.582-3.644 1.601l-6.559 8.299c-2.186-2.766-4.373-5.678-6.559-8.444-.875-1.02-2.187-1.602-3.644-1.602-6.414 0-12.827 0-19.24-.146-2.478 0-4.373 1.748-4.373 3.786v44.698c0 2.184 1.895 3.931 4.373 3.931l19.677.437c2.478 0 4.373-1.602 4.373-3.786v-6.552a4.029 4.029 0 001.895.437c2.332 0 4.664.146 6.996.146.729 0 1.312-.146 1.895-.291v6.551c0 2.184 1.895 3.931 4.373 4.077 6.559.146 13.118.437 19.531.582 2.478.146 4.373-1.601 4.373-3.785v-46.008c0-2.039-2.041-3.786-4.373-3.786z"/>
    <path fill="#2D2D34" d="M407.654 442.725c-1.166 0-2.187-1.019-2.187-2.038v-46.009c0-1.019 1.021-2.038 2.187-1.892 13.555.145 27.257.145 40.812.291 1.166 0 2.187.873 2.187 2.038v13.977c0 .874-.584 1.602-1.312 1.893.291.291.583.874.583 1.31v13.104c0 .437-.146.874-.438 1.31.729.292 1.312 1.02 1.312 1.893v13.977c0 1.165-1.02 2.039-2.186 1.893a1969.02 1969.02 0 00-40.958-1.747z"/>
    <path fill="#C59D6E" d="M448.466 394.969v13.832c-6.996-.146-13.993-.291-20.989-.291v3.057c6.705.146 13.555.291 20.26.437v13.104c-6.705-.146-13.555-.437-20.26-.583v3.058c6.996.145 13.993.437 20.989.582v13.832c-13.555-.583-27.257-1.019-40.812-1.456v-46.008c13.555.291 27.111.436 40.812.436zm0-3.931c-13.555 0-27.257-.145-40.812-.145-2.478 0-4.373 1.747-4.373 3.931v45.862c0 2.184 1.895 3.932 4.373 4.077 13.555.437 27.257 1.019 40.812 1.602 2.478.145 4.373-1.602 4.373-3.931v-13.978c0-.873-.292-1.747-.875-2.475v-.728-13.249-.728c.583-.728.875-1.456.875-2.475v-13.977c0-2.039-2.041-3.786-4.373-3.786z"/>
    <path fill="#2D2D34" d="M475.286 446.801c-15.888-.873-26.091-8.881-26.237-20.674 0-.583.292-1.019.583-1.456.437-.437 1.02-.583 1.603-.583 3.353.146 6.851.146 10.204.292-6.56-2.184-12.244-6.407-12.244-15.579 0-10.046 10.932-17.18 25.945-17.18 15.596 0 25.508 7.279 25.799 18.927 0 .582-.146 1.165-.583 1.456-.437.437-1.02.582-1.603.582-4.519-.145-9.183-.291-13.702-.291 8.6 1.747 16.763 5.824 16.763 16.744 0 12.084-9.912 18.636-26.528 17.762zm-2.041-19.946c0 .291 0 .873 2.332 1.019 1.312 0 1.749-.146 1.895-.291-.146-.146-.875-.437-2.915-.728h-1.312zm2.332-16.889c-.874 0-1.749.291-1.749.582s.437.437 1.166.437c.875.145 1.895.145 2.915.291-.146-.291-.291-.582-.291-.874-.438-.145-1.021-.436-2.041-.436z"/>
    <path fill="#C59D6E" d="M475.14 393.805c13.118 0 23.321 5.532 23.613 16.889l-19.24-.437c0-1.456-2.041-2.33-3.936-2.33-1.749 0-3.935.583-3.935 2.621 0 1.602 1.457 2.475 3.061 2.621 10.64 1.019 24.924 2.621 24.924 16.015 0 13.104-12.972 16.162-24.487 15.579-12.681-.582-23.904-6.552-24.05-18.49 6.559.145 13.264.436 19.823.582 0 2.329 2.186 3.057 4.518 3.057 2.187.146 4.082-.436 4.082-2.184 0-1.601-1.166-2.329-4.81-2.911-11.078-1.311-23.176-3.349-23.176-15.87 0-9.61 11.078-15.142 23.613-15.142zm0-4.077c-16.325 0-28.131 8.008-28.131 19.219 0 6.26 2.477 10.337 5.976 13.249h-1.895c-1.166 0-2.332.437-3.061 1.165-.875.728-1.312 1.747-1.312 2.912.146 12.958 11.223 21.839 28.423 22.712 17.782 1.02 28.86-6.406 28.86-19.509 0-6.115-2.478-11.066-7.288-14.414h2.041c1.166 0 2.332-.437 3.061-1.165.874-.728 1.312-1.893 1.312-3.058-.292-13.103-10.932-21.111-27.986-21.111zM281.259 369.18c-.621-.207-1.035-.414-1.656-.414-1.035-.415-2.07-.622-3.105-1.036-2.692-.828-5.383-1.656-8.074-2.898-4.969-2.07-10.145-4.762-15.32-8.488-4.762-3.313-9.11-7.246-13.043-11.594l2.277 13.871-15.734-10.972c-.828-.207-1.863-.414-3.313-1.243-5.382-3.312-10.144-8.074-13.664-13.663l.208 3.312-14.7-10.766c-15.113-10.972-26.085-23.808-33.124-38.507l2.277 12.629c-.621-.828-10.144-12.008-10.765-12.836-1.242-2.07-2.692-4.14-3.934-6.418-2.484-4.14-5.176-9.109-7.867-14.078-1.863-3.312-3.519-7.039-5.176-10.765-2.691-6.004-4.554-10.559-6.211-14.906-1.449-3.934-2.691-7.66-3.933-11.387l-.207-1.449c-1.035-3.52-2.277-7.246-3.313-11.18-.621-2.691-1.242-5.589-1.656-8.281-.207-.828-.207-1.863-.414-2.691-.207-.828-.414-1.863-.414-2.692-.414-2.691-1.035-5.382-1.242-8.281-.414-4.554-1.035-9.937-1.035-15.527 0-3.933.414-7.66.621-11.179 0-1.036.207-2.071.207-3.106v-1.449c.207-2.898.414-5.797 1.035-8.902.621-3.52 1.449-7.039 2.484-10.973.828-3.312 1.864-6.418 2.692-9.523l.621-2.277-.207-1.036-.207-.207c-2.071-1.656-4.141-3.312-6.211-5.175-6.832-5.59-12.836-12.215-17.598-19.254-2.69-4.141-4.968-8.281-6.832-12.008C93.484 91.347 93.07 89.07 92.45 87l-.207-1.242c-.414-1.449-.62-2.898-1.035-4.347L91 78.925v-8.488c0-.828.207-2.07.621-3.312 1.242-4.348 3.52-10.559 8.281-16.149 4.762-5.59 10.145-9.316 16.356-10.765 2.898-.828 5.796-1.035 8.902-1.035 5.175 0 10.558 1.035 16.562 3.52 4.969 1.863 9.109 4.76 13.043 7.245.828.621 1.656 1.035 2.484 1.656 3.313 2.07 6.418 4.555 9.316 6.625 1.036.828 2.071 1.657 3.106 2.278l1.035.828c2.277-2.692 4.762-5.176 7.453-7.246 2.484-1.864 5.176-3.934 8.281-6.211 3.934-2.691 8.695-4.762 14.285-6.625 3.313-1.035 6.418-1.863 9.731-2.484a54.345 54.345 0 012.691-.621c1.863-.414 3.519-.828 5.383-1.243l2.691-.62 9.316-1.036c3.106-.414 6.418-.62 9.524-.828l1.449-.207 1.035-.207H262.834l1.035.207c.207 0 .414 0 .621.207l8.074.621 11.594.828v.414h.828c3.312.621 6.625 1.242 10.972 2.278.829.207 1.45.414 2.278.414 2.484.414 5.176 1.035 7.867 2.07 3.519 1.45 8.281 3.312 12.629 6.21 4.554 2.9 8.695 6.005 12.421 9.524 1.45 1.45 2.899 2.899 4.141 4.348l1.449-1.242a53.015 53.015 0 015.383-4.141c3.726-2.691 7.246-5.176 10.558-7.246 2.485-1.656 5.176-3.312 8.282-4.762 3.312-1.449 6.417-2.691 9.523-3.52 3.105-.827 6.418-1.448 9.937-1.448h1.035c6.418.207 11.801 1.863 16.563 4.761 3.933 2.485 7.246 5.59 9.73 9.11 2.277 3.312 4.762 7.246 6.004 12.421.621 2.485 1.035 4.762 1.242 7.04.414 3.726 0 7.452-.828 12.007a54.05 54.05 0 01-4.969 13.664c-3.519 6.625-7.039 11.593-11.179 15.734l-.414.414c-3.934 3.934-7.867 8.074-12.008 12.008-1.863 1.656-3.727 3.105-5.383 4.347v.828c2.692 6.832 5.176 18.012 5.176 18.012 1.656-3.519 3.933-9.316 3.933-9.316.622 1.656 4.969 13.25 5.383 15.32.207 1.863.621 3.726.828 5.383.414 2.484.621 4.761 1.035 6.832 1.036 6.003 1.243 11.8 1.243 16.769 0 4.554-.414 8.902-.828 13.043l-.208 1.449c-.414 3.519-.621 7.039-1.449 10.765-1.035 4.348-2.277 8.696-3.726 12.629-1.242 3.52-2.485 6.832-3.727 9.73-1.035 2.278-2.07 4.555-3.105 6.625l-.207.414c-2.07 3.934-3.934 8.075-6.004 12.008-.621 1.449-1.449 2.691-2.277 4.141-1.035 1.863-1.864 3.519-2.692 5.175-2.07 4.141-3.933 8.489-5.59 12.422-1.242 2.899-2.07 5.797-2.898 8.281a38.475 38.475 0 00-1.242 7.039c-.207 3.313-.414 6.832-.207 10.352 0 1.863.207 5.382-2.691 8.281-1.864 1.863-4.348 2.898-7.246 2.898h-1.036c-3.312-.207-5.796-.621-8.281-1.242-1.863-.621-4.761-1.656-7.246-3.726l-.414.414c-2.898 2.898-5.797 5.589-8.074 8.488-2.277 2.898-4.348 6.211-5.797 9.937-1.656 4.141-2.484 7.246-2.691 10.352v4.554l-1.242 10.973-9.524-1.863-3.519-2.692c-1.242-1.035-2.277-2.07-3.313-3.105 0 .207 4.969 13.664 4.969 13.664l-13.871-2.278-1.863-.207c-1.449-.207-2.691-.414-3.934-.621-.207 0-.414 0-.828-.207.414.621 1.035 1.449 1.449 2.07l.622.622 1.035 1.035 12.007 17.183-20.91-3.519z"/>
    <path fill="#2D2D34" d="M371.317 132.96c5.176 13.043 8.902 26.293 8.902 40.578 2.899-6.625 3.727-13.457 4.762-20.496.414 1.449 1.035 2.898 1.242 4.347.621 4.141 1.242 8.281 1.863 12.629.828 5.176 1.035 10.144 1.035 15.32 0 4.555-.414 9.316-.828 13.871-.207 3.105-.621 6.418-1.242 9.523-.828 3.934-2.277 8.075-3.519 12.008-1.035 3.105-2.278 6.211-3.52 9.109-.828 2.278-2.07 4.348-3.105 6.625-1.863 3.934-3.934 7.867-6.004 11.801-1.656 3.312-3.52 6.418-5.176 9.523-2.07 4.348-3.933 8.488-5.797 13.043a81.904 81.904 0 00-3.105 9.316c-.828 2.692-1.242 5.59-1.449 8.488-.207 3.727-.414 7.454-.414 11.18 0 2.277 0 2.691-2.278 2.484-2.07-.207-4.347-.414-6.417-1.035-1.657-.414-3.313-1.242-4.555-2.484-1.449-1.242-2.484-3.106-3.727-4.762-.207.207-.621.414-.828.621-2.07 1.657-4.14 3.106-6.004 4.969-3.105 3.105-6.417 6.211-9.109 9.523-2.898 3.727-5.383 7.66-7.039 12.008-1.656 4.141-2.898 8.488-3.105 13.043v4.968c-.207 0-.207.001-.414.208-10.145-8.696-12.008-19.875-9.11-32.297-4.761 5.176-8.074 10.973-9.523 17.805-1.449 7.038-.207 13.87 2.277 20.909-2.07-.414-3.726-.621-5.589-.828-2.485-.414-4.762-1.449-7.039-2.898-2.071-1.242-3.52-3.106-4.762-4.969-.828-1.035-1.656-1.035-2.277.207-.207.414-.414.828-.621 1.449-1.036 4.969-.207 9.524 2.07 13.871 1.242 2.485 3.312 4.762 4.969 7.246.621.828 1.242 1.45 2.07 2.278-1.035-.207-1.656-.414-2.07-.621-3.52-1.243-7.246-2.278-10.766-3.727-4.969-1.863-9.316-4.555-13.664-7.66-4.347-3.105-8.281-6.625-12.007-10.558-4.762-5.383-8.075-11.387-10.559-18.219-.828-2.484-2.07-4.969-4.555-6.625-1.242-1.035-2.484-.621-2.691.828-.828 3.106-1.656 6.418-1.863 9.524-.414 5.175.621 10.144 2.691 15.113-.621-.207-1.035-.207-1.449-.414-4.969-3.106-8.695-7.246-11.594-12.008-2.07-3.52-4.14-7.246-5.796-11.18-1.243-2.691-2.071-5.589-3.106-8.488-.621-2.07-1.242-3.933-2.07-6.418-3.52 5.383-5.383 10.973-4.762 17.391-20.289-14.906-33.538-33.953-38.093-58.589-1.035 4.14-1.863 8.281-1.449 12.628.207 4.141 1.035 8.281 1.656 12.422-1.863-2.898-3.727-5.797-5.383-8.695-2.691-4.555-5.176-9.109-7.66-13.871-1.863-3.313-3.519-6.832-4.969-10.352-2.07-4.761-4.14-9.523-6.003-14.492-1.45-3.933-2.692-7.867-3.934-11.8-1.242-3.727-2.277-7.453-3.312-11.18-.829-3.312-1.243-6.832-1.864-10.351-.621-3.52-1.449-6.832-1.656-10.352-.414-4.968-.828-9.937-.828-14.699 0-4.554.414-9.109.828-13.664.207-3.105.414-6.417 1.035-9.523a80.46 80.46 0 012.485-10.144c1.242-4.555 2.691-8.903 3.933-13.25l-.621-6.211c-3.105-2.484-6.211-4.969-9.109-7.453-6.211-5.176-11.594-10.973-16.148-17.597-2.278-3.52-4.348-7.247-6.211-10.973-1.035-2.07-1.45-4.14-2.071-6.418l-1.242-5.59v-6.21c.207-1.036.207-1.864.414-2.692 1.449-4.762 3.313-9.316 6.625-13.25 3.313-3.933 7.039-6.832 12.008-8.074 7.039-1.863 13.664-.62 20.289 2.07 5.175 2.07 9.523 5.176 14.078 8.282 4.14 2.691 8.074 5.796 12.007 8.695 2.278 1.656 4.555 3.312 6.418 5.175.828.829 1.035.622 1.656-.207 2.899-4.347 6.211-8.28 10.352-11.593 2.484-2.07 5.176-3.934 7.867-5.797 3.726-2.484 7.867-4.347 12.215-5.797 3.933-1.242 7.867-2.07 11.8-2.898 2.485-.621 4.969-1.035 7.453-1.656l8.903-.828c3.726-.415 7.246-.622 10.972-1.036.621 0 1.242-.207 1.863-.207h17.805c.414 0 .828.207 1.242.207 3.727.414 7.66.621 11.387.828v.208l9.109 1.035c3.519.62 7.039 1.449 10.351 2.277 3.106.828 6.211 1.242 9.11 2.277a71.742 71.742 0 0111.386 5.383c3.934 2.484 7.867 5.383 11.18 8.488 2.898 2.692 5.175 6.004 7.66 9.11.207.413 1.035.62 1.242.62l6.211-4.968c2.07-1.656 4.14-3.313 6.418-4.969 3.312-2.484 6.832-4.762 10.351-7.039 2.277-1.449 4.762-3.105 7.246-4.14 2.691-1.242 5.383-2.278 8.074-2.899 2.692-.62 5.59-1.242 8.488-1.242 4.348.207 8.696 1.035 12.422 3.52 2.899 1.863 5.383 4.14 7.246 6.831 2.07 2.899 3.727 6.004 4.762 9.73.414 2.071.828 3.934 1.035 6.005.414 3.312 0 6.418-.621 9.523-.828 4.14-2.277 7.867-4.141 11.387-2.691 4.968-5.797 9.73-9.73 13.871a328.399 328.399 0 01-12.008 12.007c-2.277 2.07-4.968 3.934-7.66 6.004l-1.242 6.004z"/>
    <path fill="#3F3F47" d="M262.834 338.332a61.63 61.63 0 01-7.66-7.039c-3.313-3.519-5.797-8.074-8.074-14.078-1.243-3.519-3.727-8.695-8.903-12.421-2.691-1.864-5.589-2.899-8.695-2.899-3.933 0-7.66 1.656-10.144 4.555-.207-.828-.414-1.449-.828-2.277-.414-1.243-.828-2.485-1.242-3.934l-8.903-26.914-13.871 21.738c-.414.621-.621 1.035-1.035 1.656-10.144-10.972-16.562-23.808-19.253-38.507l-13.871-.414c-.207-.207-.207-.414-.414-.828-1.657-2.898-3.106-6.004-4.555-9.523-2.484-5.59-4.348-9.938-5.797-13.871-1.242-3.313-2.277-6.625-3.519-10.145l-.414-1.656c-1.036-3.519-2.071-6.625-2.899-9.937a217.181 217.181 0 01-1.242-6.832c-.207-1.035-.414-1.864-.414-2.899-.207-1.035-.414-2.07-.621-2.898-.414-2.277-.828-4.348-1.035-6.418-.414-4.141-.828-8.902-.828-13.457 0-2.898.207-6.004.621-9.316 0-1.035.207-2.277.207-3.313l.207-1.449c.207-2.484.414-4.761.621-6.832.414-2.691 1.242-5.589 2.07-9.109.828-3.105 1.656-6.004 2.692-9.109l1.863-6.211-1.449-13.664-6.832-5.59c-2.071-1.656-4.141-3.312-6.004-4.968-5.383-4.348-9.938-9.524-13.871-15.114-2.07-2.898-3.727-6.418-5.383-9.523-.207-.414-.414-1.656-.828-2.691l-.414-1.45-.621-3.105c0-.207 0-.414-.207-.621v-4.348c1.242-3.726 2.484-6.21 4.14-8.28 2.485-2.9 4.348-3.727 5.59-4.141 1.242-.207 2.277-.414 3.52-.414 2.484 0 5.589.62 9.109 2.07 2.898 1.242 6.004 3.105 9.109 5.383.828.62 1.656 1.242 2.692 1.656 2.691 1.656 5.175 3.726 7.867 5.797 1.035.828 2.277 1.656 3.312 2.484l1.242 1.035c1.657 1.242 3.106 2.278 4.141 3.313 2.691 2.484 6.004 3.933 9.316 3.933 2.692 0 7.453-.828 11.18-6.21 2.484-3.727 4.968-6.626 7.66-8.696 2.07-1.656 4.347-3.312 7.246-5.176 2.277-1.656 5.176-2.898 8.902-4.14 2.484-.828 5.176-1.45 7.867-2.07 1.035-.208 1.863-.415 2.899-.622 1.656-.414 3.105-.62 4.761-1.035l1.656-.414 8.282-.828c3.105-.414 6.003-.62 9.316-.828l1.449-.207c.621 0 1.449-.207 1.863-.207h15.113c.414 0 1.036.207 1.864.207 2.691.207 5.589.414 8.281.621l2.691.414 8.488 1.035c3.52.621 6.832 1.45 9.317 2.07.828.208 1.863.415 2.691.622 1.863.414 3.52.828 4.762 1.242 4.14 1.656 6.832 2.898 9.316 4.347 3.519 2.07 6.625 4.555 9.316 7.04 1.242 1.035 2.485 2.69 3.727 4.554.828 1.242 1.863 2.277 2.898 3.52 2.692 3.105 6.625 4.968 10.559 4.968h4.14l3.52-2.484c1.449-1.035 2.898-2.277 4.347-3.313.621-.62 3.313-2.691 3.313-2.691 1.656-1.242 3.105-2.484 4.554-3.52a453.764 453.764 0 019.938-6.831c2.07-1.243 3.933-2.485 5.797-3.313 2.07-1.035 4.14-1.656 5.796-2.277 1.036-.207 3.313-.828 4.762-.828 2.898.207 4.969.62 6.418 1.656 1.656 1.035 2.898 2.07 3.519 3.312 1.657 2.485 2.485 4.141 2.899 5.59.414 1.45.621 2.899.828 4.14.207 1.657 0 3.313-.414 5.798-.621 2.69-1.656 5.382-2.899 8.074-2.484 4.761-4.968 8.28-7.66 10.972l-.207.207c-3.933 3.934-7.66 7.867-11.386 11.387-1.035 1.035-2.485 2.07-4.141 3.312-.828.621-1.863 1.242-2.691 2.071l-3.934 3.105-1.863 14.492 1.242 2.898c5.59 14.285 8.074 25.258 8.074 36.023l8.489 1.864c.414 3.312.414 6.832.414 9.937 0 3.52-.414 7.246-.621 11.18l-.208 1.656c-.207 2.898-.621 5.59-1.035 7.867-.828 3.519-2.07 7.246-3.105 10.765-1.035 2.899-2.07 5.797-3.106 8.282-.621 1.656-1.656 3.519-2.484 5.382l-.207.414c-1.863 3.934-3.933 7.867-5.797 11.594l-1.863 3.726c-1.035 2.071-2.277 4.141-3.312 6.211-2.278 4.555-4.141 9.11-6.004 13.664-1.449 3.727-2.692 7.453-3.727 10.766-.414 1.242-.621 2.691-.828 4.14l-3.105-3.933-9.938 6.832c-.414.207-1.035.621-1.656 1.242-.621.414-1.035.828-1.656 1.242-1.656 1.242-3.52 2.691-5.176 4.348l-.414.414c-1.449 1.449-3.105 3.105-4.762 4.554l7.039-31.468-31.468 34.367c-6.418 7.039-10.558 14.906-12.422 23.808-.207.621-.207 1.242-.414 1.863-1.242-.414-2.277-.414-3.519-.414-5.383 0-10.145 3.106-12.422 8.281-.414.622-1.035 2.071-1.449 3.934.414.414.207 1.242.207 2.07z"/>
    <path fill="#C59D6E" d="M142.343 108.737c.414-2.691 1.035-5.796 1.449-8.488l-1.449-7.039c-7.867-4.968-16.148-10.144-21.117-18.218-6.832 14.492 10.352 26.913 21.117 33.745zM381.668 77.683c-.414-1.45-1.035-2.691-1.863-3.934-4.762 9.11-11.801 14.493-19.461 20.496l-1.035 7.66a197.89 197.89 0 012.899 8.075c9.523-7.661 22.566-18.633 19.46-32.297zM274.635 260.697c4.14 0 8.281-1.45 11.593-3.934l4.969-3.727c3.312-2.484 6.004-5.589 7.453-9.523 1.449-4.348 2.07-8.902 2.07-13.457v-2.898c1.242 1.863 2.278 3.312 3.313 4.969.828-2.278 1.863-4.141 2.484-6.211 1.242-4.141 2.484-8.489 3.312-12.629.829-3.934 1.864-7.867 2.071-11.801.207-5.382.207-10.765-.414-16.148a111.001 111.001 0 00-3.106-16.148c-1.656-6.004-4.14-11.801-7.039-17.598-3.726-7.453-8.074-14.492-13.25-20.91-.414-.621-.621-1.449-.414-2.277 1.036-4.348 4.141-7.246 7.66-9.316 4.348-2.692 8.903-4.762 13.457-7.039 1.45-.828 2.899-1.449 4.348-2.277 0-.208-.207-.415-.207-.829-2.484.414-5.176.621-7.66 1.243a81.839 81.839 0 00-9.316 3.105c-4.555 1.863-9.11 3.934-13.457 6.004-1.657.828-2.485 2.07-4.969.828-3.727-1.863-8.074-2.484-12.422-2.484-.828 0-2.07-.621-2.277-1.243-1.035-2.07-1.863-4.347-2.277-6.832-.828-3.726-1.243-7.246-1.657-10.972-.621-4.762-1.035-9.523-1.656-14.285-.207-2.484-.207-4.969-.414-7.66 0-1.035-.414-2.07-.621-2.898h-.414l-1.242 14.284c-.207 2.899-.414 5.797-.828 8.696-.828 5.797-2.071 11.593-3.313 17.183-.621 3.106-1.863 3.727-5.176 3.727-1.242 0-2.691.207-3.933.414-2.691.621-5.797.621-8.074 2.691-.207.207-.828.207-1.242 0-2.278-1.242-4.348-2.691-6.625-3.726-4.141-1.864-8.281-3.313-12.422-4.969-1.449-.621-3.727-1.242-5.383-1.656-2.898-.621-5.59-1.657-9.109-1.036 1.035.622 1.656 1.036 2.277 1.243 5.176 2.691 10.559 5.175 15.734 8.074 3.106 1.656 5.59 4.347 7.454 7.453 1.035 1.656.621 3.312-.415 4.968-2.277 3.313-4.761 6.418-6.831 9.731-2.278 3.519-4.348 7.453-6.211 11.179-1.864 3.52-3.52 7.039-4.762 10.766-2.484 7.246-3.934 14.699-4.969 22.152-.207 1.656-.414 3.519-.414 5.176-.414 7.867-.207 15.527 2.071 23.187 1.035 3.519 1.863 7.246 3.105 10.972.828 2.485 1.656 4.969 2.691 7.66 1.243-1.656 2.071-3.312 3.313-4.968-.207 5.59.207 10.765 1.863 15.734 1.242 3.727 3.52 6.832 6.418 9.316 2.07 1.657 4.141 3.313 6.418 4.969a20.45 20.45 0 0011.8 3.727h36.645z"/>
    <path fill="#C59D6E" d="M296.994 129.647c.414.207.414.414.828.621 4.968 2.278 10.144 4.141 15.734 4.969 4.348.621 8.281.207 11.594-2.277 2.484-1.864 4.761-4.348 6.832-6.625 1.449-1.656 2.484-3.727 3.726-5.59-.207-.207-.414-.414-.621-.414-1.035.828-2.07 1.656-2.898 2.691-2.899 3.52-6.211 6.625-10.559 7.66-6.004 1.45-12.215.621-18.011-1.449-2.485-1.035-4.348-.828-6.625.414zM215.631 129.647v-.621c-1.242-.207-2.691-.828-3.933-.621-3.52.621-6.832 1.863-10.352 2.07-3.519.415-7.039.415-10.351-.414-4.348-1.035-7.453-3.933-10.351-7.453-.829-1.035-1.657-2.691-3.727-2.484 1.863 2.484 3.312 4.969 4.969 7.246 3.519 4.555 7.867 8.074 13.871 7.66 4.554-.414 9.109-1.656 13.664-2.898 2.277-.207 4.14-1.45 6.21-2.485z"/>
    <path fill="#C59D6E" d="M201.553 122.608l-6.832-4.968c-1.656 1.656-1.656 4.347 1.036 6.417 1.449 1.45 4.554.414 5.796-1.449zM311.072 122.608c.828 2.071 2.691 2.071 4.761 1.863 1.656-.207 2.485-1.449 2.899-3.105.621-1.656 0-2.898-.829-3.934-2.277 1.864-4.554 3.52-6.831 5.176z"/>
    <path fill="#2D2D34" d="M261.178 230.263s30.847-4.347 30.847 3.727c0 0 3.105-7.867-8.902-9.731-11.801-1.863-17.598-1.863-17.598-1.863l11.387-39.128s7.246 2.691 6.625 7.66c-.621 4.968 24.429-7.867.828-19.254-23.601-11.179-9.109-13.457-23.601-11.179h-5.383c-14.285-2.071 0 0-23.394 11.386-23.395 11.387 1.449 24.015.828 19.254-.621-4.969 6.625-7.66 6.625-7.66l11.386 38.921s-5.797 0-17.597 1.863c-11.801 1.864-8.902 9.731-8.902 9.731 0-7.867 30.847-3.727 30.847-3.727h6.004zM258.072 129.647c2.071 4.969 6.418 7.246 11.18 8.902 6.004 2.278 12.214 3.727 17.804 7.039 1.035.622 2.071 1.657 3.106 2.485-21.531-8.902-43.062-8.902-64.593-.207 1.449-1.035 2.898-2.485 4.554-3.106 4.348-1.863 8.903-3.312 13.457-5.175 3.934-1.657 8.074-2.485 11.18-5.797 1.242-1.242 2.277-2.692 3.312-4.141z"/>
</svg>