<svg width="32" height="32" viewBox="0 0 32 32" fill="none" xmlns="http://www.w3.org/2000/svg">
<path opacity="0.1" fill-rule="evenodd" clip-rule="evenodd" d="M0 16C0 7.16344 7.16344 0 16 0C24.8366 0 32 7.16344 32 16C32 24.8366 24.8366 32 16 32C7.16344 32 0 24.8366 0 16Z" fill="white"/>
<path d="M23.6802 11.6199C23.6969 10.7906 23.5147 9.95198 23.3667 9.12626C23.3158 8.84202 23.2126 8.56735 23.111 8.29785C23.0344 8.09496 22.8083 7.96575 22.6001 8.01017C22.4653 8.03888 22.3442 8.06684 22.2267 8.1055C20.9967 8.51015 19.8578 9.10196 18.7637 9.78953C18.6167 9.8818 18.4029 9.91511 18.2254 9.9021C17.8009 9.87107 17.3809 9.76542 16.9566 9.74531C15.9063 9.69555 14.8582 9.72751 13.8174 9.90954C13.6728 9.93481 13.4823 9.90992 13.3621 9.83223C12.169 9.06023 10.9277 8.39949 9.53141 8.02853C9.3218 7.97282 9.10608 8.00232 9.05307 8.08557C9.0207 8.13649 8.99142 8.18932 8.97535 8.24596C8.8245 8.77597 8.64573 9.30331 8.55806 9.84461C8.45357 10.4906 8.35308 11.1562 8.40265 11.8014C8.43386 12.207 8.32186 12.4562 8.10024 12.7409C7.35677 13.696 7.02199 14.7939 7.00151 15.9977C6.9839 17.0273 7.12017 18.0307 7.43371 19.0149C7.91396 20.523 8.84133 21.6548 10.2377 22.3912C11.3858 22.9966 12.6368 23.23 13.917 23.2749C15.0708 23.3153 16.2269 23.2811 17.3821 23.2876C18.54 23.2941 19.6819 23.1909 20.7896 22.8299C21.8982 22.4687 22.8576 21.8859 23.602 20.9694C24.6771 19.6456 25.0119 18.0862 25.0806 16.4354C25.1333 15.1731 24.876 13.9856 24.1367 12.9529C23.837 12.534 23.6689 12.1741 23.6802 11.6199ZM21.4511 21.2925C20.9545 21.7218 20.3474 21.9251 19.7259 22.0736C18.5064 22.365 17.2648 22.4375 16.0191 22.3832C14.7877 22.4365 13.5705 22.3598 12.3725 22.0778C11.4888 21.87 10.682 21.5205 10.1196 20.7619C9.22478 19.5547 8.99605 17.2572 10.4747 16.0033C10.8518 15.6836 11.2723 15.4807 11.7692 15.4492C12.3176 15.4141 12.8662 15.3458 13.4142 15.3523C14.7966 15.3687 16.1783 15.4375 17.5605 15.4478C18.1918 15.4524 18.8275 15.3052 19.4541 15.3431C20.0236 15.3776 20.6223 15.4824 21.1391 15.7116C22.0007 16.0936 22.4644 16.8682 22.6046 17.7755C22.8132 19.1246 22.5379 20.3525 21.4511 21.2925Z" fill="white"/>
<path d="M19.1985 20.4229C19.9261 20.4229 20.5159 19.6346 20.5159 18.6622C20.5159 17.6897 19.9261 16.9014 19.1985 16.9014C18.4708 16.9014 17.881 17.6897 17.881 18.6622C17.881 19.6346 18.4708 20.4229 19.1985 20.4229Z" fill="white"/>
<path d="M12.912 20.4229C13.6398 20.4229 14.2297 19.6346 14.2297 18.6622C14.2297 17.6897 13.6398 16.9014 12.912 16.9014C12.1843 16.9014 11.5944 17.6897 11.5944 18.6622C11.5944 19.6346 12.1843 20.4229 12.912 20.4229Z" fill="white"/>
</svg>
