<svg xmlns="http://www.w3.org/2000/svg" width="32" height="32" fill="none" viewBox="0 0 32 32">
    <path fill="#18191F" fill-rule="evenodd" d="M0 16C0 7.163 7.163 0 16 0s16 7.163 16 16-7.163 16-16 16S0 24.837 0 16z" clip-rule="evenodd" opacity=".1"/>
    <path fill="#18191F" d="M23.68 11.62c.017-.83-.165-1.668-.313-2.494-.051-.284-.154-.559-.256-.828a.462.462 0 00-.51-.288 3.556 3.556 0 00-.374.095c-1.23.405-2.37.997-3.463 1.685a.943.943 0 01-.539.112c-.424-.03-.844-.137-1.268-.157-1.05-.05-2.099-.017-3.14.165a.693.693 0 01-.455-.078C12.17 9.06 10.928 8.4 9.532 8.03c-.21-.056-.426-.027-.479.057a.62.62 0 00-.078.16c-.15.53-.33 1.057-.417 1.599-.104.646-.205 1.311-.155 1.956.03.406-.081.655-.303.94-.743.955-1.078 2.053-1.098 3.257a9.328 9.328 0 00.432 3.017c.48 1.508 1.407 2.64 2.804 3.376 1.148.606 2.399.839 3.679.884 1.154.04 2.31.006 3.465.013 1.158.006 2.3-.097 3.408-.458s2.068-.944 2.812-1.86c1.075-1.324 1.41-2.884 1.479-4.535.052-1.262-.205-2.45-.944-3.482-.3-.419-.468-.779-.457-1.333zm-2.229 9.673c-.497.429-1.104.632-1.725.78-1.22.292-2.461.364-3.707.31-1.231.053-2.448-.023-3.646-.305-.884-.208-1.691-.558-2.253-1.316-.895-1.207-1.124-3.505.355-4.759.377-.32.797-.522 1.294-.554.549-.035 1.097-.103 1.645-.097 1.383.017 2.764.085 4.147.096.63.004 1.267-.143 1.893-.105.57.035 1.168.14 1.685.369.862.382 1.325 1.156 1.466 2.064.208 1.349-.067 2.576-1.154 3.517z"/>
    <path fill="#18191F" d="M19.198 20.423c.728 0 1.318-.788 1.318-1.76 0-.973-.59-1.761-1.318-1.761-.727 0-1.317.788-1.317 1.76 0 .973.59 1.761 1.317 1.761zM12.912 20.423c.728 0 1.318-.788 1.318-1.76 0-.973-.59-1.761-1.318-1.761-.728 0-1.318.788-1.318 1.76 0 .973.59 1.761 1.318 1.761z"/>
</svg>