<svg width="32" height="32" viewBox="0 0 32 32" fill="none" xmlns="http://www.w3.org/2000/svg">
<path d="M13.88 12.3362V22.0544C13.88 22.1921 13.844 22.3101 13.7747 22.4059C13.7048 22.5011 13.6011 22.5513 13.4646 22.5513C13.3689 22.5513 13.2758 22.5286 13.1858 22.4846L9.24672 20.5544C9.12714 20.5 9.0282 20.4058 8.94619 20.2775C8.86419 20.1486 8.82397 20.0197 8.82397 19.8923V10.4469C8.82397 10.3366 8.85149 10.2424 8.90916 10.1653C8.96471 10.0882 9.04672 10.0488 9.15519 10.0488C9.23402 10.0488 9.35783 10.0897 9.5282 10.1731L13.8567 12.2937C13.8705 12.3118 13.88 12.3253 13.88 12.3362Z" fill="white"/>
<path d="M14.422 13.1738L18.9436 20.3485L14.422 18.1445V13.1738Z" fill="white"/>
<path d="M24 13.3223V22.0544C24 22.1921 23.9598 22.3044 23.881 22.3888C23.8021 22.4752 23.6953 22.5177 23.5588 22.5177C23.4228 22.5177 23.291 22.4814 23.1609 22.41L19.4276 20.588L24 13.3223Z" fill="white"/>
<path d="M23.9748 12.3282C23.9748 12.3448 23.25 13.5037 21.8018 15.8035C20.3542 18.1048 19.5056 19.4501 19.258 19.8425L15.9548 14.5902L18.6987 10.2241C18.7945 10.0698 18.9416 9.99219 19.1384 9.99219C19.2172 9.99219 19.2902 10.0093 19.3585 10.0424L23.9404 12.2801C23.9621 12.2889 23.9748 12.3054 23.9748 12.3282Z" fill="white"/>
<path opacity="0.1" fill-rule="evenodd" clip-rule="evenodd" d="M0 16C0 7.16344 7.16344 0 16 0C24.8366 0 32 7.16344 32 16C32 24.8366 24.8366 32 16 32C7.16344 32 0 24.8366 0 16Z" fill="white"/>
</svg>
