<svg width="32" height="32" viewBox="0 0 32 32" fill="none" xmlns="http://www.w3.org/2000/svg">
<path opacity="0.1" fill-rule="evenodd" clip-rule="evenodd" d="M0 16C0 7.16344 7.16344 0 16 0C24.8366 0 32 7.16344 32 16C32 24.8366 24.8366 32 16 32C7.16344 32 0 24.8366 0 16Z" fill="white"/>
<path fill-rule="evenodd" clip-rule="evenodd" d="M11.0409 17.277L7.28765 15.8631C6.90636 15.7191 6.90338 15.1759 7.28318 15.0279L22.6858 9.03067C23.0124 8.90334 23.3495 9.19192 23.2779 9.53802L20.5139 22.9576C20.4488 23.2747 20.0809 23.4183 19.8209 23.2275L16.0478 20.4627C15.8187 20.295 15.5065 20.3039 15.2872 20.4843L13.1949 22.2055C12.9523 22.406 12.5864 22.2944 12.4934 21.9921L11.0409 17.277ZM19.5941 11.9655L12.2592 16.5247C11.9778 16.7002 11.8456 17.0429 11.9366 17.3634L12.7295 20.176C12.7856 20.3751 13.0725 20.3549 13.0998 20.1489L13.3061 18.6067C13.3449 18.3162 13.4821 18.0487 13.6949 17.8487L19.7482 12.1695C19.8616 12.0633 19.7259 11.8834 19.5941 11.9655Z" fill="white"/>
</svg>
