<svg xmlns="http://www.w3.org/2000/svg" width="32" height="32" fill="none" viewBox="0 0 32 32">
    <path fill="#18191F" fill-rule="evenodd" d="M0 16C0 7.163 7.163 0 16 0s16 7.163 16 16-7.163 16-16 16S0 24.837 0 16z" clip-rule="evenodd" opacity=".1"/>
    <path fill="#18191F" fill-rule="evenodd" d="M11.04 17.277l-3.752-1.414a.448.448 0 01-.005-.835L22.686 9.03a.444.444 0 01.592.507l-2.764 13.42a.44.44 0 01-.693.27l-3.773-2.765a.62.62 0 00-.76.021l-2.093 1.721a.44.44 0 01-.702-.213l-1.452-4.715zm8.554-5.312l-7.335 4.56a.748.748 0 00-.322.838l.793 2.813c.056.2.342.179.37-.027l.206-1.542a1.27 1.27 0 01.389-.758l6.053-5.68c.114-.106-.022-.286-.154-.204z" clip-rule="evenodd"/>
</svg>