<svg xmlns="http://www.w3.org/2000/svg" width="268" height="221" fill="none" viewBox="0 0 268 221">
    <path fill="#2D2D34" d="M2.32 219.835c-.619.078-1.16-.463-1.16-1.081v-27.728c0-.695.541-1.159 1.16-1.159h17.088c2.243 0 4.33.85 5.877 2.472 1.546 1.545 2.474 3.707 2.397 5.947 0 1.854-.773 3.553-2.088 4.712 2.474 1.467 3.634 3.707 3.48 6.796-.232 5.021-4.33 8.883-9.743 9.192-5.722.154-11.367.463-17.011.849zm13.145-10.504c.773 0 .773-.386.773-.541 0-.154 0-.54-.773-.54-.464 0-1.005 0-1.47.077v1.081c.542 0 1.006-.077 1.47-.077zm-.619-9.5c.078 0 .232 0 .232-.309 0-.077 0-.155-.077-.155 0 0-.077-.077-.232-.077h-.773v.464c.309.077.54.077.85.077z"/>
    <path fill="#C59D6E" d="M19.408 190.95c4.021 0 7.191 3.321 7.114 7.26-.077 2.086-1.237 4.094-3.325 4.866 3.17 1.159 4.872 3.09 4.717 6.565-.232 4.48-3.789 7.801-8.583 8.11-5.645.309-11.29.618-17.011.927v-27.651c5.722-.077 11.366-.077 17.088-.077zm-6.572 10.041c.618 0 1.314 0 1.933-.077 1.778-.078 1.933-2.858 0-2.781h-1.933v2.858zm0 9.577c.85 0 1.778-.077 2.629-.077 1.314-.077 1.933-.927 1.933-1.776 0-.85-.541-1.7-1.933-1.622-.85 0-1.779.077-2.63.077v3.398zm6.572-21.935c-5.722 0-11.366 0-17.088-.077-1.315 0-2.32 1.081-2.32 2.394v27.806c0 1.313 1.005 2.317 2.32 2.239 5.644-.386 11.289-.695 17.01-1.004 6.032-.386 10.672-4.711 10.904-10.35.154-3.012-.774-5.329-2.861-6.951.927-1.236 1.469-2.78 1.546-4.48.077-2.471-.928-4.943-2.706-6.719-1.933-1.854-4.253-2.858-6.805-2.858z"/>
    <path fill="#2D2D34" d="M29.228 218.293c-.618 0-1.16-.464-1.16-1.082v-26.338c0-.617.542-1.158 1.16-1.158H50.88c.619 0 1.16.463 1.16 1.081v7.492c0 .464-.31.85-.696 1.004.155.155.31.464.31.695v7.029c0 .232-.078.463-.233.695a1.1 1.1 0 01.696 1.004v7.492c0 .618-.541 1.082-1.16 1.159-7.345.309-14.537.618-21.728.927z"/>
    <path fill="#C59D6E" d="M50.879 190.872v7.492c-3.712.077-7.423.077-11.135.154v1.699c3.557-.077 7.191-.077 10.748-.154v7.106c-3.556.077-7.19.154-10.748.309v1.699c3.712-.077 7.423-.232 11.135-.309v7.492c-7.191.309-14.46.618-21.65.927v-26.261c7.19-.154 14.459-.154 21.65-.154zm0-2.163c-7.191 0-14.46 0-21.65-.077-1.315 0-2.32 1.004-2.32 2.24v26.415c0 1.236 1.005 2.24 2.32 2.163 7.19-.387 14.459-.696 21.65-1.004 1.315-.078 2.32-1.082 2.32-2.24v-7.415c0-.464-.155-.927-.464-1.313v-.386-7.029-.386c.31-.386.464-.85.464-1.313v-7.415c0-1.236-1.005-2.24-2.32-2.24z"/>
    <path fill="#2D2D34" d="M74.076 216.517c-.464 0-.928-.232-1.082-.618-.31-.696-.619-1.468-.928-2.163l-6.96.232c-.309.772-.618 1.467-.85 2.24-.154.386-.618.695-1.082.772-3.635.154-7.269.232-10.903.386-.619 0-1.16-.463-1.16-1.081v-1.004c0-.155 0-.309.077-.386 3.48-8.342 6.96-16.607 10.44-24.716.154-.387.618-.696 1.082-.696h11.908c.464 0 .927.232 1.082.696a3576.12 3576.12 0 0010.439 23.634c.077.155.077.232.077.386v.927c0 .541-.541 1.082-1.16 1.082-3.634.154-7.346.231-10.98.309zm-5.258-11.2c-.077-.154-.077-.386-.154-.541-.078.155-.078.387-.155.541h.31z"/>
    <path fill="#C59D6E" d="M74.618 190.565c3.48 7.955 6.959 15.834 10.438 23.635v.926c-3.634.078-7.268.155-10.903.309l-1.16-2.78-8.582.232c-.387 1.004-.773 1.93-1.16 2.935-3.634.154-7.268.231-10.903.386v-1.004a2639.89 2639.89 0 0110.439-24.639h11.83zm-7.578 15.834c1.082 0 2.165-.078 3.17-.078-.541-2.085-1.082-4.093-1.624-6.179-.464 2.086-1.005 4.171-1.546 6.257zm7.578-17.92H62.71c-.928 0-1.779.541-2.165 1.314a2644.13 2644.13 0 00-10.44 24.716c-.076.231-.154.54-.154.772v1.004c0 1.236 1.005 2.163 2.32 2.085 3.634-.154 7.268-.309 10.903-.386 1.005 0 1.855-.618 2.165-1.467.232-.464.386-1.004.618-1.468 1.779-.077 3.557-.077 5.336-.154.231.463.386 1.004.618 1.467.31.773 1.237 1.313 2.165 1.313 3.634-.077 7.269-.231 10.903-.309 1.314 0 2.32-1.004 2.32-2.162v-.927c0-.232-.078-.541-.155-.773-3.48-7.801-6.96-15.679-10.439-23.634-.31-.85-1.16-1.391-2.087-1.391z"/>
    <path fill="#2D2D34" d="M100.908 215.899c-.464 0-.851-.232-1.083-.541-.619-1.236-1.315-2.394-1.933-3.63v3.244c0 .54-.541 1.004-1.16 1.081l-10.516.232c-.619 0-1.16-.464-1.16-1.004v-24.33c0-.541.541-1.081 1.16-1.004h11.676c9.588.077 14.382 3.398 14.382 9.809 0 3.167-1.237 5.638-3.634 7.26l3.943 6.488c.078.155.155.309.155.464v.772c0 .541-.541 1.004-1.16 1.004-3.557.077-7.114.077-10.67.155zm-2.784-15.602c1.392 0 1.392-.232 1.392-.541 0-.309 0-.618-1.392-.618h-.31v1.159h.31z"/>
    <path fill="#C59D6E" d="M97.892 190.874c6.727.078 13.222 1.7 13.222 8.805 0 3.476-1.623 5.639-3.943 6.952 1.469 2.471 2.938 4.866 4.407 7.337v.773c-3.557.077-7.114.077-10.593.154a252.678 252.678 0 01-3.402-6.333h-.696v6.41c-3.48.078-7.037.155-10.516.232v-24.33h11.52zm-1.237 10.505h1.469c1.701-.078 2.552-.464 2.552-1.622 0-1.159-.774-1.622-2.552-1.622h-1.47v3.244zm1.237-12.513H86.216c-1.314 0-2.32.927-2.32 2.086v24.329c0 1.159 1.005 2.086 2.32 2.009 3.48-.078 7.037-.155 10.516-.232.928 0 1.701-.541 2.088-1.236.386.695 1.16 1.159 2.088 1.081 3.556-.077 7.113-.154 10.593-.154 1.314 0 2.32-.927 2.32-2.085v-.773c0-.309-.078-.695-.232-.927l-3.48-5.793c1.779-1.467 3.325-3.861 3.325-7.492 0-4.866-2.629-10.736-15.542-10.813z"/>
    <path fill="#2D2D34" d="M135.239 216.208c-10.67.077-15.542-6.874-15.542-13.362 0-6.566 4.949-13.517 15.62-13.517 6.727 0 14.073 3.476 15.464 11.122.078.232 0 .541-.232.773.232.154.31.463.31.695v.386c0 1.39 0 2.626-.387 4.171-2.01 6.719-9.047 9.732-15.233 9.732zm.31-16.452c-1.547 0-3.171 1.004-3.171 3.167 0 1.467.542 2.394 1.238 2.858v-3.785c0-.541.541-1.004 1.159-1.004h3.248c-.541-.85-1.469-1.236-2.474-1.236z"/>
    <path fill="#C59D6E" d="M135.239 190.333c6.573 0 13.068 3.476 14.305 10.273h-10.361c-.773-1.236-2.165-1.931-3.634-1.931-2.165 0-4.331 1.39-4.331 4.171 0 3.244 2.243 4.402 4.485 4.402 1.16 0 2.784-.463 3.248-1.39h-4.176v-3.939h14.924c0 1.545.077 2.703-.387 4.248-1.701 5.947-7.887 8.96-14.073 8.96-7.191 0-14.382-4.017-14.382-12.358 0-8.265 7.191-12.436 14.382-12.436zm0-2.008c-8.273 0-16.702 4.943-16.779 14.521.077 9.5 8.428 14.366 16.702 14.366 6.65 0 14.228-3.244 16.315-10.504.464-1.7.464-2.935.464-4.403v-.386c0-.309-.077-.541-.154-.772.077-.232.077-.541.077-.85-1.469-8.187-9.434-11.895-16.625-11.972z"/>
    <path fill="#2D2D34" d="M170.576 215.745c-.464 0-.928-.232-1.082-.695l-.928-2.086c-2.32 0-4.64-.077-6.959-.077-.31.695-.619 1.39-.851 2.085-.155.387-.618.618-1.082.618-3.635 0-7.269-.077-10.903-.077-.619 0-1.16-.463-1.16-1.004v-.927c0-.154 0-.231.077-.386 3.48-7.646 6.96-15.216 10.439-22.862.155-.386.619-.618 1.083-.618 3.943 0 7.964 0 11.908.077.463 0 .927.232 1.082.618a3381.41 3381.41 0 0110.439 23.171c.077.155.077.232.077.386v.927c0 .541-.541 1.004-1.16 1.004-3.711 0-7.346-.077-10.98-.154zm-5.335-10.891c-.077-.154-.077-.309-.155-.54-.077.154-.077.309-.154.54h.309z"/>
    <path fill="#C59D6E" d="M171.04 190.875a3381.41 3381.41 0 0110.439 23.171v.927c-3.634-.078-7.268-.155-10.903-.155l-1.16-2.78c-2.861 0-5.722-.078-8.582-.078-.387.927-.774 1.777-1.16 2.704-3.635 0-7.269-.078-10.903-.078v-.926c3.48-7.647 6.959-15.216 10.439-22.863 3.866 0 7.887 0 11.83.078zm-7.577 14.984h3.17c-.541-2.009-1.083-3.939-1.624-5.948-.464 2.009-1.005 3.939-1.546 5.948zm7.577-17.07c-3.943 0-7.964 0-11.908-.077-.927 0-1.778.463-2.165 1.236-3.479 7.646-6.959 15.215-10.438 22.862-.078.232-.155.463-.155.772v.927c0 1.082 1.005 2.008 2.32 2.008 3.634 0 7.268 0 10.902.078 1.006 0 1.856-.541 2.165-1.313.232-.464.387-.927.619-1.391 1.778 0 3.557 0 5.335.078.232.463.387.926.619 1.467.309.772 1.237 1.313 2.165 1.313 3.634.077 7.268.077 10.903.155 1.314 0 2.319-.85 2.319-2.009v-.926c0-.232-.077-.541-.154-.773a3381.41 3381.41 0 00-10.439-23.171c-.232-.695-1.16-1.236-2.088-1.236z"/>
    <path fill="#2D2D34" d="M203.516 216.442c-.618 0-1.159-.463-1.159-1.081v-5.33-.154c.077-.386.077-.772.154-1.159-.464.618-.928 1.236-1.314 1.854-.232.309-.542.464-1.006.464-1.237 0-2.474-.078-3.711-.078-.387 0-.773-.154-1.005-.463-.464-.618-.928-1.236-1.315-1.854.078.386.078.773.155 1.159v5.484c0 .54-.541 1.004-1.16 1.004l-10.439-.232c-.618 0-1.16-.463-1.16-1.004V191.34c0-.541.542-1.004 1.16-1.004 3.403 0 6.805 0 10.207.077.387 0 .696.155.928.464 1.469 1.853 2.938 3.784 4.485 5.715 1.469-1.854 2.938-3.784 4.484-5.638.232-.309.542-.464.928-.464 3.403 0 6.805 0 10.13.078.618 0 1.16.463 1.16 1.081v24.407c0 .541-.542 1.004-1.16 1.004-3.48-.386-6.882-.541-10.362-.618z"/>
    <path fill="#C59D6E" d="M213.878 191.337v24.329c-3.48-.077-6.96-.231-10.362-.308v-5.407l.696-5.561c-1.314 1.853-2.706 3.707-4.021 5.484-1.237 0-2.474-.078-3.711-.078-1.392-1.853-2.707-3.784-4.098-5.638.232 1.854.463 3.707.773 5.561v5.33l-10.439-.232v-23.789c3.325 0 6.882 0 10.207.077 1.778 2.317 3.634 4.557 5.412 6.874 1.779-2.24 3.635-4.557 5.413-6.797 3.248.155 6.805.155 10.13.155zm0-2.086c-3.403 0-6.805 0-10.13-.077-.773 0-1.469.309-1.933.85l-3.48 4.402c-1.159-1.467-2.319-3.012-3.479-4.48-.464-.54-1.16-.849-1.933-.849-3.402 0-6.805 0-10.207-.077-1.314 0-2.32.926-2.32 2.008v23.712c0 1.158 1.006 2.085 2.32 2.085l10.439.232c1.314 0 2.319-.85 2.319-2.008v-3.476c.31.154.619.232 1.006.232 1.237 0 2.474.077 3.711.077.387 0 .696-.077 1.005-.155v3.476c0 1.159 1.006 2.085 2.32 2.163 3.48.077 6.959.231 10.362.309 1.314.077 2.319-.85 2.319-2.009v-24.407c0-1.081-1.082-2.008-2.319-2.008z"/>
    <path fill="#2D2D34" d="M216.043 216.826c-.619 0-1.16-.541-1.16-1.081v-24.407c0-.541.541-1.082 1.16-1.004 7.191.077 14.459.077 21.65.154.619 0 1.16.463 1.16 1.081v7.415c0 .464-.309.85-.696 1.004.155.155.31.464.31.695v6.952c0 .231-.078.463-.232.695a1.1 1.1 0 01.696 1.004v7.415c0 .618-.542 1.081-1.16 1.004-7.269-.386-14.537-.695-21.728-.927z"/>
    <path fill="#C59D6E" d="M237.693 191.492v7.337c-3.711-.077-7.423-.154-11.134-.154v1.622c3.557.077 7.191.154 10.748.232v6.951c-3.557-.077-7.191-.232-10.748-.309v1.622c3.711.077 7.423.232 11.134.309v7.337c-7.191-.308-14.459-.54-21.65-.772V191.26c7.191.155 14.382.232 21.65.232zm0-2.086c-7.191 0-14.459-.077-21.65-.077-1.315 0-2.32.927-2.32 2.086v24.329c0 1.159 1.005 2.086 2.32 2.163 7.191.232 14.459.541 21.65.85 1.315.077 2.32-.85 2.32-2.086v-7.415a2.1 2.1 0 00-.464-1.313v-.386-7.028-.387c.309-.386.464-.772.464-1.313v-7.414c0-1.082-1.082-2.009-2.32-2.009z"/>
    <path fill="#2D2D34" d="M251.921 218.989c-8.429-.464-13.841-4.712-13.918-10.968 0-.309.154-.541.309-.772.232-.232.541-.309.85-.309 1.779.077 3.635.077 5.413.154-3.48-1.158-6.495-3.398-6.495-8.264 0-5.33 5.799-9.114 13.763-9.114 8.274 0 13.532 3.862 13.687 10.041 0 .309-.078.618-.31.772-.232.232-.541.309-.85.309-2.397-.077-4.871-.154-7.269-.154 4.563.926 8.893 3.089 8.893 8.882 0 6.411-5.258 9.886-14.073 9.423zm-1.083-10.582c0 .155 0 .464 1.237.541.696 0 .928-.077 1.006-.155-.078-.077-.464-.231-1.547-.386h-.696zm1.237-8.959c-.464 0-.927.154-.927.309 0 .154.232.231.618.231.464.078 1.005.078 1.547.155-.078-.155-.155-.309-.155-.464-.232-.077-.541-.231-1.083-.231z"/>
    <path fill="#C59D6E" d="M251.844 190.875c6.959 0 12.371 2.935 12.526 8.959l-10.207-.232c0-.772-1.082-1.235-2.087-1.235-.928 0-2.088.309-2.088 1.39 0 .849.773 1.313 1.624 1.39 5.644.541 13.222 1.39 13.222 8.496 0 6.952-6.882 8.574-12.99 8.265-6.728-.309-12.681-3.476-12.759-9.809 3.48.077 7.037.231 10.516.308 0 1.236 1.16 1.622 2.397 1.622 1.16.078 2.165-.231 2.165-1.158 0-.85-.618-1.236-2.551-1.545-5.877-.695-12.295-1.776-12.295-8.419 0-5.097 5.877-8.032 12.527-8.032zm0-2.163c-8.661 0-14.924 4.248-14.924 10.195 0 3.321 1.315 5.484 3.17 7.029h-1.005c-.618 0-1.237.232-1.624.618-.464.386-.695.927-.695 1.545.077 6.874 5.953 11.585 15.078 12.049 9.433.54 15.31-3.399 15.31-10.35 0-3.244-1.315-5.87-3.866-7.647h1.082c.619 0 1.237-.231 1.624-.618.464-.386.696-1.004.696-1.622-.155-6.951-5.799-11.199-14.846-11.199zM148.991 177.81c-.329-.109-.549-.219-.878-.219-.549-.22-1.098-.33-1.648-.549-1.427-.44-2.855-.879-4.283-1.538-2.636-1.098-5.381-2.526-8.127-4.503-2.526-1.757-4.833-3.844-6.919-6.15l1.208 7.358-8.347-5.821c-.439-.109-.988-.219-1.757-.659-2.856-1.757-5.382-4.283-7.249-7.248l.11 1.757-7.798-5.711c-8.017-5.821-13.838-12.63-17.572-20.428l1.208 6.7c-.33-.44-5.382-6.37-5.711-6.81-.659-1.098-1.428-2.196-2.087-3.404-1.318-2.197-2.745-4.833-4.173-7.469-.989-1.757-1.867-3.734-2.746-5.711a143.802 143.802 0 01-3.295-7.907c-.769-2.087-1.428-4.064-2.086-6.041l-.11-.768c-.55-1.868-1.208-3.844-1.757-5.931-.33-1.428-.66-2.965-.88-4.393-.109-.44-.109-.989-.219-1.428-.11-.44-.22-.988-.22-1.428-.22-1.427-.549-2.855-.658-4.393-.22-2.416-.55-5.272-.55-8.237 0-2.087.22-4.064.33-5.93 0-.55.11-1.099.11-1.648v-.769c.11-1.537.22-3.075.549-4.722.33-1.867.769-3.735 1.318-5.821.44-1.757.988-3.405 1.428-5.052l.33-1.208-.11-.55-.11-.11c-1.099-.878-2.197-1.757-3.295-2.745A48.256 48.256 0 0153.66 38.11a65.498 65.498 0 01-3.624-6.37c-.659-1.318-.879-2.526-1.208-3.624l-.11-.66c-.22-.768-.33-1.537-.55-2.305l-.109-1.319V19.33c0-.439.11-1.098.33-1.757.659-2.306 1.867-5.6 4.393-8.566 2.526-2.966 5.381-4.942 8.676-5.711 1.538-.44 3.075-.55 4.723-.55 2.745 0 5.6.55 8.786 1.868 2.636.988 4.832 2.526 6.919 3.844.44.33.879.549 1.318.878 1.757 1.099 3.404 2.416 4.942 3.515.55.44 1.098.878 1.647 1.208l.55.44c1.208-1.429 2.526-2.746 3.953-3.845 1.318-.988 2.746-2.086 4.394-3.295 2.086-1.427 4.612-2.526 7.578-3.514 1.757-.55 3.404-.988 5.161-1.318.44-.11.879-.22 1.428-.33.989-.22 1.867-.439 2.856-.658l1.427-.33 4.943-.549c1.647-.22 3.404-.33 5.052-.44l.769-.11.549-.109h10.763l.549.11c.11 0 .22 0 .329.11l4.284.33 6.15.438v.22h.439c1.758.33 3.515.66 5.821 1.208.439.11.769.22 1.208.22 1.318.22 2.746.549 4.174 1.098 1.867.769 4.393 1.757 6.699 3.295 2.416 1.538 4.613 3.185 6.59 5.052.769.769 1.537 1.538 2.196 2.306l.769-.659a28.095 28.095 0 012.856-2.196c1.977-1.428 3.844-2.746 5.601-3.844 1.318-.879 2.745-1.757 4.393-2.526 1.757-.769 3.405-1.428 5.052-1.867 1.647-.44 3.405-.769 5.272-.769h.549c3.404.11 6.26.988 8.786 2.526 2.087 1.318 3.844 2.965 5.162 4.832 1.208 1.758 2.526 3.844 3.185 6.59.329 1.318.549 2.526.659 3.734.219 1.977 0 3.954-.439 6.37a28.727 28.727 0 01-2.636 7.249c-1.867 3.514-3.734 6.15-5.931 8.347l-.22.22c-2.086 2.086-4.173 4.283-6.37 6.37a44.079 44.079 0 01-2.855 2.306v.439c1.428 3.624 2.746 9.555 2.746 9.555.878-1.867 2.086-4.942 2.086-4.942.33.878 2.636 7.029 2.856 8.127.11.988.329 1.977.439 2.856.22 1.317.33 2.525.549 3.624.549 3.185.659 6.26.659 8.896 0 2.416-.219 4.722-.439 6.919l-.11.769c-.22 1.867-.329 3.734-.769 5.71-.549 2.307-1.208 4.614-1.977 6.7-.659 1.867-1.318 3.624-1.977 5.162-.549 1.208-1.098 2.416-1.647 3.515l-.11.219c-1.098 2.087-2.087 4.283-3.185 6.37-.329.769-.769 1.428-1.208 2.197-.549.988-.988 1.867-1.428 2.745-1.098 2.197-2.086 4.503-2.965 6.59-.659 1.538-1.098 3.075-1.538 4.393a20.452 20.452 0 00-.659 3.734c-.109 1.758-.219 3.625-.109 5.492 0 .988.109 2.855-1.428 4.393-.989.988-2.306 1.537-3.844 1.537h-.549c-1.757-.11-3.075-.329-4.393-.659-.989-.329-2.526-.878-3.844-1.977l-.22.22c-1.537 1.538-3.075 2.965-4.283 4.503-1.208 1.538-2.307 3.295-3.075 5.272-.879 2.196-1.318 3.844-1.428 5.491v2.416l-.659 5.821-5.052-.988-1.867-1.428c-.659-.549-1.208-1.098-1.757-1.647 0 .109 2.635 7.248 2.635 7.248l-7.358-1.208-.988-.11a86.74 86.74 0 01-2.087-.329c-.11 0-.22 0-.439-.11.219.329.549.769.768 1.098l.33.33.549.549 6.37 9.115-11.093-1.867z"/>
    <path fill="#2D2D34" d="M196.766 52.498c2.746 6.92 4.723 13.949 4.723 21.527 1.538-3.515 1.977-7.14 2.526-10.873.22.768.549 1.537.659 2.306.329 2.197.659 4.393.988 6.7.44 2.745.55 5.381.55 8.127 0 2.416-.22 4.942-.44 7.358a39.704 39.704 0 01-.659 5.052c-.439 2.087-1.208 4.284-1.867 6.37-.549 1.648-1.208 3.295-1.867 4.833-.439 1.208-1.098 2.306-1.647 3.514-.989 2.087-2.087 4.174-3.185 6.26-.879 1.758-1.867 3.405-2.746 5.052a132.005 132.005 0 00-3.075 6.919 43.594 43.594 0 00-1.648 4.943c-.439 1.427-.659 2.965-.768 4.503-.11 1.977-.22 3.953-.22 5.93 0 1.208 0 1.428-1.208 1.318-1.098-.11-2.306-.219-3.405-.549-.878-.22-1.757-.659-2.416-1.318-.769-.659-1.318-1.647-1.977-2.526-.11.11-.329.22-.439.33-1.098.878-2.197 1.647-3.185 2.635-1.648 1.648-3.405 3.295-4.833 5.053-1.537 1.976-2.855 4.063-3.734 6.37-.878 2.196-1.537 4.502-1.647 6.919v2.635c-.11 0-.11 0-.22.11-5.381-4.612-6.37-10.543-4.832-17.133-2.526 2.746-4.283 5.821-5.052 9.445-.769 3.735-.11 7.359 1.208 11.093a31.949 31.949 0 00-2.965-.439c-1.318-.22-2.526-.769-3.735-1.538-1.098-.659-1.867-1.647-2.526-2.636-.439-.549-.878-.549-1.208.11-.11.22-.219.439-.329.769-.549 2.636-.11 5.052 1.098 7.358.659 1.318 1.757 2.526 2.636 3.844.329.44.659.769 1.098 1.208-.549-.11-.878-.219-1.098-.329-1.867-.659-3.844-1.208-5.711-1.977-2.636-.989-4.942-2.416-7.249-4.064-2.306-1.647-4.393-3.514-6.37-5.601-2.526-2.855-4.283-6.04-5.601-9.665-.439-1.318-1.098-2.636-2.416-3.514-.659-.549-1.318-.33-1.428.439-.439 1.648-.878 3.405-.988 5.052-.22 2.746.329 5.382 1.428 8.018-.33-.11-.55-.11-.769-.22-2.636-1.647-4.613-3.844-6.151-6.37-1.098-1.867-2.196-3.844-3.075-5.931-.659-1.427-1.098-2.965-1.647-4.503a117.5 117.5 0 00-1.098-3.404c-1.868 2.855-2.856 5.821-2.526 9.225-10.763-7.907-17.793-18.011-20.209-31.081-.549 2.197-.988 4.393-.768 6.7.11 2.196.549 4.393.878 6.589-.988-1.537-1.977-3.075-2.855-4.613a157.866 157.866 0 01-4.064-7.358 50.402 50.402 0 01-2.636-5.491c-1.098-2.526-2.196-5.052-3.185-7.688-.769-2.087-1.428-4.174-2.087-6.26-.659-1.977-1.208-3.954-1.757-5.931-.44-1.757-.659-3.624-.988-5.491-.33-1.867-.769-3.625-.879-5.492-.22-2.636-.44-5.272-.44-7.797 0-2.417.22-4.833.44-7.25.11-1.646.22-3.404.55-5.051.329-1.867.768-3.625 1.317-5.382.66-2.416 1.428-4.722 2.087-7.029l-.33-3.294c-1.647-1.318-3.294-2.636-4.832-3.954-3.295-2.746-6.15-5.821-8.567-9.336-1.208-1.867-2.306-3.843-3.294-5.82-.55-1.099-.77-2.197-1.099-3.405l-.659-2.965v-3.295c.11-.55.11-.989.22-1.428.769-2.526 1.757-4.942 3.515-7.029 1.757-2.087 3.734-3.624 6.37-4.283 3.734-.989 7.248-.33 10.763 1.098 2.745 1.098 5.052 2.746 7.468 4.393 2.197 1.428 4.283 3.075 6.37 4.613 1.208.879 2.416 1.757 3.404 2.746.44.439.55.33.88-.11 1.537-2.307 3.294-4.393 5.49-6.15 1.319-1.099 2.746-2.087 4.174-3.076 1.977-1.318 4.173-2.306 6.48-3.075 2.086-.659 4.173-1.098 6.26-1.537 1.318-.33 2.636-.55 3.954-.88l4.722-.438c1.977-.22 3.844-.33 5.821-.55.33 0 .659-.11.989-.11h9.445c.219 0 .439.11.659.11 1.977.22 4.063.33 6.04.44v.11l4.833.549c1.867.33 3.734.769 5.491 1.208 1.647.44 3.295.659 4.832 1.208a38.054 38.054 0 016.041 2.855c2.087 1.318 4.173 2.856 5.931 4.503 1.537 1.428 2.745 3.185 4.063 4.833.11.22.549.33.659.33l3.295-2.637c1.098-.878 2.196-1.757 3.405-2.635 1.757-1.318 3.624-2.527 5.491-3.735 1.208-.768 2.526-1.647 3.844-2.196 1.428-.66 2.855-1.208 4.283-1.538 1.428-.33 2.965-.659 4.503-.659 2.306.11 4.613.55 6.59 1.867 1.537.989 2.855 2.197 3.844 3.625 1.098 1.537 1.977 3.185 2.526 5.162.219 1.098.439 2.086.549 3.185.219 1.757 0 3.404-.33 5.052-.439 2.196-1.208 4.173-2.196 6.04-1.428 2.636-3.075 5.162-5.162 7.358a174.795 174.795 0 01-6.37 6.37c-1.208 1.099-2.636 2.087-4.064 3.185l-.659 3.185z"/>
    <path fill="#3F3F47" d="M139.217 161.445a32.72 32.72 0 01-4.064-3.734c-1.757-1.867-3.075-4.283-4.283-7.468-.659-1.867-1.977-4.613-4.723-6.59-1.427-.988-2.965-1.537-4.612-1.537-2.087 0-4.064.878-5.382 2.416a5.392 5.392 0 00-.439-1.208c-.22-.659-.44-1.318-.659-2.087l-4.723-14.277-7.358 11.532c-.22.329-.33.549-.549.878-5.382-5.821-8.787-12.63-10.214-20.428l-7.359-.219c-.11-.11-.11-.22-.22-.44-.878-1.537-1.647-3.185-2.416-5.052-1.317-2.965-2.306-5.271-3.075-7.358-.659-1.757-1.208-3.515-1.867-5.382l-.22-.878c-.549-1.867-1.098-3.515-1.537-5.272a114.94 114.94 0 01-.659-3.624c-.11-.55-.22-.989-.22-1.538-.11-.55-.22-1.098-.33-1.538-.219-1.208-.439-2.306-.548-3.404-.22-2.197-.44-4.723-.44-7.139 0-1.537.11-3.185.33-4.942 0-.55.11-1.208.11-1.757l.11-.77c.11-1.317.22-2.525.329-3.624.22-1.427.659-2.965 1.098-4.832.44-1.647.879-3.185 1.428-4.832l.989-3.295-.77-7.249-3.624-2.965c-1.098-.879-2.196-1.757-3.185-2.636-2.855-2.306-5.271-5.052-7.358-8.017-1.098-1.538-1.977-3.405-2.855-5.052-.11-.22-.22-.879-.44-1.428l-.22-.769-.329-1.647c0-.11 0-.22-.11-.33v-2.306c.66-1.977 1.318-3.295 2.197-4.393 1.318-1.538 2.306-1.977 2.965-2.197.659-.11 1.208-.22 1.867-.22 1.318 0 2.965.33 4.832 1.099 1.538.659 3.186 1.647 4.833 2.855.44.33.879.66 1.428.879 1.427.879 2.745 1.977 4.173 3.075.55.44 1.208.879 1.757 1.318l.66.55c.878.658 1.647 1.207 2.196 1.756 1.428 1.318 3.185 2.087 4.942 2.087 1.428 0 3.954-.44 5.93-3.295 1.319-1.977 2.637-3.514 4.064-4.612a44.848 44.848 0 013.844-2.746c1.208-.879 2.746-1.538 4.723-2.197 1.318-.439 2.746-.768 4.173-1.098.549-.11.989-.22 1.538-.33.879-.22 1.647-.329 2.526-.549l.879-.22 4.393-.439c1.647-.22 3.185-.329 4.942-.439l.769-.11c.329 0 .768-.11.988-.11h8.018c.219 0 .549.11.988.11 1.428.11 2.965.22 4.393.33l1.428.22 4.503.549c1.867.33 3.624.768 4.942 1.098.439.11.988.22 1.428.33.988.219 1.867.439 2.526.658 2.196.879 3.624 1.538 4.942 2.307 1.867 1.098 3.514 2.416 4.942 3.734.659.549 1.318 1.428 1.977 2.416.439.659.989 1.208 1.538 1.867 1.427 1.648 3.514 2.636 5.601 2.636h2.196l1.867-1.318c.769-.55 1.538-1.208 2.307-1.757.329-.33 1.757-1.428 1.757-1.428.879-.659 1.647-1.318 2.416-1.867a241.896 241.896 0 015.272-3.624c1.098-.66 2.087-1.318 3.075-1.758 1.098-.549 2.197-.878 3.075-1.208.549-.11 1.758-.439 2.526-.439 1.538.11 2.636.33 3.405.879.879.549 1.538 1.098 1.867 1.757.879 1.318 1.318 2.196 1.538 2.965.219.769.329 1.538.439 2.197.11.878 0 1.757-.22 3.075-.329 1.428-.878 2.855-1.537 4.283-1.318 2.526-2.636 4.393-4.064 5.821l-.11.11c-2.086 2.087-4.063 4.173-6.04 6.04-.549.55-1.318 1.099-2.197 1.758-.439.33-.988.659-1.428 1.098l-2.086 1.647-.989 7.688.659 1.538c2.966 7.578 4.284 13.399 4.284 19.11l4.502.988c.22 1.757.22 3.625.22 5.272 0 1.867-.22 3.844-.329 5.93l-.11.88a39.01 39.01 0 01-.549 4.173c-.44 1.867-1.099 3.844-1.648 5.71-.549 1.538-1.098 3.076-1.647 4.394-.33.878-.879 1.867-1.318 2.855l-.11.22c-.988 2.087-2.087 4.173-3.075 6.15l-.989 1.977c-.549 1.098-1.208 2.197-1.757 3.295-1.208 2.416-2.196 4.832-3.185 7.249a89.058 89.058 0 00-1.977 5.711c-.219.659-.329 1.427-.439 2.196l-1.647-2.087-5.272 3.625c-.22.11-.549.329-.879.659-.329.219-.549.439-.878.659-.879.659-1.867 1.427-2.746 2.306l-.22.22c-.768.768-1.647 1.647-2.526 2.416l3.734-16.694-16.693 18.231c-3.405 3.735-5.601 7.908-6.59 12.631-.11.329-.11.659-.22.988-.659-.22-1.208-.22-1.867-.22-2.855 0-5.381 1.648-6.589 4.393-.22.33-.549 1.099-.769 2.087.22.22.11.659.11 1.098z"/>
    <path fill="#C59D6E" d="M75.297 39.647c.22-1.428.55-3.075.77-4.503l-.77-3.734c-4.173-2.636-8.566-5.382-11.202-9.665-3.624 7.688 5.491 14.278 11.202 17.902zM202.258 23.175c-.22-.77-.55-1.428-.989-2.087-2.526 4.832-6.26 7.688-10.324 10.873l-.549 4.063a103.899 103.899 0 011.538 4.284c5.052-4.064 11.971-9.885 10.324-17.133zM145.477 120.26c2.197 0 4.393-.769 6.15-2.087l2.636-1.977c1.758-1.318 3.185-2.965 3.954-5.052.769-2.306 1.098-4.722 1.098-7.138v-1.538c.659.988 1.208 1.757 1.758 2.636.439-1.208.988-2.197 1.318-3.295.658-2.197 1.317-4.503 1.757-6.7.439-2.086.988-4.173 1.098-6.26.11-2.855.11-5.71-.22-8.566a58.782 58.782 0 00-1.647-8.567c-.879-3.185-2.197-6.26-3.734-9.335-1.977-3.954-4.283-7.688-7.029-11.093-.22-.329-.33-.768-.22-1.208.549-2.306 2.197-3.844 4.064-4.942 2.306-1.428 4.722-2.526 7.139-3.734.768-.44 1.537-.769 2.306-1.208 0-.11-.11-.22-.11-.44-1.318.22-2.746.33-4.063.66a43.47 43.47 0 00-4.943 1.647 140.38 140.38 0 00-7.138 3.185c-.879.44-1.318 1.098-2.636.44-1.977-.99-4.284-1.319-6.59-1.319-.439 0-1.098-.33-1.208-.659-.549-1.098-.988-2.306-1.208-3.624-.439-1.977-.659-3.844-.879-5.82-.329-2.527-.549-5.053-.878-7.579-.11-1.318-.11-2.636-.22-4.064 0-.549-.22-1.098-.33-1.537h-.219l-.659 7.578c-.11 1.538-.22 3.075-.439 4.613-.44 3.075-1.099 6.15-1.758 9.115-.329 1.648-.988 1.977-2.745 1.977-.659 0-1.428.11-2.087.22-1.428.33-3.075.33-4.283 1.428-.11.11-.44.11-.659 0-1.208-.66-2.307-1.428-3.515-1.977-2.196-.989-4.393-1.757-6.589-2.636-.769-.33-1.977-.659-2.856-.879-1.538-.33-2.965-.878-4.832-.549.549.33.878.55 1.208.66 2.745 1.427 5.601 2.745 8.347 4.282 1.647.88 2.965 2.307 3.953 3.954.55.879.33 1.758-.219 2.636-1.208 1.757-2.526 3.405-3.625 5.162-1.208 1.867-2.306 3.954-3.294 5.93-.989 1.868-1.867 3.735-2.526 5.712-1.318 3.844-2.087 7.797-2.636 11.751-.11.879-.22 1.867-.22 2.746-.22 4.173-.11 8.237 1.098 12.3.55 1.868.989 3.845 1.648 5.821.439 1.318.878 2.636 1.428 4.064.659-.879 1.098-1.757 1.757-2.636-.11 2.965.11 5.711.988 8.347.659 1.977 1.867 3.624 3.405 4.942 1.098.879 2.196 1.757 3.405 2.636a10.846 10.846 0 006.26 1.977h19.439z"/>
    <path fill="#C59D6E" d="M157.338 50.738c.22.11.22.22.44.33 2.635 1.208 5.381 2.196 8.346 2.636 2.307.329 4.394.11 6.151-1.209 1.318-.988 2.526-2.306 3.624-3.514.769-.879 1.318-1.977 1.977-2.965-.11-.11-.22-.22-.329-.22-.55.44-1.099.879-1.538 1.428-1.538 1.867-3.295 3.514-5.601 4.063-3.185.769-6.48.33-9.555-.768-1.318-.55-2.307-.44-3.515.22zM114.176 50.74v-.33c-.659-.11-1.427-.44-2.086-.33-1.868.33-3.625.989-5.492 1.099-1.867.22-3.734.22-5.491-.22-2.306-.55-3.954-2.087-5.492-3.954-.439-.55-.878-1.428-1.976-1.318.988 1.318 1.757 2.636 2.635 3.844 1.867 2.416 4.174 4.283 7.359 4.064 2.416-.22 4.832-.879 7.248-1.538 1.209-.11 2.197-.769 3.295-1.318z"/>
    <path fill="#C59D6E" d="M106.708 47.006l-3.624-2.636c-.879.879-.879 2.306.549 3.405.769.769 2.416.22 3.075-.769zM164.807 47.006c.439 1.099 1.427 1.099 2.526.989.878-.11 1.318-.769 1.537-1.648.33-.878 0-1.537-.439-2.086-1.208.988-2.416 1.867-3.624 2.745z"/>
    <path fill="#2D2D34" d="M138.338 104.115s16.365-2.307 16.365 1.977c0 0 1.647-4.174-4.723-5.162-6.26-.989-9.335-.989-9.335-.989l6.04-20.757s3.844 1.428 3.515 4.064c-.33 2.635 12.959-4.174.439-10.214-12.52-5.931-4.832-7.14-12.52-5.931h-2.856c-7.578-1.098 0 0-12.41 6.04-12.411 6.04.768 12.74.439 10.214-.329-2.635 3.514-4.063 3.514-4.063l6.041 20.647s-3.075 0-9.335.989c-6.26.988-4.723 5.162-4.723 5.162 0-4.174 16.364-1.977 16.364-1.977h3.185zM136.691 50.737c1.098 2.636 3.405 3.844 5.931 4.723 3.185 1.208 6.479 1.977 9.445 3.734.549.33 1.098.879 1.647 1.318-11.422-4.723-22.844-4.723-34.266-.11.769-.549 1.538-1.318 2.416-1.647 2.307-.989 4.723-1.758 7.139-2.746 2.087-.879 4.283-1.318 5.931-3.075.659-.66 1.208-1.428 1.757-2.197z"/>
</svg>