<svg xmlns="http://www.w3.org/2000/svg" width="135" height="142" fill="none" viewBox="0 0 135 142">
    <path fill="#fff" d="M134.972 71.738c.056-.78-.39-1.558-1.141-1.947a780.878 780.878 0 00-28.052-14.381c-1.336-.668-2.171-1.947-2.115-3.31l1.419-34.603c.028-.779-.473-1.53-1.28-1.92A863.183 863.183 0 0069.684.252a2.748 2.748 0 00-2.198 0A823.128 823.128 0 0033.395 15.55c-.807.39-1.308 1.14-1.28 1.919l.25 6.092c.056 1.335-.779 2.614-2.143 3.282A790.274 790.274 0 001.17 41.697c-.78.417-1.225 1.196-1.17 1.974.251 3.005.474 5.98.724 8.985.223 2.615 4.87 2.392 4.676-.362-.195-2.614 2.755-4.561 5.51-3.616 6.178 2.17 12.3 4.423 18.367 6.732 4.258 1.613 8.99-1.28 8.85-5.452l-.835-23.505c-.111-2.642 3.061-4.478 5.844-3.365a816.188 816.188 0 0120.817 8.65c1.391.585 2.254 1.836 2.254 3.172l.083 34.491c0 .779.501 1.53 1.28 1.864A816.182 816.182 0 0195.705 84.56c1.28.64 2.087 1.92 2.031 3.282-.25 6.732-.473 13.463-.723 20.194-.112 2.643-3.034 4.256-5.455 3.032a805.931 805.931 0 00-21.985-10.737c-1.447-.667-3.172.362-3.172 1.864l.083 29.04c0 2.642-2.81 4.367-5.204 3.226a699.384 699.384 0 00-18.45-8.595c-1.253-.556-2.088-1.78-2.116-3.115-.39-11.432-.807-22.865-1.197-34.297-.027-.807-.556-1.502-1.335-1.836C28.72 82.781 19.09 79.11 9.35 75.576c-1.391-.5-2.337-1.669-2.42-3.032-.223-3.06-.446-6.091-.696-9.151-.195-2.615-4.815-2.392-4.592.362l1.002 12.684c.055.806.612 1.474 1.419 1.78a769.56 769.56 0 0128.803 10.848c1.336.529 2.227 1.752 2.282 3.115.473 11.405.919 22.837 1.392 34.242a2.074 2.074 0 001.252 1.808c9.573 4.256 19.008 8.65 28.275 13.24a5.78 5.78 0 005.065 0c2.727-1.335 5.454-2.67 8.21-4.005 2.448-1.169.612-4.924-1.838-3.756l-1.586.751c-2.393 1.169-5.204-.556-5.204-3.226.028-6.648.028-13.296.056-19.944 0-2.643 2.922-4.367 5.37-3.171a764.66 764.66 0 0118.507 9.235c1.253.64 2.004 1.919 1.948 3.254l-.083 2.114a3.547 3.547 0 01-2.115 3.116c-1.976.89-3.924 1.78-5.872 2.67-2.45 1.113-.612 4.896 1.809 3.783a449.16 449.16 0 019.1-4.089c.724-.334 1.224-1.029 1.252-1.808.084-1.919.167-3.811.223-5.73a3.553 3.553 0 012.087-3.06 734.962 734.962 0 0128.191-12.211c.752-.306 1.253-.974 1.308-1.752.807-10.654 1.642-21.28 2.477-31.905zm-38.293-16.69a927.133 927.133 0 00-20.12 8.456c-2.617 1.14-5.678-.584-5.678-3.226.028-8.456.056-16.94.056-25.396 0-1.363.89-2.587 2.254-3.171a931.59 931.59 0 0120.816-8.651c2.783-1.113 5.956.723 5.844 3.366-.306 8.511-.612 16.995-.89 25.507 0 1.363-.89 2.559-2.282 3.115zm6.15 3.616a883.69 883.69 0 0117.783 8.93c2.839 1.473 2.616 5.256-.362 6.397a900.28 900.28 0 00-18.339 7.343c-1.086.445-2.366.417-3.423-.111a867.487 867.487 0 00-17.7-8.567c-2.866-1.336-2.838-5.119.084-6.398a778.25 778.25 0 0118.45-7.705c1.142-.445 2.45-.417 3.507.111zM70.492 5.23a870.12 870.12 0 0119.396 8.567c3.034 1.391 2.923 5.146-.166 6.37a850.15 850.15 0 00-19.286 8.039c-1.141.5-2.505.5-3.646 0a849.959 849.959 0 00-19.286-8.039c-3.089-1.224-3.2-4.979-.166-6.37 6.4-2.92 12.857-5.785 19.396-8.567a4.65 4.65 0 013.758 0zM27.718 50.264a661.646 661.646 0 00-12.412-4.534c-3.09-1.085-3.367-4.868-.445-6.37a808.764 808.764 0 0112.022-6.064c2.644-1.307 5.928.278 6.011 2.92.14 3.533.278 7.066.445 10.599.084 2.614-2.922 4.45-5.621 3.449zm73.692 57.579c.278-6.62.529-13.268.807-19.889.056-1.335.918-2.559 2.254-3.087 6.568-2.726 13.219-5.34 19.926-7.9 2.644-1.001 5.566.918 5.371 3.56l-1.419 19.36c-.084 1.308-.947 2.476-2.227 3.004a765.662 765.662 0 00-19.369 8.373c-2.56 1.113-5.454-.723-5.343-3.421z"/>
</svg>