<svg xmlns="http://www.w3.org/2000/svg" width="165" height="148" fill="none" viewBox="0 0 165 148">
    <path fill="#FF8E7B" d="M161.328 116.51c-12.8-28.4-43.7-43.3-72.8-33.5-.5.2-1 .3-1.4.5-9.6 3.5-18.6 10.8-19.1 21.6-.8 14.3 15.9 26.3 26.4 32.5 19.6 11.7 85.4 19.8 66.9-21.1z"/>
    <path fill="#FFFBE9" d="M147.928 118.31c-.9-.9-2.6-.9-3.7-.4-.9.4-1.8 1.4-.9 2.2.9.9 2.6.9 3.7.4.9-.4 1.8-1.4.9-2.2zM140.928 124.71c.1-.2.1-.4.2-.6.6-1.7-2.6-1.5-3.4-1-.2.1-.5.3-.7.4-1.2.7-.4 1.9.5 2.2.9.2 3 .2 3.4-1zM137.928 119.511c.3-.1.5-.3.6-.6.3-.7-.3-1.2-.8-1.4-.1 0-.1-.1-.2-.1 0 0-.1 0-.1-.1h-1c-.4 0-.8.1-1.2.3-.5.2-.9.5-.8 1 0 .1.1.2.1.3v.1c.5.8 1.7 1.1 2.6.9h.2c.2-.2.4-.3.6-.4zM155.128 129.21c0-1.4-2.3-1.5-3.2-1.3-1.2.2-2.7 1.7-1 2.5.8.4 1.4.9 2.4.7 1-.2 1.8-.9 1.8-1.9zM140.728 137.51c0-1-1.1-1.6-1.9-1.9-1.9-.6-5.1-.2-5.5 2.1v.2c-.1.9 1.2 1.6 1.8 1.8 1.1.4 2.5.3 3.6-.1.1 0 .1-.1.2-.1.9-.3 1.9-.9 1.8-2zM135.828 132.511c0-.1 0-.2.1-.4.1-1-2-1-2.5-.8-.2.1-.3.2-.5.2-1.1.5-1.2 1.6.1 2 .9.4 2.6.3 2.8-1zM88.728 97.81c-.7-.6-1.8-.6-2.6-.3-.6.2-1.3 1-.6 1.6.7.6 1.8.6 2.6.3.6-.3 1.2-1 .6-1.6zM84.928 106.31c.2-.5.2-.6.2-1.3-.2-2.1-5.1-1.7-4.8.2.1.7.3 1.2.9 1.6.7.4 1.6.5 2.4.3.5-.1 1.1-.3 1.3-.8zM102.828 105.91c0-1.7-3.4-1.6-4.4-.6-.6.2-1.2.5-1.1 1.2 0 1 1.5 1.2 2.2 1.2 1.2 0 3.3-.3 3.3-1.8zM101.228 89.51c.5-.1.5-.6 0-.7-.8-.1-1.3 0-2 .4-1 .6 1.1 1.5 1.7.5.1-.2-.1-.1.3-.2zM106.328 123.81c-.2-.4-.5-.7-.9-.9-.9-.5-2-.5-2.8-.1-.6.2-1.4.9-1 1.6.2.4.4.6.7.8l.6.3c-.4-.2-.4-.2.1.1.8.3 2 .2 2.7-.4.6-.3.9-.7.6-1.4zM99.428 130.61c.2-.6-.2-.9-.5-1.2h-.1s-.1-.1-.1-.2c-.7-.7-2.8-.8-3.4.1 0 .1-.1.2-.1.2-.2.3-.4.7-.2 1 .5.7 1 .9 1.8 1 .8.3 2.2 0 2.6-.9zM128.628 98.41c.4-.4.3-.9 0-1.3 0-.1-.1-.1-.1-.2-.7-.9-2.6-.6-3.3.1l-.2.2c-.4.4-.3.9 0 1.3-.1-.1-.1 0 .1.2.1.1.2.1.3.2.2.1.3.1.3.1.6.3 1.5.3 2-.1-.2.1-.3.1-.5.2.3-.1.6-.2.8-.3.3 0 .4-.2.6-.4zM123.928 106.91c0-1.2-1.9-1.3-2.7-1.1-1 .2-2.3 1.4-.8 2.1.3.1.5.3.8.4.3.1.5.1.8.1h.5c.7-.2 1.3-.7 1.4-1.5z"/>
    <path fill="#3F3F47" d="M24.322 13.244c-6.4 6.5-11.2 15-14.8 23.2-8.1 18.4-17.4 46.1 1.8 60.8 10 7.7 28 5.9 39.7 3.4 15.6-3.2 30.1-6.1 44-14.3 13.7-8.1 21.8-25 23.7-40.2 1.4-11.3-4.7-22.5-11.9-31-10-11.9-25.6-15.6-40.6-15.1-8.3.3-17 1.3-25 3.3-6.6 1.6-12.2 5.2-16.9 9.9z"/>
</svg>