<svg xmlns="http://www.w3.org/2000/svg" width="111" height="130" fill="none" viewBox="0 0 111 130">
    <g clip-path="url(#clip0)">
        <g fill="#fff" opacity=".3">
            <path d="M58.5 104.6c-.2.5-.3 1.2-.3 1.9.1 3.6 1.9 6.5 5.8 6.3 2.5-.1 5-.6 6.2-3.1 1-2 1-5.8-.1-7.9-1.1-2.2-2.7-1.8-4.9-1.4-2.9.6-5.8 1.6-6.7 4.2zM82.7 101.1c-.6 3.4 2.8 6.4 6.1 5.7 2.5-.5 3.6-.9 3.6-3.9 0-2-.3-4.3-1.8-5.4-2.1-1.5-6.4.1-7.4 2.3-.3.5-.5.9-.5 1.3zM68.6 126.5c-1 2.7 2.2 2.8 3.8 2.3 2.3-.7 4.1-1.6 3.5-4.4-1.1-5.5-5.2-.5-7.3 2.1zM103.7 96.3c.3 2.5.3 3.4 2.8 3.8 2.2.4 3.2-1 3.8-3.1 1.3-4.4-4.7-4-6.6-.7zM80.9 83c-.5 2-.2 4.2 2.1 4.1 1.1 0 2.3-.5 2.8-1.6.8-1.9-3.2-4.2-4.3-2.9"/>
        </g>
        <path fill="#3F3F47" d="M35 62.6c.3-.2.7-.4 1-.5.6-.3 1.4-.7 2.1-.8.5-.1 1.1-.2 1.6-.2.9-.1 1.8 0 2.6.1 1.1.2 2.2.6 3.2 1.1 1.1.6 2.1 1.2 3.1 1.9 1.3.9 2.5 1.8 3.6 3 .8.9 1.3 1.9 1.4 3.1 0 1.1-.4 2.3-1.2 3.1-1.7 1.8-4.4 1.7-6.2.1-1.1-.9-2-1.9-3.1-2.8-.7-.5-1.4-.9-2.2-1.3l-.5-.1h-.1l-.2.1c-.4.2-.8.4-1.2.7l-.3.2c-.4.3-.7.7-1 1-.3.4-.5.8-.7 1.2-.2.5-.3 1.1-.4 1.6 0 .7 0 1.5.1 2.2.4 2.2 1.1 4.3 1.8 6.4.7 2.1-.8 4.5-2.9 5.1-1 .3-2.2.2-3.1-.4-1-.6-1.6-1.4-2-2.5-.4-1.3-.9-2.7-1.3-4-.4-1.5-.7-2.9-.9-4.4-.4-3.4.4-7 2.3-9.8 1.3-1.5 2.8-3 4.5-4.1zm4.9 6.8h-.1.1zm1-.1h-.1.1zM79.1 40.2l.3-.2c1-.5 2-1 3.1-1.2 1.3-.3 2.6-.3 3.9.1 1.8.5 3.2 1.8 4.4 3.2.8 1 1.6 1.9 2.1 3 .4.6.5 1.3.6 2 0 .3-.1.7-.1 1-.2.7-.5 1.3-1 1.8-.7.8-1.7 1.2-2.8 1.2-.7 0-1.3-.2-1.9-.5-.7-.4-1.3-.9-1.8-1.5-.2-.3-.4-.5-.7-.8-.4-.5-.8-1-1.2-1.4l-.2.1c-.3.2-.7.4-1 .6-.5.5-1 .9-1.4 1.5l-.3.5v.9c.4 2.4 1.3 4.6 2 6.9.7 2.1-.8 4.3-2.8 4.9-1 .3-2.1.1-3-.4-1-.5-1.6-1.4-1.9-2.4-.6-2-1.4-3.9-1.8-6-.4-1.8-.7-3.7-.3-5.6.4-2 1.6-3.6 2.9-5.1.3-.3.6-.7 1-1 .5-.6 1.1-1.2 1.9-1.6zm4.6 6.5h-.2.2zm.4.2l-.1-.1.1.1zM43.2 30.9c-.6.5-1.2.9-1.8 1.4-.7.7-1.3 1.4-1.9 2.2-.4.6-.6 1.3-.8 1.9-.1.3-.2.6-.3 1-.3 1.3-.2 2.8.1 4.1.5 2.6 1.7 4.9 2.9 7.2 1.1 2.1 3.9 2.6 5.8 1.5 1-.6 1.7-1.5 1.9-2.6.3-1.1.1-2.2-.5-3.2-.4-.8-.8-1.5-1.2-2.3-.3-.8-.5-1.5-.7-2.3v-.5l.1-.4.1-.2c.4-.5.9-.9 1.3-1.3.3-.2.6-.4.9-.5l.2-.1h1c.8.1 1.6.3 2.4.6.5.2.9.4 1.4.7.7.4 1.3.8 2 1.2 1.4.8 3.2.5 4.3-.7.6-.7 1-1.6 1-2.5 0-1-.5-1.8-1.1-2.6-.8-.9-1.9-1.6-2.9-2.3-1.1-.6-2.2-1.1-3.4-1.5-1.3-.4-2.5-.7-3.8-.8-2.2-.2-4.5.3-6.4 1.4-.1.3-.4.4-.6.6zM79.3 5.7c-1.2 1.4-2.1 2.9-2.8 4.7-.5 1.2-.7 2.5-1 3.8-.2 1-.1 2.1.4 3 .5.9 1.4 1.5 2.4 1.8 2 .5 4.4-.8 4.8-2.9.2-1.1.4-2.2.8-3.3.2-.5.5-.9.7-1.3.4-.4.7-.9 1.2-1.3.2-.2.5-.3.8-.5l.9-.2h1.2c.7.1 1.5.3 2.2.5.4.2.7.3 1 .5.4.2.8.5 1.2.8l1.8 1.5c1.6 1.4 4.1 1.5 5.6-.1 1.5-1.5 1.5-4.2-.1-5.6-1.5-1.4-3-2.6-4.8-3.6-.9-.5-2-.9-3-1.2-.7-.3-1.6-.4-2.5-.5-.9-.1-1.8-.2-2.7-.1-1 .1-2.1.3-3.1.6-.7.2-1.3.6-1.9.9-1.2.7-2.2 1.5-3.1 2.5zM3.6 53.6C3 54.2 2.5 55 2 55.7l-.6 1.2c-.3.8-.6 1.7-.9 2.6-.4 1.6-.7 3.3-.5 5 0 .7.2 1.3.5 1.8.5.8 1.3 1.4 2.2 1.7.9.2 1.9.1 2.8-.4.8-.5 1.5-1.3 1.7-2.2.3-1.9.5-3.7 1.1-5.5.1-.3.3-.5.5-.8.2-.3.4-.5.7-.7l.5-.3.7-.2c1.2-.1 2.3 0 3.5.1.7.1 1.5.2 2.2.4 1 .2 1.9.1 2.8-.4.8-.5 1.4-1.3 1.7-2.2.2-.9.1-1.9-.4-2.8-.5-.8-1.3-1.5-2.2-1.7-1.7-.3-3.4-.5-5.2-.7-1.5-.1-2.9 0-4.4.2-.8.1-1.6.5-2.3.8l-.5.3c-.9.4-1.6 1-2.3 1.7zM11.1 23.1c1.9-1.1 4.1-1.8 6.3-1.6.9.1 1.8.2 2.7.4.9.2 1.7.6 2.5.9.8.3 1.4 1.3 1.6 2.1.2.9.1 1.8-.3 2.5-.7 1.3-2.3 2-3.8 1.7-.9-.2-1.8-.5-2.7-.7h-1.1l-.5.1c-.3.2-.6.3-.9.5-.4.4-.8.8-1.2 1.3l-.2.3c.4.9 1 1.8 1.5 2.6 1.1 1.8.5 4.3-1.3 5.3-1.8 1.1-4.2.5-5.3-1.3-.4-.6-.8-1.2-1.1-1.9-.6-1.1-1.2-2.2-1.4-3.4-.2-1-.2-1.9 0-3 .2-.4.3-.9.5-1.3.1-.3.3-.5.5-.8 1-1.3 2-2.5 3.4-3.4.2.1.5-.1.8-.3zm2.2 8.1v.2-.2zM43 2.9c-.6.5-1.1 1.1-1.6 1.7-1 1.2-1.6 2.5-2 4-.3.9-.3 2-.3 2.9 0 .9 0 1.8.1 2.7.1 1.2.2 2.5.2 3.7.1.9.4 1.8 1.1 2.4.6.6 1.5 1 2.4.9 1.8 0 3.5-1.6 3.4-3.5l-.3-4.2c-.1-1-.1-2.1 0-3.1.1-.3.1-.6.2-.9.1-.3.3-.5.4-.8.4-.5.9-1 1.4-1.4.3-.2.5-.3.8-.5l.6-.2h.9c.3.1.5.1.8.2.5.3 1.1.6 1.6.9.6.8 1.3 1.3 2.1 1.7.5.3 1.1.4 1.7.4.9 0 1.9-.4 2.5-1.1 1.3-1.3 1.3-3.7-.1-5C58 3 57 2.3 56 1.7c-.9-.6-1.9-1-3-1.3-1-.3-2.1-.4-3.3-.4-.6 0-1.2.2-1.8.2-1 .2-1.9.6-2.8 1.1l-.3.2c-.6.4-1.2.9-1.8 1.4z"/>
    </g>
    <defs>
        <clipPath id="clip0">
            <path fill="#fff" d="M0 0h110.5v129.1H0z"/>
        </clipPath>
    </defs>
</svg>