<svg xmlns="http://www.w3.org/2000/svg" width="107" height="102" fill="none" viewBox="0 0 107 102">
    <g clip-path="url(#clip0)">
        <path fill="#FFCB78" d="M93.912 31.26C83.634 13.93 65.375 5.714 49.67 4.75 31.54 3.723 18.323 18.166 9.258 33.508 4.15 42.109 0 52.316 0 63.806c0 4.879 1.085 10.27 3.511 14.828 2.554 4.814 6.512 8.41 10.47 11.298 9.705 6.997 21.196 10.014 31.666 11.49 10.726 1.541 20.94.064 29.943-5.007 9.64-5.456 16.726-15.02 20.684-26.832 3.895-11.683 5.108-25.74-2.362-38.322z"/>
        <path fill="#FFFBE9" d="M83.506 50.903c-.383.193-.447 1.54.064 1.348.447-.192.51-1.605-.064-1.348zM85.166 48.208c-.255.128-.383.513-.383.834 0 .257.191.578.447.514.255-.129.383-.514.383-.835 0-.257-.192-.578-.447-.513zM82.165 45.447c-.447.193-.638.963-.191 1.477.319.385.51-.129.574-.514.064-.128.064-.32.064-.45 0-.256-.191-.641-.447-.513zM79.675 40.376l-.127-.128-.064-.064h-.192c-.255.128-.447.513-.447.834 0 .193 0 .45.064.642.064.064.192.321.32.257.255-.129.319-.129.446-.45 0-.064.064-.128.064-.192v-.064-.129-.257-.128-.128c.064 0 0-.129-.064-.193zM82.484 41.403c-.255.129-.319 1.092.064.963.256-.192.32-1.155-.064-.963zM84.655 43.265c-.32.128-.383 1.348.064 1.091.32-.128.383-1.348-.064-1.091zM80.058 49.042c-.446.192-.51 1.605.064 1.348.447-.193.511-1.605-.064-1.348zM78.399 45.319c-.32-.193-.511.385-.511.642s.064.77.383.642c.064-.065.128-.065.191-.193-.063.129-.063.129 0 .064.064-.064.128-.192.128-.385 0-.128.064-.642-.191-.77zM75.27 47.052c-.383-.385-.638.385-.638.706 0 .128 0 .257.127.385.128.193.256.257.447.128a.983.983 0 00.256-.642v-.128.064c0-.192 0-.385-.192-.513zM77.058 52.38c-.51.257-.766 1.027-.766 1.733 0 .514.383 1.284.894 1.027.51-.256.766-1.027.766-1.733 0-.513-.383-1.22-.894-1.027zM80.122 58.413c-.127.193-.255.514-.191.835 0 .193.064.578.319.642h.064c.447.128.638-.514.638-.963v-.128c-.064-.578-.574-.835-.83-.386zM81.974 61.11v-.065c-.128.129-.256.642.064.835.064.064.127.064.191.064.32 0 .447-.578.383-.899-.064-.706-.51-.192-.638.064zM84.464 56.424c-.32-.129-.447.385-.447.642 0 .192.064.385.191.513.192.193.383-.193.32-.385v-.064c.127-.257.127-.578-.064-.706zM76.036 58.67c-.319.45-.383 1.156-.063 1.67 0 .064.063.064.063.128.192.32.575.064.703-.129.191-.32.319-.834.191-1.22 0-.063-.064-.127-.064-.192-.064-.642-.51-.706-.83-.256zM77.952 63.293c-.064 0-.128-.065-.192-.065-.255 0-.447.322-.51.578-.064.193-.128.899.255 1.027.191.064.319 0 .447-.064.191-.128.255-.385.319-.706 0-.193-.064-.706-.32-.77zM83.123 67.272s-.064 0-.064-.064c-.064-.064-.191 0-.255.064-.128.129-.192.257-.32.257-.127 0-.191.321-.063.45.127.192.127.32.319.449.128.064.32-.064.383-.129l.064-.064c.127-.257.255-.77-.064-.963zM87.847 61.88c-.383.129-.574.707-.51 1.156 0 .128.127.257.191.193l.383-.193c.32-.193.447-1.284-.064-1.155zM90.21 52.058c-.128-.256-.32-.128-.384 0-.127.193-.191.45-.063.706.063.065.127.129.191.129.192.128.255-.257.255-.385v-.065a.411.411 0 000-.385zM87.783 54.884c-.064-.065-.127-.129-.255-.193-.192-.064-.383 0-.51.193-.32.192-.32.77-.192 1.09 0-.063-.064-.127-.064-.192 0 .193.064.578.32.642.255.064.318.064.51-.064.383-.193.51-1.091.191-1.476zM91.167 59.441c-.255.321-.51 1.348-.064 1.798.064.064.192.192.256.192.51.193.766-.513.83-.963.063-.32 0-.706-.128-1.027-.256-.449-.639-.385-.894 0zM90.72 46.217c-.51-.577-.83.45-.83.835.064.706.575.706.83.257 0 0 0-.065.064-.065.064-.32.128-.706-.064-1.027zM93.402 50.84c-.32-.385-.447.32-.447.513v.064c0 .321.255.514.447.257.191-.128.255-.642 0-.834zM14.62 45.383c-.702.45-1.15 1.733-.702 2.76.191.45.574.642.894.45.51-.193.83-.963.83-1.605 0-.386 0-.77-.128-1.156-.192-.385-.575-.642-.894-.45zM15.45 41.724c0 .065 0 .065 0 0-.128.386-.128 1.284.383 1.284.51 0 .702-.899.574-1.412v-.064c-.191-.835-.83-.257-.957.192zM12.768 40.184c-.063 0-.063 0 0 0-.063-.064-.191 0-.191 0-.191.192-.191.45-.128.77.192.578.703-.128.447-.513a.487.487 0 00-.128-.257zM19.472 41.339a.69.69 0 00-.32.064c-.127.064-.19.193-.319.193-.191 0-.255.385-.127.513.064.064.064.193.128.257.063.193.127.257.255.385.128.193.32.129.447 0 .255-.257.383-.642.255-1.091 0-.064-.128-.321-.32-.321zM21.962 50.904c-.128.128-.256.385-.32.577 0 .064 0 .129-.063.193v.128c0 .193 0 .45.127.642l.064.064s.064.065.128.065h.128c.383.128.638-.386.638-.77v-.13c.064-.449-.192-1.219-.702-.77zM21.643 56.809c-.256.128-.384.513-.384.898 0 .257.192.642.447.514.256-.128.384-.514.384-.899 0-.257-.128-.642-.447-.513zM18.259 54.82c-.255-.322-.51.128-.575.385-.064.192-.064.898.256.834.127 0 .191.064.319.064.128-.064.192-.128.192-.257.063-.32.063-.77-.192-1.027zM14.11 56.296c-.512-.578-1.086.899-.512 1.412.192.193.32 0 .511 0 .255 0 .383-.513.255-.77-.063-.193-.063-.385-.255-.642zM10.598 52.7s0-.063 0 0c0-.063 0-.063 0 0 0-.063-.064-.063-.064-.063-.255-.129-.32.385-.32.577 0 .129.065.321.192.321 0 0 .064 0 .064.064.192.129.256-.256.256-.385 0-.128.063-.385-.128-.513zM16.471 50.968c-.255.128-.383.577-.383.898 0 .257.192.642.447.578.256-.128.383-.578.383-.899 0-.32-.191-.706-.447-.577zM19.472 46.09c-.83.384-.958 3.145.128 2.631.83-.32.957-3.081-.128-2.632zM10.406 45.704c-.064-.321-.255-.578-.51-.45.191.257.319.45.383.578-.064.385-.128.706-.192 1.091.064-.064.192-.192.192-.32a2.32 2.32 0 00.127-.707v-.192zM11.364 58.734s-.064-.064 0 0c-.383-.45-.702 0-.83.257s-.255.963.064 1.284c.191.193.32.128.51.128.32-.064.575-.77.448-1.284-.064-.128-.128-.32-.192-.385zM15.13 64.127c-.063-.129-.255-.129-.319-.129-.127 0-.191-.064-.319 0-.191.064-.255.385-.191.642.063.129.063.193.127.321 0 .129.064.321.128.45.128.385.51.256.639.064.191-.321.319-.899.063-1.284l-.127-.064zM6.576 60.724c-.575-.513-.958.321-1.022.835 0 .257 0 .642.192.899.191.192.447.192.574 0l.064-.065c.192-.192.32-.513.383-.834.064-.193 0-.642-.191-.835zM49.414 17.78c0-.063 0-.063 0 0 0-.063 0-.063-.064-.128l-.064-.064-.064-.064c-.063 0-.063-.064-.127-.064h-.128c-.191 0-.32.257-.32.45v.192c-.063.45.32.899.575.513 0-.064.064-.064.064-.128s.064-.193.064-.257c.128-.192.128-.32.064-.45zM51.266 23.108c-.256-.385-.511.386-.511.578 0 .128-.064.321-.064.45 0 .192 0 .513.128.641l.063.064c.447.45.639-.449.639-.77.064-.32-.064-.706-.255-.963zM47.052 24.457c-.32-.45-.639.45-.639.706 0 .192.128.514.32.514.127 0 .191-.065.255-.193.192-.064.255-.321.192-.578 0-.128 0-.32-.128-.45zM48.903 31.39c0-.065 0-.065 0 0-.255.128-.319.77-.064 1.09 0 0 0 .065.064.065.383.32.639-.257.703-.642 0-.513-.384-1.027-.703-.513zM46.669 53.471c0-.064-.064-.064 0 0-.128-.064-.255-.064-.383-.064-.064.064-.192.064-.255.129-.32.256-.447.77-.384 1.22 0 .32.192.834.511.834.383 0 .51-.257.702-.578.192-.45.256-1.22-.191-1.54zM50.244 51.866c-.192 0-.192.129-.255.257-.064.064-.192.45 0 .514a.193.193 0 00.255 0c.128-.129.32-.707 0-.77zM51.84 56.167c-.064 0-.128.064-.128.064-.127 0-.255.322-.127.45-.064.257-.064.642.191.77h.064c.32.193.575-.385.575-.706 0-.385-.192-.899-.575-.578zM48.584 56.039c-.191.192-.255.513-.191.834 0 .129.063.257.191.321h.064s.064 0 .064.064c.255.193.383-.385.383-.577v-.386c-.128-.32-.32-.449-.51-.256zM70.546 22.595c-.639.257-.766 2.504.128 2.119.574-.321.702-2.504-.128-2.119zM70.29 26.96c-.319 0-.574.45-.638.77-.064.385-.127 1.348.447 1.412.51 0 .766-.834.702-1.348-.064-.385-.191-.834-.51-.834zM67.865 25.291c-.32-.578-.703 0-.83.321 0 .064 0 .064-.064.129-.064.256-.064.77.127 1.027.192.256.32.192.575.192.383 0 .51-.706.32-1.091 0-.193 0-.385-.128-.578zM64.992 17.075c-.192.064-.192.706.063.641.128-.128.192-.77-.063-.642zM24.899 21.568c-.256-.32-.575-.064-.703.129-.191.32-.319.77-.191 1.22.064.256.128.449.383.641.255.129.447-.064.574-.257.192-.32.32-.77.192-1.22-.064-.192-.192-.32-.255-.513zM28.41 17.01c-.256.13-.383.514-.383.9.191.192.383.32.574.513a.886.886 0 00.192-.257c.064-.192.128-.385.128-.578-.064-.32-.256-.706-.511-.577zM31.666 25.483s-.064-.064 0 0c-.256-.192-.383.064-.447.257v.064c0 .064-.064.129-.064.129-.064.192-.064.513.064.706.128.192.383.064.447-.064v-.065c.128-.128.383-.898 0-1.027zM27.388 23.43c-.383.128-.574.963-.127 1.284.574.385.83-1.476.127-1.284zM25.282 27.152c-.064 0-.064-.064 0 0-.192-.192-.256-.192-.383-.192-.511.128-.894 1.155-.447 1.733.191.193.319.193.51.128.384-.128.767-1.22.32-1.669zM35.433 78.698c-.256.129-.383.514-.383.899 0 .257.191.642.447.514.255-.129.383-.514.383-.9 0-.256-.192-.641-.447-.513zM39.838 76.9c-.256-.32-.511.065-.639.257-.127.257-.255.835 0 1.092.256-.129.511-.321.766-.45.064-.192.064-.642-.127-.898zM42.455 85.053c-.638-.706-1.021.642-1.021 1.092v.064c0 .578.447 1.027.83.642.319-.321.638-1.348.191-1.798zM38.433 82.1c-.383-.063-.638.9-.319 1.22.064.065.128.129.192.129.319.128.446-.385.446-.642v-.129c0-.256-.064-.513-.319-.577zM33.39 85.31c-.32.128-.447.577-.447.963 0 .32.191.706.51.577.32-.128.447-.577.447-.963 0-.256-.191-.706-.51-.577zM39.2 91.858c-.256-.322-.575-.065-.703.256-.064.064-.191.129-.191.257 0 .257 0 .642.127.899.256.577.703.192.83-.129.128-.32.256-.898-.064-1.284zM43.987 93.655c-.191 0-.319.129-.446.129-.256 0-.511.642-.256.898.064.064.192.257.256.321.51 1.027 1.276-1.22.447-1.348zM35.241 93.013c-.064 0-.064.064-.064.128-.447.257-.319 1.67.255 1.22.32-.193.511-.77.256-1.22-.128-.192-.32-.256-.447-.128zM30.261 82.935c-.255.128-.383.513-.383.898 0 .257.192.642.447.514.256-.128.383-.514.383-.899-.064-.257-.191-.642-.447-.513zM28.154 88.584c-.383.193-.446.706-.446 1.155.191.129.447.321.638.45.064-.064.192-.193.192-.321.063-.193.127-.45.127-.642.064-.321-.191-.77-.51-.642zM45.264 84.347c-.064 0-.064-.064 0 0-.319-.257-.383.257-.383.45v.127c0 .322.256.45.383.193.128-.193.256-.642 0-.77zM52.223 92.242c-.191 0-.383.064-.447.321v.129c0 .192-.064.641.128.706.128.064.191.064.255 0 .192-.065.256-.321.32-.578.063-.128 0-.578-.256-.578zM44.115 88.969c-.51.257-.638 2.054.064 1.733.51-.257.638-2.054-.064-1.733zM41.753 88.584c-.192-.193-.32.257-.255.32v.065c-.064.32.191.578.383.32.063-.127.191-.705-.128-.705zM65.502 80.046c-.063-.064-.127-.193-.255-.193-.192.065-.32.065-.383.322-.064.32-.064.513.064.834.127.32.383.192.51 0 .128-.193.256-.642.128-.899l-.064-.064zM72.653 87.685c-.064 0-.064 0 0 0-.128-.193-.383-.193-.447-.064-.255.128-.575.834-.192 1.22.064.064.128.064.128.128.192.128.447-.129.51-.321v-.064c.129-.257.192-.642 0-.9zM75.334 83.897c-.32-.513-.702.578-.574.835 0 .128.063.192.127.32.192.258.383.193.511 0 .192-.256.192-.577.064-.898-.064-.128-.128-.192-.128-.257zM71.823 84.54c-.51.256-.639 2.053.064 1.732.51-.256.638-2.054-.064-1.733zM69.524 89.483s-.063 0 0 0c-.191-.193-.319-.193-.51-.064l-.064.064c-.192.192-.32.578-.32.898 0 .193.128.642.384.578.319 0 .447-.192.574-.45.064-.192.192-.77-.064-1.026zM74.951 90.894c-.064.129-.128.514 0 .706l.064.065c.32.32.638-.257.638-.578v-.321c-.064-.45-.447-.45-.702.128zM78.654 86.658c.064-.064.064-.064 0 0-.255.193-.32.514-.32.835 0 .256.192.706.448.577.383-.256.638-.834.383-1.412-.064-.32-.383-.128-.511 0zM82.548 83.128c-.255.064-.447.192-.51.513-.064.193 0 .963.383.77.063-.064.127-.128.191-.128.192-.128.447-1.22-.064-1.155zM68.695 86.208c-.32.129-.383 1.22.063 1.027.256-.128.32-1.22-.063-1.027zM66.205 93.655c-.256 0-.447.193-.511.45-.128.256-.192.641 0 .962.128.321.383.257.51.129.192-.129.256-.385.32-.578.064-.257.064-.963-.32-.963zM68.758 81.33c-.319.129-.319 1.156.064.963.32-.128.383-1.155-.064-.962zM27.452 69.262c-.191-.128-.383.064-.447.257v.064c-.063.193-.063.385-.063.514 0 .128 0 .192.063.32.064.13.128.193.256.193.127 0 .255-.064.191-.257.064-.128.128-.256.192-.32 0 .128-.064.256-.064.32.128-.256.255-.898-.128-1.09zM28.538 68.684h.127c.192.064.256-.257.256-.385v-.257c.064-1.476-1.341.385-.383.642zM37.029 35.434c-.383.192-.511.642-.511 1.027 0 .32.191.77.51.642h.065c.319-.129.446-.642.446-1.028 0-.32-.191-.77-.51-.641zM39.71 37.616c-.191-.257-.447 0-.51.192-.128.193-.32.77 0 .9.063.063.127.128.19.128.32.128.512-.386.512-.77-.064-.13-.064-.322-.192-.45zM65.822 43.2c-.256.128-.383.578-.383.899 0 .257.191.642.446.578.256-.129.383-.578.383-.9 0-.32-.191-.705-.447-.577zM62.949 39.35c-.128.256-.256.77.064 1.026.127.129.191.065.255 0 .32-.064.383-.706.32-1.027-.065-.513-.512-.256-.64 0zM62.885 44.356l-.064.064c-.128.192-.32.963.064 1.091h.064c.383.193.574-.513.574-.834 0-.514-.383-.642-.638-.321zM64.162 59.633c0 .065 0 .065 0 0-.256.257-.447.707-.32 1.092.064.192.128.32.32.385.127 0 .191-.064.255-.129h.064c.255-.192.32-.706.255-1.027-.064-.32-.319-.513-.574-.32zM65.95 62.778c-.256.129-.32 1.092.063.899.255-.128.32-1.091-.064-.899zM63.204 63.036c-.255.128-.32 1.091.064.899.255-.129.32-1.092-.064-.899zM63.332 67.722c-.064 0-.128 0-.192.064-.191.128-.319.45-.319.706 0 .193.128.513.383.45.064-.065.128-.065.192-.13.127-.127.383-1.09-.064-1.09zM53.883 73.242c-.255.128-.32 1.027.064.898.255-.192.255-1.09-.064-.898zM60.203 10.59c-.51-.32-.51 1.156-.127.964.255.32.383-.321.383-.514-.064-.192-.128-.32-.256-.45zM35.177 9.885c-.127.129-.191.321-.255.514-.128.449 0 1.155.447 1.155h.063c.447-.064.639-.706.639-1.155-.064-.77-.575-.899-.894-.514zM38.306 12.004c-.447.192-.511 1.604.063 1.348.447-.129.511-1.605-.063-1.348zM39.263 11.041c-.191.064-.191.642 0 .578.192-.129.256-.706 0-.578z"/>
        <path fill="#FF8E7B" d="M104.957 15.406c.128 5.392-3.767 11.17-9.832 14.635-6.576 3.788-13.853 3.852-19.535.321-4.278-2.696-6.895-7.253-7.023-12.132-.064-3.915 1.404-7.574 4.213-10.335C78.91 1.797 89.443.257 97.168 4.43c6.321 3.338 7.725 7.831 7.789 10.977z"/>
        <path fill="#fff" d="M70.674 18.166c-.064-3.146 1.085-6.355 3.639-8.859 5.49-5.52 15.066-6.804 21.898-3.08 4.66 2.503 6.639 5.84 6.703 9.243.192 9.757-15.13 20.092-26.24 13.159-3.83-2.44-5.937-6.42-6-10.463zm-4.086.064c.127 5.649 3.064 10.784 7.98 13.865 6.32 3.98 14.428 3.852 21.643-.257 6.703-3.851 10.98-10.27 10.853-16.433-.064-3.017-1.277-8.73-8.874-12.774C89.699-1.926 78.207-.32 71.44 6.42c-3.256 3.145-4.98 7.382-4.852 11.81z"/>
        <path fill="#FFFBE9" d="M78.016 21.504c.638.513 1.723.385 2.425.064.575-.257 1.086-1.027.447-1.476-.638-.514-1.723-.386-2.426-.065-.574.257-1.085.963-.447 1.477zM76.675 16.946c.51.386 1.277.321 1.724 0 .383-.192.766-.706.319-1.09-.511-.386-1.277-.322-1.724 0-.447.192-.83.705-.32 1.09zM79.74 14.57c0 .065.063.129.063.193.255.706 1.213.642 1.788.321.702-.385.51-.963-.192-1.155-.128 0-.191-.065-.32-.065-.254-.064-1.531.129-1.34.706zM82.23 17.652v.064c-.065.129 0 .193.063.257l.128.129c.383.385 1.532-.193.893-.578-.191-.129-.319-.129-.51-.129-.256 0-.511.065-.575.257zM92.89 16.56c.575.45 1.533.386 2.108.065.51-.257.957-.899.383-1.348-.575-.45-1.533-.385-2.107-.064-.51.257-.958.899-.383 1.348z"/>
    </g>
    <defs>
        <clipPath id="clip0">
            <path fill="#fff" d="M0 0h107v102H0z"/>
        </clipPath>
    </defs>
</svg>