<svg xmlns="http://www.w3.org/2000/svg" width="294" height="189" fill="none" viewBox="0 0 294 189">
    <path fill="#3F3F47" fill-rule="evenodd" d="M120.198 33.788c1.731 1.525 2.822 2.486 3.181 2.98 1.168 1.602.729 3.042-1.273 4.17-1.112.628-3.4 1.264-4.546 1.264-1.296 0-1.741-.495-1.741-.495a7.013 7.013 0 00-.265-.235c-.639-.544-1.377-1.173-4.767-7.143-5.356-8.246-9.838-15.087-9.961-15.201-.282-.265-.278-.256 9.415 16.95 1.245 2.853.707 4.27.434 4.986-.07.185-.123.324-.123.428 0 1.04-.285 1.585-1.577 3.015-2.154 2.384-3.117 5.062-3.812 10.606-.779 6.214-2.969 10.603-9.04 18.116-3.555 4.398-4.136 5.204-5.033 6.976-1.13 2.232-1.44 3.482-1.566 6.3-.133 2.98.126 4.906 1.044 7.755.803 2.495 1.642 4.142 3.785 7.436 1.85 2.843 2.916 4.956 2.916 5.783 0 .657.126.658 2.993.016 6.861-1.537 12.431-4.241 15.564-7.554 1.939-2.05 2.395-3.183 2.409-5.993.01-1.838-.055-2.223-.556-3.28-.815-1.721-2.299-3.153-5.57-5.37-4.285-2.907-6.116-5.248-6.621-8.466-.415-2.64.066-4.503 2.437-9.434 2.454-5.103 3.062-7.277 3.473-12.421.266-3.323.634-4.634 1.596-5.686 1.004-1.097 1.907-1.468 4.391-1.805 4.05-.549 6.628-1.588 8.748-3.526 1.838-1.681 2.608-3.301 2.726-5.74l.089-1.848-1.027-1.188C124.2 30.879 88.256 0 88.027 0c-.049 0 1.176 1.523 2.721 3.384 13.786 16.601 24.372 25.93 29.45 30.404zm-20.84 56.09c.841-1.479.394-3.379-1.014-4.307-1.33-.877-3.395-.464-3.395.679 0 .349.195.603.633.827.738.376.791.8.21 1.665-.587.877-.54 1.648.135 2.171 1.086.845 2.625.38 3.43-1.035zM124.68 9.266c-1.66-.256-1.73-.286-.949-.405 1.497-.228 5.032.083 7.468.658 5.687 1.341 10.862 4.777 16.385 10.879l1.468 1.621 2.099-.335c8.844-1.41 17.841-.29 25.366 3.16 2.071.949 5.335 2.838 5.743 3.323.13.155.368 1.15.529 2.213.559 3.676.279 6.494-.853 8.599-.617 1.145-.652 1.508-.237 2.488.331.782 1.254 1.361 2.167 1.36 1.87-.003 3.884-3.002 4.816-7.175l.371-1.658.733.825c4.026 4.525 7.188 10.696 7.731 15.088l.141 1.146-.676-1.041c-1.165-1.792-2.335-3.012-3.833-3.995-2.702-1.774-5.557-2.377-13.12-2.772-6.831-.357-10.697-.936-14.53-2.176-6.522-2.11-9.81-4.92-17.557-15.005-3.442-4.48-5.569-6.958-7.684-8.954-4.808-4.535-9.531-6.914-15.578-7.844zM183.8 19.27c.172-3.002.582-4.982 1.407-6.79.327-.716.632-1.301.68-1.301.047 0-.095.528-.316 1.173-.6 1.755-.698 4.155-.285 6.948.524 3.543.822 4.054 4.597 7.881 1.77 1.795 3.83 4.06 4.576 5.032l1.357 1.767-1.357-1.263c-1.66-1.545-5.477-4.557-6.32-4.988-.566-.289-.65-.284-.999.06-.321.318-.389.795-.433 3.05-.07 3.513-.553 5.768-1.717 8.023-.63 1.22-.73.96-.16-.418.426-1.027.469-1.48.466-4.88-.007-6.834-.824-8.477-5.619-11.292a52.708 52.708 0 00-4.449-2.285c-1.231-.544-2.21-1.018-2.174-1.053.136-.134 4.812 1.22 6.695 1.939 2.8 1.068 3.262 1.207 3.602 1.078.228-.087.339-.745.449-2.681zm-60.899-5.252c-.452 5.276 1.633 12.334 5.004 16.937 2.612 3.569 6.662 6.342 9.651 6.61 1.958.175 2.546-.433 1.661-1.716-1.23-1.782-2.742-4.525-3.142-5.7-.249-.729-.789-2.884-1.201-4.789-1.406-6.502-2.787-9.034-5.979-10.957-1.163-.701-3.647-1.618-5.088-1.879l-.767-.139-.139 1.633zm56.811 51.205c-15.749-6.292-21.296-11.753-21.296-20.967 0-1.356.047-2.466.105-2.466.057 0 .666.448 1.354.995 3.193 2.541 6.77 3.627 16.67 5.06 5.826.843 9.104 1.524 12.129 2.52 9.612 3.162 15.559 9.581 16.978 18.324.412 2.54.17 7.305-.498 9.816-.527 1.983-2.137 5.558-2.564 5.695-.119.038-.234-.412-.265-1.025-.162-3.283-1.834-6.479-4.642-8.873-3.193-2.722-7.482-4.89-17.971-9.08zm-11.817-.697c.221.653.563 2.141.761 3.306 1.261 7.45-2.68 13.467-10.346 15.799-.811.247-4.008.867-7.104 1.38-6.266 1.035-9.063 1.767-11.872 3.11-1.993.953-4.405 2.38-4.262 2.521.046.046.501-.062 1.01-.24 3.544-1.234 7.487-1.873 13.478-2.182 2.377-.123 5.082-.319 6.009-.434 5.338-.667 9.037-2.275 11.914-5.18 1.601-1.617 2.555-3.123 3.324-5.247.487-1.347.553-1.847.557-4.234.004-2.432-.055-2.877-.583-4.373-.692-1.96-1.508-3.432-2.541-4.583l-.747-.831.402 1.188zm7.981 16.023c-2.093-4.463-2.573-8.772-1.427-12.79.123-.43.32-.781.439-.781.118 0 .612.264 1.097.588.964.644 2.899 1.729 8.05 4.516 6.43 3.478 10.096 6.17 12.589 9.248 2.183 2.694 3.533 5.763 4.184 9.506.368 2.12.152 7.22-.396 9.354-1.729 6.731-5.746 12.017-11.476 15.103-.84.452-1.594.823-1.675.824-.082.002.224-.77.68-1.714 1.927-3.999 2.147-7.887.689-12.216-.892-2.65-2.712-5.885-6.385-11.351-4.272-6.355-5.318-8.046-6.369-10.287zM136.46 95.194c-6.624 1.068-13.896 4.546-19.74 9.442l-1.74 1.458 1.529.237c7.979 1.235 10.128 2.332 15.663 7.989 3.186 3.255 4.262 3.98 6.904 4.649 3.88.983 7.705-.823 9.017-4.258.587-1.534.509-4.075-.164-5.351-1.6-3.039-6.261-4.02-8.515-1.795-1.877 1.854-1.33 4.646 1.005 5.127.534.11.519.087-.136-.207-1.022-.46-1.466-1.094-1.472-2.106-.013-2.372 2.722-3.704 5.267-2.564 1.863.834 2.603 1.925 2.603 3.835 0 2.942-2.524 5.16-5.461 4.797-1.57-.194-3.49-1.19-4.52-2.345-2.59-2.907-1.581-7.493 2.036-9.252 2.753-1.34 6.414-1.009 9.252.834 3.261 2.119 4.648 4.056 7.457 10.412.914 2.07 2.091 4.399 2.615 5.177 2.66 3.952 5.848 5.89 9.688 5.89 2.118 0 3.711-.384 5.716-1.377 1.489-.739 3.601-2.141 3.448-2.291-.043-.043-.661.148-1.373.423-4.192 1.623-8.455 1.512-10.93-.286-1.558-1.132-2.816-3.386-3.462-6.206-.112-.488-.481-2.642-.821-4.789-.86-5.441-1.687-7.886-3.613-10.692-1.971-2.871-5.762-5.281-9.999-6.357-2.644-.672-7.399-.854-10.254-.394zm-9.277-42.065c.572-2.096 2.42-4.095 4.321-4.674 1.209-.368 3.707-.133 4.882.46 2.277 1.148 3.93 3.764 3.571 5.652-.437 2.303-4.201 4.145-8.53 4.175-2.212.015-3.028-.28-3.873-1.398-.522-.693-.72-2.936-.371-4.215zm8.622-3.394c1.135.688 1.427 1.705.76 2.646-.46.649-1.884 1.264-2.924 1.264-1.563 0-3.269-1.1-3.269-2.11 0-2.026 3.27-3.11 5.433-1.8z" clip-rule="evenodd"/>
    <path fill="#3F3F47" d="M16.614 148.929v1.087c-2.25.152-3.708.533-4.375 1.143-.667.591-1 1.964-1 4.118v18.731c0 3.069.419 5.461 1.257 7.177 1.564 3.127 4.528 4.69 8.894 4.69 4.785 0 7.997-1.601 9.637-4.804.915-1.792 1.372-4.557 1.372-8.293v-15.242c0-3.183-.381-5.176-1.144-5.976-.762-.82-2.211-1.335-4.346-1.544v-1.087h13.554v1.087c-2.268.247-3.755.8-4.46 1.658-.687.839-1.03 2.793-1.03 5.862v15.242c0 4.042-.62 7.197-1.859 9.465-2.287 4.175-6.634 6.263-13.04 6.263-6.329 0-10.637-2.059-12.925-6.177-1.24-2.211-1.859-5.128-1.859-8.75v-18.302c0-2.135-.333-3.498-1-4.089-.649-.61-2.079-1.001-4.29-1.172v-1.087h16.614zM48.035 186.618c2.422-.247 3.975-.791 4.662-1.63.686-.857 1.03-2.831 1.03-5.919v-25.822l-.802-.944c-.857-1.01-1.591-1.63-2.201-1.859-.591-.247-1.487-.39-2.688-.428v-1.087h10.037l22.562 28.196v-19.589c0-3.222-.477-5.319-1.43-6.291-.629-.629-2.02-1.039-4.175-1.229v-1.087h13.755v1.087c-2.23.228-3.718.772-4.461 1.63-.744.857-1.115 2.821-1.115 5.89v30.827h-1.001L56.3 156.249v22.82c0 3.203.467 5.29 1.401 6.263.61.629 1.973 1.058 4.09 1.286v1.058H48.035v-1.058zM96.5 186.618c2.383-.171 3.927-.524 4.633-1.058.705-.553 1.058-1.963 1.058-4.232v-26.051c0-2.154-.353-3.536-1.058-4.146-.706-.629-2.25-1.001-4.633-1.115v-1.087h17.329v1.087c-2.383.114-3.927.486-4.632 1.115-.706.61-1.058 1.992-1.058 4.146v26.051c0 2.269.352 3.679 1.058 4.232.705.534 2.249.887 4.632 1.058v1.058H96.5v-1.058zM124.69 175.895c.991 2.631 2.154 4.728 3.489 6.291 2.325 2.726 5.214 4.089 8.664 4.089 1.868 0 3.479-.591 4.833-1.773 1.373-1.182 2.059-2.831 2.059-4.947 0-1.906-.686-3.565-2.059-4.976-.896-.896-2.783-2.24-5.662-4.032l-5.004-3.117c-1.506-.953-2.707-1.915-3.603-2.888-1.659-1.849-2.488-3.889-2.488-6.119 0-2.955.981-5.414 2.945-7.378 1.964-1.964 4.566-2.945 7.807-2.945 1.334 0 2.936.333 4.804 1 1.887.649 2.964.973 3.231.973.725 0 1.22-.172 1.487-.515.286-.343.505-.829.658-1.458h1.201l1.287 12.467h-1.401c-.954-3.755-2.488-6.376-4.604-7.863-2.097-1.487-4.175-2.231-6.234-2.231-1.602 0-3.003.477-4.204 1.43-1.182.934-1.773 2.24-1.773 3.918 0 1.506.458 2.792 1.373 3.86.915 1.087 2.335 2.221 4.261 3.403l5.147 3.174c3.222 1.983 5.49 3.803 6.806 5.462 1.296 1.678 1.944 3.66 1.944 5.948 0 3.069-1.163 5.633-3.489 7.692-2.306 2.059-5.261 3.089-8.864 3.089-1.811 0-3.708-.344-5.691-1.03-1.963-.686-3.088-1.029-3.374-1.029-.686 0-1.154.209-1.401.629a4.14 4.14 0 00-.458 1.344h-1.287l-1.744-12.468h1.344zM173.984 148.929v1.087c-1.163.038-1.993.143-2.488.314-.877.324-1.316.915-1.316 1.773 0 .381.048.753.143 1.115.115.363.277.83.487 1.401l8.464 22.019 6.234-16.528-2.774-7.063c-.515-1.297-1.287-2.164-2.316-2.603-.61-.266-1.535-.409-2.774-.428v-1.087h15.671v1.087c-1.468.019-2.479.123-3.032.314-.877.324-1.315.991-1.315 2.002 0 .343.038.648.114.915.077.248.267.772.572 1.573l8.465 21.961 7.32-19.874c.42-1.125.706-2.125.858-3.002.095-.496.143-.896.143-1.201 0-1.087-.515-1.84-1.544-2.26-.572-.247-1.43-.39-2.574-.428v-1.087h11.61v1.087c-1.048.152-1.849.39-2.402.714-.991.553-1.735 1.506-2.23 2.86l-6.234 17.415-2.431 6.72-3.517 10.638h-.887l-2.373-6.777-6.978-18.016-9.007 24.793h-.887l-4.203-12.182-5.033-13.698c-2.078-5.643-3.527-9.103-4.347-10.38-.801-1.296-2.059-1.992-3.775-2.087v-1.087h14.356zM240.149 172.635l-6.777-16.128-6.692 16.128h13.469zm-25.279 15.041v-1.058c1.506-.171 2.631-.743 3.375-1.715.762-.973 2.058-3.613 3.889-7.921l12.21-28.739h1.144l14.584 33.2c.972 2.211 1.744 3.584 2.316 4.117.591.515 1.573.868 2.946 1.058v1.058h-14.899v-1.058c1.716-.152 2.821-.333 3.317-.543.496-.229.744-.772.744-1.63 0-.286-.096-.791-.286-1.515a16.55 16.55 0 00-.801-2.288l-2.431-5.634h-15.327c-1.525 3.832-2.44 6.177-2.745 7.035-.286.839-.429 1.506-.429 2.002 0 .991.4 1.677 1.201 2.059.495.228 1.43.4 2.802.514v1.058h-11.61zM287.527 159.567c0-3.584-1.544-6.044-4.633-7.378-1.658-.725-3.755-1.087-6.291-1.087-1.201 0-1.944.124-2.23.372-.267.229-.401.753-.401 1.573v15.27c1.049.095 1.735.152 2.059.172.324.019.639.028.944.028 2.688 0 4.804-.381 6.348-1.144 2.803-1.391 4.204-3.994 4.204-7.806zm-24.393 27.051c2.231-.209 3.623-.648 4.176-1.315.552-.686.829-2.24.829-4.661v-25.365c0-2.04-.315-3.384-.944-4.032-.61-.648-1.963-1.058-4.061-1.229v-1.087h15.442c4.957 0 8.751.963 11.382 2.888 2.63 1.926 3.946 4.461 3.946 7.607 0 3.984-1.459 6.872-4.375 8.664-2.917 1.792-6.568 2.688-10.953 2.688-.629 0-1.439-.009-2.43-.028a59.414 59.414 0 00-2.174-.058v10.638c0 2.212.334 3.603 1.001 4.175.687.572 2.202.944 4.547 1.115v1.058h-16.386v-1.058z"/>
</svg>